<svg width="32" height="32" viewBox="0 0 32 32" fill="none" xmlns="http://www.w3.org/2000/svg">
<circle opacity="0.2" cx="16" cy="16" r="16" fill="#5A8DEE"/>
<path fill-rule="evenodd" clip-rule="evenodd" d="M16 13C16.825 13 17.5 12.325 17.5 11.5C17.5 10.675 16.825 10 16 10C15.175 10 14.5 10.675 14.5 11.5C14.5 12.325 15.175 13 16 13ZM16 14.5C15.175 14.5 14.5 15.175 14.5 16C14.5 16.825 15.175 17.5 16 17.5C16.825 17.5 17.5 16.825 17.5 16C17.5 15.175 16.825 14.5 16 14.5ZM14.5 20.5C14.5 19.675 15.175 19 16 19C16.825 19 17.5 19.675 17.5 20.5C17.5 21.325 16.825 22 16 22C15.175 22 14.5 21.325 14.5 20.5Z" fill="#5A8DEE"/>
</svg>
