<svg width="233" height="318" viewBox="0 0 233 318" fill="none" xmlns="http://www.w3.org/2000/svg">
<path opacity="0.5" d="M147.253 0H0V230.82H147.253V0Z" fill="#ACC6F7"/>
<path opacity="0.5" d="M147.253 202.273H0V230.82H147.253V202.273Z" fill="white"/>
<path opacity="0.5" d="M147.253 0H0V23.6472H147.253V0Z" fill="white"/>
<path d="M4.89844 11.8718C4.89844 14.1329 5.84056 16.1113 7.25374 17.6187L7.34796 17.7129C8.38429 18.7493 9.79746 19.5029 11.2106 19.7856C11.3049 19.7856 11.3049 19.7856 11.3991 19.7856C11.6817 19.8798 11.9643 19.8798 12.247 19.8798C12.4354 19.8798 12.718 19.8798 12.9065 19.8798C13.0007 19.8798 13.0007 19.8798 13.0949 19.8798C13.2833 19.8798 13.3775 19.8798 13.5659 19.8798C13.7544 19.8798 13.8486 19.8798 14.037 19.7856C14.2254 19.7856 14.4139 19.6914 14.6023 19.6914H14.6965C15.827 19.4087 16.8634 18.9377 17.8055 18.2782C17.8055 18.2782 17.8055 18.2782 17.8997 18.2782C17.9939 18.184 17.9939 18.184 18.0881 18.0898C19.8782 16.5824 21.0087 14.4155 21.0087 11.8718C21.0087 7.44379 17.4286 3.76953 12.9065 3.76953C8.4785 3.76953 4.89844 7.34958 4.89844 11.8718Z" fill="#407BFF"/>
<path d="M8.28941 10.2686C8.28941 10.2686 7.34729 14.0371 8.57205 15.1677C9.7968 16.2982 16.9569 16.2982 17.899 14.8851C18.9354 13.4719 16.5801 8.85547 16.5801 8.85547L8.28941 10.2686Z" fill="#263238"/>
<path d="M7.34766 17.6165C8.38399 18.6528 9.79716 19.4065 11.2103 19.6892C11.3046 19.6892 11.3046 19.6892 11.3988 19.6892C11.6814 19.7834 11.964 19.7834 12.2467 19.7834C12.4351 19.7834 12.7177 19.7834 12.9062 19.7834C13.0004 19.7834 13.0004 19.7834 13.0946 19.7834C13.283 19.7834 13.3772 19.7834 13.5656 19.7834C13.7541 19.7834 13.8483 19.7834 14.0367 19.6892C14.2251 19.6892 14.4136 19.595 14.602 19.595V19.6892C14.602 19.6892 14.6962 19.6892 14.6962 19.595C15.8267 19.3123 16.8631 18.8413 17.8052 18.1818C17.8052 18.0876 17.711 17.8991 17.6168 17.8049H17.5226C17.3341 17.7107 16.9573 17.6165 16.4862 17.5223H16.392C16.1094 17.4281 15.7325 17.3339 15.3557 17.2397C15.073 17.2397 14.8846 17.1455 14.602 17.1455H14.5078C14.3193 17.1455 14.0367 17.0512 13.8483 17.0512C13.7541 17.0512 13.6599 17.0512 13.5656 17.0512C13.1888 17.0512 12.812 16.957 12.4351 16.957C12.3409 16.957 12.1525 16.957 12.0583 16.957C11.8698 16.957 11.6814 16.957 11.493 16.957C11.3046 16.957 11.0219 16.957 10.8335 17.0512C10.6451 17.0512 10.4566 17.0512 10.2682 17.1455C9.89137 17.1455 9.60874 17.2397 9.3261 17.3339C8.5724 17.2397 7.91293 17.4281 7.34766 17.6165Z" fill="#407BFF"/>
<path opacity="0.6" d="M7.34766 17.6165C8.38399 18.6528 9.79716 19.4065 11.2103 19.6892C11.3046 19.6892 11.3046 19.6892 11.3988 19.6892C11.6814 19.7834 11.964 19.7834 12.2467 19.7834C12.4351 19.7834 12.7177 19.7834 12.9062 19.7834C13.0004 19.7834 13.0004 19.7834 13.0946 19.7834C13.283 19.7834 13.3772 19.7834 13.5656 19.7834C13.7541 19.7834 13.8483 19.7834 14.0367 19.6892C14.2251 19.6892 14.4136 19.595 14.602 19.595V19.6892C14.602 19.6892 14.6962 19.6892 14.6962 19.595C15.8267 19.3123 16.8631 18.8413 17.8052 18.1818C17.8052 18.0876 17.711 17.8991 17.6168 17.8049H17.5226C17.3341 17.7107 16.9573 17.6165 16.4862 17.5223H16.392C16.1094 17.4281 15.7325 17.3339 15.3557 17.2397C15.073 17.2397 14.8846 17.1455 14.602 17.1455H14.5078C14.3193 17.1455 14.0367 17.0512 13.8483 17.0512C13.7541 17.0512 13.6599 17.0512 13.5656 17.0512C13.1888 17.0512 12.812 16.957 12.4351 16.957C12.3409 16.957 12.1525 16.957 12.0583 16.957C11.8698 16.957 11.6814 16.957 11.493 16.957C11.3046 16.957 11.0219 16.957 10.8335 17.0512C10.6451 17.0512 10.4566 17.0512 10.2682 17.1455C9.89137 17.1455 9.60874 17.2397 9.3261 17.3339C8.5724 17.2397 7.91293 17.4281 7.34766 17.6165Z" fill="white"/>
<path d="M16.8637 9.98483C16.8637 9.98483 17.2406 3.86104 11.8705 5.27423C5.08723 7.06425 9.04413 15.1665 12.3416 14.1302C15.7332 13.0938 16.8637 9.98483 16.8637 9.98483Z" fill="#263238"/>
<path opacity="0.2" d="M9.98633 17.2381L11.2111 19.5934L11.3053 19.7818C11.3995 19.7818 11.3995 19.7818 11.4937 19.7818C11.7763 19.876 12.059 19.876 12.3416 19.876L13.0011 19.0281C13.0953 19.3107 13.0953 19.5934 13.1895 19.876C13.378 19.876 13.4722 19.876 13.6606 19.876C13.6606 19.3107 13.5664 19.0281 13.5664 19.0281L14.1317 19.876C14.3201 19.876 14.5085 19.7818 14.6969 19.7818L14.7911 17.2381C14.6969 17.2381 14.6027 17.1438 14.5085 17.1438C14.2259 17.0496 14.0374 16.9554 13.7548 16.9554C13.6606 16.9554 13.6606 16.9554 13.5664 16.9554C13.0011 16.8612 12.4358 16.8612 11.9648 16.9554C11.7763 16.9554 11.5879 16.9554 11.4937 17.0496C11.2111 17.0496 10.9284 17.1439 10.74 17.2381C10.3632 17.0496 10.0805 17.1439 9.98633 17.2381Z" fill="black"/>
<path d="M13.1887 17.8025L10.5508 17.0488C12.1524 15.9183 11.3987 13.4688 11.3987 13.4688L14.0366 14.4109C13.9424 14.8819 13.8482 15.1646 13.754 15.5414C13.4714 17.143 14.2251 17.3314 14.2251 17.3314L13.1887 17.8025Z" fill="#B97964"/>
<path opacity="0.2" d="M14.0364 14.4109C13.9422 14.8819 13.848 15.1646 13.7537 15.5414C12.529 15.0704 11.3984 13.4688 11.3984 13.4688L14.0364 14.4109Z" fill="black"/>
<path d="M13.3775 6.78257C15.7328 6.59415 16.5808 7.8189 16.9576 10.2684C17.3345 13.2832 16.8634 15.5443 13.8486 15.0732C9.79749 14.4138 9.51485 7.06521 13.3775 6.78257Z" fill="#B97964"/>
<path d="M15.4492 10.2695C15.4492 10.2695 15.8261 10.8348 16.2029 11.2117C16.2029 11.2117 16.0145 11.5885 15.6377 11.4943L15.4492 10.2695Z" fill="#A24E3F"/>
<path d="M13.9418 10.1757C13.9418 10.3641 13.8476 10.5525 13.7533 10.5525C13.6591 10.5525 13.4707 10.4583 13.4707 10.1757C13.4707 9.98726 13.5649 9.79883 13.6591 9.79883C13.8475 9.79883 13.9418 9.98726 13.9418 10.1757Z" fill="#263238"/>
<path d="M13.6582 9.89313L14.035 9.70471C14.035 9.61049 13.8466 9.98734 13.6582 9.89313Z" fill="#263238"/>
<path d="M16.3929 9.89248C16.3929 10.0809 16.2987 10.2693 16.2045 10.2693C16.1103 10.2693 15.9219 10.1751 15.9219 9.89248C15.9219 9.70406 16.0161 9.51562 16.1103 9.51562C16.2045 9.60984 16.2987 9.70406 16.3929 9.89248Z" fill="#263238"/>
<path d="M16.0156 9.60834L16.3925 9.41992C16.4867 9.41992 16.2983 9.79677 16.0156 9.60834Z" fill="#263238"/>
<path d="M13.8508 8.57227C13.8508 8.57227 13.1913 8.57227 12.8145 8.94912" stroke="#263238" stroke-width="0.7247" stroke-miterlimit="10" stroke-linecap="round" stroke-linejoin="round"/>
<path d="M15.543 8.29005C15.543 8.29005 15.9198 8.10161 16.4851 8.38425" stroke="#263238" stroke-width="0.7247" stroke-miterlimit="10" stroke-linecap="round" stroke-linejoin="round"/>
<path d="M11.1172 10.9271C11.1172 10.9271 12.0593 8.94861 11.8709 7.44122C11.8709 7.44122 16.3931 5.18013 16.9584 9.98494C16.9584 9.98494 17.1468 5.74541 13.0957 5.93383C9.04454 6.12226 9.42139 12.0576 11.6825 13.6592C11.5883 13.6592 10.4577 12.246 11.1172 10.9271Z" fill="#263238"/>
<path d="M11.4933 11.3986C11.4933 11.0218 11.0223 10.3623 10.3628 10.5507C9.60909 10.6449 9.42066 12.2466 11.2107 12.435C11.4933 12.5292 11.5875 12.2465 11.4933 11.3986Z" fill="#B97964"/>
<path d="M15.8267 12.4354C15.7325 12.7181 15.544 13.2833 15.544 13.2833C15.4498 13.2833 15.4498 13.2833 15.3556 13.2833C14.6961 13.1891 14.3193 13.0007 14.2251 12.7181C14.1309 12.5297 14.1309 12.4354 14.1309 12.3412C14.1309 12.247 14.1309 12.0586 14.1309 12.0586C14.5077 12.3412 15.1672 12.4354 15.4498 12.4354C15.7325 12.4354 15.8267 12.4354 15.8267 12.4354Z" fill="#263238"/>
<path d="M15.6378 12.4354L15.5436 12.7181C14.8841 12.7181 14.413 12.5296 14.2246 12.3412C14.2246 12.247 14.2246 12.0586 14.2246 12.0586C14.6015 12.247 15.2609 12.3412 15.6378 12.4354Z" fill="white"/>
<path d="M15.4489 13.2821C14.7894 13.1878 14.4126 12.9994 14.3184 12.7168C14.5068 12.7168 14.7894 12.811 15.0721 12.9052C15.2605 12.9994 15.3547 13.0936 15.4489 13.2821Z" fill="#DE5753"/>
<path d="M13.378 6.97028C13.378 6.97028 12.7185 10.9272 10.269 11.0214C7.81949 11.1156 11.3053 5.93395 11.3053 5.93395C11.3053 5.93395 15.168 4.14392 17.3349 6.12238C19.4076 8.10083 16.9581 9.89086 16.9581 9.89086C16.9581 9.89086 16.8638 6.97028 13.378 6.97028Z" fill="#263238"/>
<path d="M13.378 6.6875C13.378 6.6875 13.8491 9.32545 11.9648 10.3618" stroke="#263238" stroke-width="0.5" stroke-miterlimit="10" stroke-linecap="round" stroke-linejoin="round"/>
<path d="M10.7402 10.646C10.7402 10.7402 10.7402 10.7402 10.7402 10.646H11.0229H11.2113H11.3997L13.0955 10.4575C13.1897 10.9286 13.5666 11.3054 14.0377 11.3054C14.6029 11.3997 15.1682 11.0228 15.2624 10.3633C15.2624 10.2691 15.2624 10.2691 15.2624 10.1749C15.3566 10.0807 15.4508 9.98646 15.5451 9.98646C15.6393 9.98646 15.7335 10.0807 15.7335 10.0807C15.8277 10.4575 16.0161 10.7402 16.393 10.9286C16.4872 10.9286 16.5814 11.0228 16.6756 11.0228C16.864 11.0228 16.9582 11.0228 17.1467 11.0228C17.3351 11.0228 17.5235 10.9286 17.6177 10.7402C17.8061 10.5517 17.9004 10.3633 17.9004 10.0807C17.9946 9.70383 17.8061 9.4212 17.6177 9.13856C17.4293 8.95014 17.2409 8.85593 16.9582 8.76172C16.9582 8.76172 16.9582 8.76172 16.864 8.76172H16.7698C16.2988 8.76172 15.8277 9.13857 15.7335 9.70384C15.7335 9.79805 15.7335 9.79805 15.7335 9.89226H15.6393C15.5451 9.89226 15.4508 9.89225 15.3566 9.98646C15.2624 9.5154 14.8856 9.13856 14.4145 9.13856H14.3203C14.1319 9.13856 14.0377 9.13857 13.8492 9.23278C13.4724 9.32699 13.1898 9.70383 13.1898 10.0807C13.1898 10.1749 13.1898 10.2691 13.1898 10.2691L11.6824 10.3633H11.3997L10.7402 10.646C10.8344 10.5517 10.8344 10.5517 10.7402 10.646C10.7402 10.5517 10.7402 10.646 10.7402 10.646ZM15.8277 9.89226C15.9219 9.4212 16.2988 9.13856 16.7698 9.04434C16.7698 9.04434 16.7698 9.04434 16.864 9.04434C16.864 9.04434 16.864 9.04434 16.9582 9.04434C17.1467 9.04434 17.4293 9.23277 17.5235 9.32698C17.7119 9.51541 17.8061 9.79805 17.7119 10.0807C17.7119 10.2691 17.6177 10.4575 17.4293 10.5517C17.3351 10.646 17.1467 10.7402 16.9582 10.8344C16.864 10.8344 16.6756 10.9286 16.5814 10.8344C16.4872 10.8344 16.4872 10.8344 16.393 10.8344C16.0161 10.7402 15.7335 10.3633 15.8277 9.89226ZM13.1898 10.1749C13.284 9.60963 13.755 9.32698 14.3203 9.32698C14.8856 9.42119 15.1682 9.89225 15.1682 10.4575C15.074 11.0228 14.6029 11.3054 14.0377 11.3054C13.4724 11.2112 13.1898 10.7402 13.1898 10.1749Z" fill="#263238"/>
<g opacity="0.8">
<path opacity="0.8" d="M10.7402 10.646C10.7402 10.7402 10.7402 10.7402 10.7402 10.646H11.0229H11.2113H11.3997L13.0955 10.4575C13.1897 10.9286 13.5666 11.3054 14.0377 11.3054C14.6029 11.3997 15.1682 11.0228 15.2624 10.3633C15.2624 10.2691 15.2624 10.2691 15.2624 10.1749C15.3566 10.0807 15.4508 9.98646 15.5451 9.98646C15.6393 9.98646 15.7335 10.0807 15.7335 10.0807C15.8277 10.4575 16.0161 10.7402 16.393 10.9286C16.4872 10.9286 16.5814 11.0228 16.6756 11.0228C16.864 11.0228 16.9582 11.0228 17.1467 11.0228C17.3351 11.0228 17.5235 10.9286 17.6177 10.7402C17.8061 10.5517 17.9004 10.3633 17.9004 10.0807C17.9946 9.70383 17.8061 9.4212 17.6177 9.13856C17.4293 8.95014 17.2409 8.85593 16.9582 8.76172C16.9582 8.76172 16.9582 8.76172 16.864 8.76172H16.7698C16.2988 8.76172 15.8277 9.13857 15.7335 9.70384C15.7335 9.79805 15.7335 9.79805 15.7335 9.89226H15.6393C15.5451 9.89226 15.4508 9.89225 15.3566 9.98646C15.2624 9.5154 14.8856 9.13856 14.4145 9.13856H14.3203C14.1319 9.13856 14.0377 9.13857 13.8492 9.23278C13.4724 9.32699 13.1898 9.70383 13.1898 10.0807C13.1898 10.1749 13.1898 10.2691 13.1898 10.2691L11.6824 10.3633H11.3997L10.7402 10.646C10.8344 10.5517 10.8344 10.5517 10.7402 10.646C10.7402 10.5517 10.7402 10.646 10.7402 10.646ZM15.8277 9.89226C15.9219 9.4212 16.2988 9.13856 16.7698 9.04434C16.7698 9.04434 16.7698 9.04434 16.864 9.04434C16.864 9.04434 16.864 9.04434 16.9582 9.04434C17.1467 9.04434 17.4293 9.23277 17.5235 9.32698C17.7119 9.51541 17.8061 9.79805 17.7119 10.0807C17.7119 10.2691 17.6177 10.4575 17.4293 10.5517C17.3351 10.646 17.1467 10.7402 16.9582 10.8344C16.864 10.8344 16.6756 10.9286 16.5814 10.8344C16.4872 10.8344 16.4872 10.8344 16.393 10.8344C16.0161 10.7402 15.7335 10.3633 15.8277 9.89226ZM13.1898 10.1749C13.284 9.60963 13.755 9.32698 14.3203 9.32698C14.8856 9.42119 15.1682 9.89225 15.1682 10.4575C15.074 11.0228 14.6029 11.3054 14.0377 11.3054C13.4724 11.2112 13.1898 10.7402 13.1898 10.1749Z" fill="white"/>
</g>
<path d="M11.3053 16.1074L13.0011 17.709L12.3416 19.6875L9.98633 17.238L11.3053 16.1074Z" fill="#407BFF"/>
<path d="M13.6596 16.4863L13.377 17.7111L14.3191 19.5011L14.7901 17.1458L13.6596 16.4863Z" fill="#407BFF"/>
<path d="M14.793 19.6897C15.9235 19.4071 16.9598 18.936 17.902 18.2766C17.902 18.2766 17.902 18.2766 17.9962 18.2766C18.0904 18.1823 18.0904 18.1823 18.1846 18.0881C18.0904 17.9939 17.902 17.9939 17.8078 17.8997C16.583 17.4287 15.5467 17.2402 15.5467 17.2402C15.5467 17.2402 15.5467 17.2402 15.5467 17.3344C15.4525 17.5229 15.6409 18.8418 14.793 19.6897Z" fill="#263238"/>
<path d="M7.25391 17.5223L7.34812 17.6165C8.38446 18.6528 9.79763 19.4065 11.2108 19.6892C11.305 19.6892 11.305 19.6892 11.3992 19.6892C11.305 19.595 11.2108 19.5008 11.1166 19.5008C11.0224 19.4065 10.834 19.3123 10.7398 19.1239C10.5513 18.9355 10.4571 18.8413 10.2687 18.6529C10.2687 18.5586 10.1745 18.5586 10.1745 18.4644C10.0803 18.3702 9.98606 18.276 9.89185 18.1818C9.79764 18.0876 9.70343 17.9934 9.70343 17.8992C9.60921 17.8049 9.60922 17.7107 9.515 17.6165C9.42079 17.4281 9.23237 17.2397 9.23237 17.1455C9.13815 17.0512 9.13815 16.957 9.13815 16.957C9.13815 16.957 8.29024 17.2397 7.25391 17.5223Z" fill="#263238"/>
<path opacity="0.1" d="M7.25391 17.5223L7.34812 17.6165C8.38446 18.6528 9.79763 19.4065 11.2108 19.6892C11.305 19.6892 11.305 19.6892 11.3992 19.6892C11.305 19.595 11.2108 19.5008 11.1166 19.5008C11.0224 19.4065 10.834 19.3123 10.7398 19.1239C10.5513 18.9355 10.4571 18.8413 10.2687 18.6529C10.2687 18.5586 10.1745 18.5586 10.1745 18.4644C10.0803 18.3702 9.98606 18.276 9.89185 18.1818C9.79764 18.0876 9.70343 17.9934 9.70343 17.8992C9.60921 17.8049 9.60922 17.7107 9.515 17.6165C9.42079 17.4281 9.23237 17.2397 9.23237 17.1455C9.13815 17.0512 9.13815 16.957 9.13815 16.957C9.13815 16.957 8.29024 17.2397 7.25391 17.5223Z" fill="white"/>
<path opacity="0.6" d="M11.3053 16.1074L13.0011 17.709L12.3416 19.6875L9.98633 17.238L11.3053 16.1074Z" fill="white"/>
<path opacity="0.6" d="M13.6596 16.4863L13.377 17.7111L14.3191 19.5011L14.7901 17.1458L13.6596 16.4863Z" fill="white"/>
<g opacity="0.1">
<path opacity="0.1" d="M14.793 19.6897C15.9235 19.4071 16.9598 18.936 17.902 18.2766C17.902 18.2766 17.902 18.2766 17.9962 18.2766C18.0904 18.1823 18.0904 18.1823 18.1846 18.0881C18.0904 17.9939 17.902 17.9939 17.8078 17.8997C16.583 17.4287 15.5467 17.2402 15.5467 17.2402C15.5467 17.2402 15.5467 17.2402 15.5467 17.3344C15.4525 17.5229 15.6409 18.8418 14.793 19.6897Z" fill="white"/>
<path opacity="0.1" d="M7.25391 17.5223L7.34812 17.6165C8.38446 18.6528 9.79763 19.4065 11.2108 19.6892C11.305 19.6892 11.305 19.6892 11.3992 19.6892C11.305 19.595 11.2108 19.5008 11.1166 19.5008C11.0224 19.4065 10.834 19.3123 10.7398 19.1239C10.5513 18.9355 10.4571 18.8413 10.2687 18.6529C10.2687 18.5586 10.1745 18.5586 10.1745 18.4644C10.0803 18.3702 9.98606 18.276 9.89185 18.1818C9.79764 18.0876 9.70343 17.9934 9.70343 17.8992C9.60921 17.8049 9.60922 17.7107 9.515 17.6165C9.42079 17.4281 9.23237 17.2397 9.23237 17.1455C9.13815 17.0512 9.13815 16.957 9.13815 16.957C9.13815 16.957 8.29024 17.2397 7.25391 17.5223Z" fill="white"/>
</g>
<path opacity="0.2" d="M54.3613 13.6601H26.2861C25.2498 13.6601 24.4961 12.8122 24.4961 11.8701C24.4961 10.8338 25.344 10.0801 26.2861 10.0801H54.3613C55.3977 10.0801 56.1514 10.928 56.1514 11.8701C56.1514 12.8122 55.3977 13.6601 54.3613 13.6601Z" fill="#5A8DEE"/>
<g opacity="0.6">
<path opacity="0.2" d="M107.401 9.42188H100.994V14.2267H107.401V9.42188Z" fill="#5A8DEE"/>
<path opacity="0.2" d="M109.191 13.6606L107.59 12.9069V10.74L109.191 9.98633V13.6606Z" fill="#5A8DEE"/>
</g>
<g opacity="0.6">
<path opacity="0.2" d="M118.8 7.91417L117.857 8.57365L119.647 10.3637L120.213 9.89263C120.59 9.60999 121.061 9.60998 121.343 9.98683L123.039 11.6827C123.322 11.9653 123.416 12.5306 123.133 12.8132L122.662 13.3785L124.452 15.1685L125.112 14.2264C125.677 13.4727 125.583 12.3421 124.923 11.6827L121.437 8.19681C120.684 7.44311 119.647 7.3489 118.8 7.91417Z" fill="#5A8DEE"/>
<path opacity="0.2" d="M119.751 10.5946L117.619 8.46289L116.953 9.12906L119.085 11.2608L119.751 10.5946Z" fill="#5A8DEE"/>
<path opacity="0.2" d="M124.522 15.413L122.391 13.2812L121.724 13.9474L123.856 16.0792L124.522 15.413Z" fill="#5A8DEE"/>
</g>
<g opacity="0.6">
<path opacity="0.2" d="M141.975 8.66797H135.851C135.663 8.66797 135.475 8.85639 135.475 9.04481C135.475 9.23324 135.663 9.42167 135.851 9.42167H141.975C142.164 9.42167 142.352 9.23324 142.352 9.04481C142.352 8.85639 142.164 8.66797 141.975 8.66797Z" fill="#5A8DEE"/>
<path opacity="0.2" d="M141.975 10.5508H135.851C135.663 10.5508 135.475 10.7392 135.475 10.9276C135.475 11.116 135.663 11.3045 135.851 11.3045H141.975C142.164 11.3045 142.352 11.116 142.352 10.9276C142.352 10.7392 142.164 10.5508 141.975 10.5508Z" fill="#5A8DEE"/>
<path opacity="0.2" d="M141.975 12.4355H135.851C135.663 12.4355 135.475 12.624 135.475 12.8124C135.475 13.0008 135.663 13.1892 135.851 13.1892H141.975C142.164 13.1892 142.352 13.0008 142.352 12.8124C142.352 12.5298 142.164 12.4355 141.975 12.4355Z" fill="#5A8DEE"/>
<path opacity="0.2" d="M141.975 14.3203H135.851C135.663 14.3203 135.475 14.5087 135.475 14.6972C135.475 14.8856 135.663 15.074 135.851 15.074H141.975C142.164 15.074 142.352 14.8856 142.352 14.6972C142.352 14.5087 142.164 14.3203 141.975 14.3203Z" fill="#5A8DEE"/>
</g>
<path d="M34.6713 209.152H133.406C137.551 209.152 140.848 212.45 140.848 216.595C140.848 220.74 137.551 224.038 133.406 224.038H34.6713C30.5259 224.038 27.2285 220.74 27.2285 216.595C27.2285 212.45 30.6202 209.152 34.6713 209.152Z" fill="white"/>
<path opacity="0.4" d="M75.7475 54.8307L32.5984 55.1134L28.0762 57.9397V36.2709C28.0762 33.3504 30.4315 31.0893 33.2578 31.0893L75.7475 30.8066C78.668 30.8066 80.9291 33.1619 80.9291 35.9883V49.6491C81.0234 52.4754 78.668 54.8307 75.7475 54.8307Z" fill="white"/>
<path d="M34.7656 37.9668H73.4868" stroke="white" stroke-miterlimit="10" stroke-linecap="round" stroke-linejoin="round"/>
<path d="M34.7656 42.7715H73.4868" stroke="white" stroke-miterlimit="10" stroke-linecap="round" stroke-linejoin="round"/>
<path d="M34.7656 47.5762H58.4129" stroke="white" stroke-miterlimit="10" stroke-linecap="round" stroke-linejoin="round"/>
<path d="M19.2428 221.774C22.1125 218.905 22.1125 214.252 19.2428 211.382C16.373 208.512 11.7202 208.512 8.85044 211.382C5.98069 214.252 5.98071 218.905 8.85046 221.774C11.7202 224.644 16.373 224.644 19.2428 221.774Z" fill="#407BFF"/>
<path d="M7.72461 39.1921C7.72461 41.4532 8.66673 43.4316 10.0799 44.939L10.1741 45.0332C11.2105 46.0696 12.6236 46.8233 14.0368 47.1059C14.131 47.1059 14.131 47.1059 14.2253 47.1059C14.5079 47.2001 14.7905 47.2001 15.0732 47.2001C15.2616 47.2001 15.5442 47.2001 15.7326 47.2001C15.8268 47.2001 15.8268 47.2001 15.9211 47.2001C16.1095 47.2001 16.2037 47.2001 16.3921 47.2001C16.5805 47.2001 16.6748 47.2001 16.8632 47.1059C17.0516 47.1059 17.24 47.0117 17.4285 47.0117H17.5227C18.6532 46.729 19.6895 46.258 20.6317 45.5985C20.6317 45.5985 20.6317 45.5985 20.7259 45.5985C20.8201 45.5043 20.8201 45.5043 20.9143 45.4101C22.7043 43.9027 23.8349 41.7358 23.8349 39.1921C23.8349 34.7641 20.2548 31.0898 15.7326 31.0898C11.3047 31.0898 7.72461 34.6699 7.72461 39.1921Z" fill="#407BFF"/>
<path d="M11.1136 37.5909C11.1136 37.5909 10.1715 41.3594 11.3963 42.4899C12.621 43.6205 19.7811 43.6205 20.7233 42.2073C21.7596 40.7941 19.4043 36.1777 19.4043 36.1777L11.1136 37.5909Z" fill="#263238"/>
<path d="M10.1719 44.9388C11.2082 45.9751 12.6214 46.7288 14.0346 47.0114C14.1288 47.0114 14.1288 47.0114 14.223 47.0114C14.5056 47.1057 14.7883 47.1057 15.0709 47.1057C15.2593 47.1057 15.542 47.1057 15.7304 47.1057C15.8246 47.1057 15.8246 47.1057 15.9188 47.1057C16.1072 47.1057 16.2014 47.1057 16.3899 47.1057C16.5783 47.1057 16.6725 47.1057 16.8609 47.0114C17.0493 47.0114 17.2378 46.9172 17.4262 46.9172V47.0114C17.4262 47.0114 17.5204 47.0115 17.5204 46.9172C18.651 46.6346 19.6873 46.1635 20.6294 45.5041C20.6294 45.4098 20.5352 45.2214 20.441 45.1272H20.3468C20.1584 45.033 19.7815 44.9388 19.3104 44.8446H19.2162C18.9336 44.7503 18.5568 44.6561 18.1799 44.5619C17.8973 44.5619 17.7088 44.4677 17.4262 44.4677H17.332C17.1436 44.4677 16.8609 44.3735 16.6725 44.3735C16.5783 44.3735 16.4841 44.3735 16.3899 44.3735C16.013 44.3735 15.6362 44.2793 15.2593 44.2793C15.1651 44.2793 14.9767 44.2793 14.8825 44.2793C14.6941 44.2793 14.5056 44.2793 14.3172 44.2793C14.1288 44.2793 13.8461 44.2793 13.6577 44.3735C13.4693 44.3735 13.2809 44.3735 13.0924 44.4677C12.7156 44.4677 12.433 44.5619 12.1503 44.6561C11.3966 44.5619 10.7371 44.7504 10.1719 44.9388Z" fill="#407BFF"/>
<path opacity="0.6" d="M10.1719 44.9388C11.2082 45.9751 12.6214 46.7288 14.0346 47.0114C14.1288 47.0114 14.1288 47.0114 14.223 47.0114C14.5056 47.1057 14.7883 47.1057 15.0709 47.1057C15.2593 47.1057 15.542 47.1057 15.7304 47.1057C15.8246 47.1057 15.8246 47.1057 15.9188 47.1057C16.1072 47.1057 16.2014 47.1057 16.3899 47.1057C16.5783 47.1057 16.6725 47.1057 16.8609 47.0114C17.0493 47.0114 17.2378 46.9172 17.4262 46.9172V47.0114C17.4262 47.0114 17.5204 47.0115 17.5204 46.9172C18.651 46.6346 19.6873 46.1635 20.6294 45.5041C20.6294 45.4098 20.5352 45.2214 20.441 45.1272H20.3468C20.1584 45.033 19.7815 44.9388 19.3104 44.8446H19.2162C18.9336 44.7503 18.5568 44.6561 18.1799 44.5619C17.8973 44.5619 17.7088 44.4677 17.4262 44.4677H17.332C17.1436 44.4677 16.8609 44.3735 16.6725 44.3735C16.5783 44.3735 16.4841 44.3735 16.3899 44.3735C16.013 44.3735 15.6362 44.2793 15.2593 44.2793C15.1651 44.2793 14.9767 44.2793 14.8825 44.2793C14.6941 44.2793 14.5056 44.2793 14.3172 44.2793C14.1288 44.2793 13.8461 44.2793 13.6577 44.3735C13.4693 44.3735 13.2809 44.3735 13.0924 44.4677C12.7156 44.4677 12.433 44.5619 12.1503 44.6561C11.3966 44.5619 10.7371 44.7504 10.1719 44.9388Z" fill="white"/>
<path d="M19.6879 37.3071C19.6879 37.3071 20.0648 31.1833 14.6947 32.5965C7.91144 34.3865 11.8684 42.4888 15.1658 41.4524C18.5574 40.4161 19.6879 37.3071 19.6879 37.3071Z" fill="#263238"/>
<path opacity="0.2" d="M12.8105 44.5603L14.0353 46.9156L14.1295 47.1041C14.2237 47.1041 14.2237 47.1041 14.3179 47.1041C14.6006 47.1983 14.8832 47.1983 15.1658 47.1983L15.8253 46.3504C15.9195 46.633 15.9195 46.9156 16.0138 47.1983C16.2022 47.1983 16.2964 47.1983 16.4848 47.1983C16.4848 46.633 16.3906 46.3504 16.3906 46.3504L16.9559 47.1983C17.1443 47.1983 17.3327 47.1041 17.5212 47.1041L17.6154 44.5603C17.5211 44.5603 17.4269 44.4661 17.3327 44.4661C17.0501 44.3719 16.8617 44.2777 16.579 44.2777C16.4848 44.2777 16.4848 44.2777 16.3906 44.2777C15.8253 44.1835 15.2601 44.1835 14.789 44.2777C14.6006 44.2777 14.4121 44.2777 14.3179 44.3719C14.0353 44.3719 13.7527 44.4661 13.5642 44.5603C13.1874 44.3719 12.9048 44.4661 12.8105 44.5603Z" fill="black"/>
<path d="M16.0129 45.1248L13.375 44.3711C14.9766 43.2405 14.2229 40.791 14.2229 40.791L16.8608 41.7331C16.7666 42.2042 16.6724 42.4868 16.5782 42.8637C16.2956 44.4653 17.0493 44.6537 17.0493 44.6537L16.0129 45.1248Z" fill="#B97964"/>
<path opacity="0.2" d="M16.8606 41.7331C16.7664 42.2042 16.6722 42.4868 16.578 42.8637C15.3532 42.3926 14.2227 40.791 14.2227 40.791L16.8606 41.7331Z" fill="black"/>
<path d="M16.2018 34.1048C18.5571 33.9164 19.405 35.1412 19.7818 37.5907C20.1587 40.6055 19.6876 42.8666 16.6728 42.3955C12.6217 41.736 12.3391 34.3875 16.2018 34.1048Z" fill="#B97964"/>
<path d="M18.2754 37.5918C18.2754 37.5918 18.6522 38.1571 19.0291 38.5339C19.0291 38.5339 18.8407 38.9108 18.4638 38.8166L18.2754 37.5918Z" fill="#A24E3F"/>
<path d="M16.7679 37.498C16.7679 37.6864 16.6737 37.8748 16.5795 37.8748C16.4853 37.8748 16.2969 37.7806 16.2969 37.498C16.2969 37.3095 16.3911 37.1211 16.4853 37.1211C16.6737 37.1211 16.7679 37.3095 16.7679 37.498Z" fill="#263238"/>
<path d="M16.4844 37.2154L16.8612 37.027C16.8612 36.9328 16.6728 37.3096 16.4844 37.2154Z" fill="#263238"/>
<path d="M19.2172 37.2128C19.2172 37.4012 19.1229 37.5896 19.0287 37.5896C18.9345 37.5896 18.7461 37.4954 18.7461 37.2128C18.7461 37.0244 18.8403 36.8359 18.9345 36.8359C19.0287 36.9301 19.1229 37.0244 19.2172 37.2128Z" fill="#263238"/>
<path d="M18.8398 36.9306L19.2167 36.7422C19.3109 36.7422 19.1225 37.119 18.8398 36.9306Z" fill="#263238"/>
<path d="M16.673 35.8945C16.673 35.8945 16.0136 35.8945 15.6367 36.2714" stroke="#263238" stroke-width="0.7247" stroke-miterlimit="10" stroke-linecap="round" stroke-linejoin="round"/>
<path d="M18.3691 35.6123C18.3691 35.6123 18.746 35.4239 19.3113 35.7065" stroke="#263238" stroke-width="0.7247" stroke-miterlimit="10" stroke-linecap="round" stroke-linejoin="round"/>
<path d="M13.9414 38.2513C13.9414 38.2513 14.8836 36.2728 14.6951 34.7654C14.6951 34.7654 19.2173 32.5043 19.7826 37.3092C19.7826 37.3092 19.971 33.0696 15.9199 33.2581C11.8688 33.4465 12.2456 39.3818 14.5067 40.9834C14.4125 40.9834 13.2819 39.5703 13.9414 38.2513Z" fill="#263238"/>
<path d="M14.3175 38.7209C14.3175 38.3441 13.8465 37.6846 13.187 37.873C12.4333 37.9672 12.2449 39.5688 14.0349 39.7572C14.3175 39.8515 14.4118 39.5688 14.3175 38.7209Z" fill="#B97964"/>
<path d="M18.6509 39.7577C18.5567 40.0403 18.3683 40.6056 18.3683 40.6056C18.274 40.6056 18.2741 40.6056 18.1798 40.6056C17.5204 40.5114 17.1435 40.323 17.0493 40.0403C16.9551 39.8519 16.9551 39.7577 16.9551 39.6635C16.9551 39.5693 16.9551 39.3809 16.9551 39.3809C17.3319 39.6635 17.9914 39.7577 18.274 39.7577C18.5567 39.7577 18.6509 39.7577 18.6509 39.7577Z" fill="#263238"/>
<path d="M18.462 39.7577L18.3678 40.0403C17.7083 40.0403 17.2373 39.8519 17.0488 39.6635C17.0488 39.5693 17.0488 39.3809 17.0488 39.3809C17.4257 39.5693 18.0852 39.6635 18.462 39.7577Z" fill="white"/>
<path d="M18.2731 40.6063C17.6136 40.5121 17.2368 40.3237 17.1426 40.041C17.331 40.041 17.6136 40.1352 17.8963 40.2294C18.0847 40.3236 18.1789 40.4179 18.2731 40.6063Z" fill="#DE5753"/>
<path d="M16.2022 34.2925C16.2022 34.2925 15.5427 38.2495 13.0932 38.3437C10.6437 38.4379 14.1296 33.2562 14.1296 33.2562C14.1296 33.2562 17.9922 31.4662 20.1591 33.4446C22.2318 35.4231 19.7823 37.2131 19.7823 37.2131C19.7823 37.2131 19.6881 34.2925 16.2022 34.2925Z" fill="#263238"/>
<path d="M16.2022 34.0098C16.2022 34.0098 16.6733 36.6477 14.7891 37.684" stroke="#263238" stroke-width="0.5" stroke-miterlimit="10" stroke-linecap="round" stroke-linejoin="round"/>
<path d="M13.5645 37.9682C13.5645 38.0624 13.5645 38.0624 13.5645 37.9682H13.8471H14.0355H14.2239L15.9198 37.7798C16.014 38.2509 16.3908 38.6277 16.8619 38.6277C17.4271 38.7219 17.9924 38.3451 18.0866 37.6856C18.0866 37.5914 18.0866 37.5914 18.0866 37.4972C18.1808 37.403 18.2751 37.3087 18.3693 37.3087C18.4635 37.3087 18.5577 37.4029 18.5577 37.4029C18.6519 37.7798 18.8403 38.0624 19.2172 38.2509C19.3114 38.2509 19.4056 38.3451 19.4998 38.3451C19.6882 38.3451 19.7825 38.3451 19.9709 38.3451C20.1593 38.3451 20.3477 38.2509 20.4419 38.0624C20.6304 37.874 20.7246 37.6856 20.7246 37.4029C20.8188 37.0261 20.6304 36.7435 20.4419 36.4608C20.2535 36.2724 20.0651 36.1782 19.7825 36.084C19.7825 36.084 19.7825 36.084 19.6882 36.084H19.594C19.123 36.084 18.6519 36.4608 18.5577 37.0261C18.5577 37.1203 18.5577 37.1203 18.5577 37.2145H18.4635C18.3693 37.2145 18.2751 37.2145 18.1809 37.3087C18.0866 36.8377 17.7098 36.4608 17.2387 36.4608H17.1445C16.9561 36.4608 16.8619 36.4608 16.6735 36.555C16.2966 36.6493 16.014 37.0261 16.014 37.4029C16.014 37.4972 16.014 37.5914 16.014 37.5914L14.5066 37.6856H14.2239L13.5645 37.9682C13.6587 37.874 13.6587 37.874 13.5645 37.9682C13.5645 37.874 13.5645 37.9682 13.5645 37.9682ZM18.6519 37.2145C18.7461 36.7435 19.123 36.4608 19.594 36.3666C19.594 36.3666 19.594 36.3666 19.6882 36.3666C19.6882 36.3666 19.6882 36.3666 19.7825 36.3666C19.9709 36.3666 20.2535 36.555 20.3477 36.6492C20.5362 36.8377 20.6304 37.1203 20.5362 37.4029C20.5362 37.5914 20.4419 37.7798 20.2535 37.874C20.1593 37.9682 19.9709 38.0624 19.7825 38.1566C19.6882 38.1566 19.4998 38.2509 19.4056 38.1566C19.3114 38.1566 19.3114 38.1566 19.2172 38.1566C18.8403 38.0624 18.5577 37.6856 18.6519 37.2145ZM16.014 37.4972C16.1082 36.9319 16.5792 36.6492 17.1445 36.6492C17.7098 36.7435 17.9924 37.2145 17.9924 37.7798C17.8982 38.3451 17.4271 38.6277 16.8619 38.6277C16.2966 38.5335 16.014 38.0624 16.014 37.4972Z" fill="#263238"/>
<g opacity="0.8">
<path opacity="0.8" d="M13.5645 37.9682C13.5645 38.0624 13.5645 38.0624 13.5645 37.9682H13.8471H14.0355H14.2239L15.9198 37.7798C16.014 38.2509 16.3908 38.6277 16.8619 38.6277C17.4271 38.7219 17.9924 38.3451 18.0866 37.6856C18.0866 37.5914 18.0866 37.5914 18.0866 37.4972C18.1808 37.403 18.2751 37.3087 18.3693 37.3087C18.4635 37.3087 18.5577 37.4029 18.5577 37.4029C18.6519 37.7798 18.8403 38.0624 19.2172 38.2509C19.3114 38.2509 19.4056 38.3451 19.4998 38.3451C19.6882 38.3451 19.7825 38.3451 19.9709 38.3451C20.1593 38.3451 20.3477 38.2509 20.4419 38.0624C20.6304 37.874 20.7246 37.6856 20.7246 37.4029C20.8188 37.0261 20.6304 36.7435 20.4419 36.4608C20.2535 36.2724 20.0651 36.1782 19.7825 36.084C19.7825 36.084 19.7825 36.084 19.6882 36.084H19.594C19.123 36.084 18.6519 36.4608 18.5577 37.0261C18.5577 37.1203 18.5577 37.1203 18.5577 37.2145H18.4635C18.3693 37.2145 18.2751 37.2145 18.1809 37.3087C18.0866 36.8377 17.7098 36.4608 17.2387 36.4608H17.1445C16.9561 36.4608 16.8619 36.4608 16.6735 36.555C16.2966 36.6493 16.014 37.0261 16.014 37.4029C16.014 37.4972 16.014 37.5914 16.014 37.5914L14.5066 37.6856H14.2239L13.5645 37.9682C13.6587 37.874 13.6587 37.874 13.5645 37.9682C13.5645 37.874 13.5645 37.9682 13.5645 37.9682ZM18.6519 37.2145C18.7461 36.7435 19.123 36.4608 19.594 36.3666C19.594 36.3666 19.594 36.3666 19.6882 36.3666C19.6882 36.3666 19.6882 36.3666 19.7825 36.3666C19.9709 36.3666 20.2535 36.555 20.3477 36.6492C20.5362 36.8377 20.6304 37.1203 20.5362 37.4029C20.5362 37.5914 20.4419 37.7798 20.2535 37.874C20.1593 37.9682 19.9709 38.0624 19.7825 38.1566C19.6882 38.1566 19.4998 38.2509 19.4056 38.1566C19.3114 38.1566 19.3114 38.1566 19.2172 38.1566C18.8403 38.0624 18.5577 37.6856 18.6519 37.2145ZM16.014 37.4972C16.1082 36.9319 16.5792 36.6492 17.1445 36.6492C17.7098 36.7435 17.9924 37.2145 17.9924 37.7798C17.8982 38.3451 17.4271 38.6277 16.8619 38.6277C16.2966 38.5335 16.014 38.0624 16.014 37.4972Z" fill="white"/>
</g>
<path d="M14.1295 43.4297L15.8253 45.0313L15.1658 47.0097L12.8105 44.5602L14.1295 43.4297Z" fill="#407BFF"/>
<path d="M16.4838 43.8086L16.2012 45.0334L17.1433 46.8234L17.6144 44.4681L16.4838 43.8086Z" fill="#407BFF"/>
<path d="M17.6133 47.012C18.7438 46.7294 19.7802 46.2583 20.7223 45.5988C20.7223 45.5988 20.7223 45.5988 20.8165 45.5988C20.9107 45.5046 20.9107 45.5046 21.0049 45.4104C20.9107 45.3162 20.7223 45.3162 20.6281 45.222C19.4033 44.7509 18.367 44.5625 18.367 44.5625C18.367 44.5625 18.367 44.5625 18.367 44.6567C18.2728 44.8451 18.4612 46.1641 17.6133 47.012Z" fill="#263238"/>
<path d="M10.0781 44.8446L10.1723 44.9388C11.2087 45.9751 12.6218 46.7288 14.035 47.0114C14.1292 47.0114 14.1293 47.0114 14.2235 47.0114C14.1293 46.9172 14.035 46.823 13.9408 46.823C13.8466 46.7288 13.6582 46.6346 13.564 46.4462C13.3755 46.2578 13.2813 46.1635 13.0929 45.9751C13.0929 45.8809 12.9987 45.8809 12.9987 45.7867C12.9045 45.6925 12.8103 45.5983 12.7161 45.5041C12.6219 45.4098 12.5276 45.3156 12.5276 45.2214C12.4334 45.1272 12.4334 45.033 12.3392 44.9388C12.245 44.7504 12.0566 44.5619 12.0566 44.4677C11.9624 44.3735 11.9624 44.2793 11.9624 44.2793C11.9624 44.2793 11.1145 44.5619 10.0781 44.8446Z" fill="#263238"/>
<path opacity="0.1" d="M10.0781 44.8446L10.1723 44.9388C11.2087 45.9751 12.6218 46.7288 14.035 47.0114C14.1292 47.0114 14.1293 47.0114 14.2235 47.0114C14.1293 46.9172 14.035 46.823 13.9408 46.823C13.8466 46.7288 13.6582 46.6346 13.564 46.4462C13.3755 46.2578 13.2813 46.1635 13.0929 45.9751C13.0929 45.8809 12.9987 45.8809 12.9987 45.7867C12.9045 45.6925 12.8103 45.5983 12.7161 45.5041C12.6219 45.4098 12.5276 45.3156 12.5276 45.2214C12.4334 45.1272 12.4334 45.033 12.3392 44.9388C12.245 44.7504 12.0566 44.5619 12.0566 44.4677C11.9624 44.3735 11.9624 44.2793 11.9624 44.2793C11.9624 44.2793 11.1145 44.5619 10.0781 44.8446Z" fill="white"/>
<path opacity="0.6" d="M14.1295 43.4297L15.8253 45.0313L15.1658 47.0097L12.8105 44.5602L14.1295 43.4297Z" fill="white"/>
<path opacity="0.6" d="M16.4838 43.8086L16.2012 45.0334L17.1433 46.8234L17.6144 44.4681L16.4838 43.8086Z" fill="white"/>
<g opacity="0.1">
<path opacity="0.1" d="M17.6133 47.012C18.7438 46.7294 19.7802 46.2583 20.7223 45.5988C20.7223 45.5988 20.7223 45.5988 20.8165 45.5988C20.9107 45.5046 20.9107 45.5046 21.0049 45.4104C20.9107 45.3162 20.7223 45.3162 20.6281 45.222C19.4033 44.7509 18.367 44.5625 18.367 44.5625C18.367 44.5625 18.367 44.5625 18.367 44.6567C18.2728 44.8451 18.4612 46.1641 17.6133 47.012Z" fill="white"/>
<path opacity="0.1" d="M10.0781 44.8446L10.1723 44.9388C11.2087 45.9751 12.6218 46.7288 14.035 47.0114C14.1292 47.0114 14.1293 47.0114 14.2235 47.0114C14.1293 46.9172 14.035 46.823 13.9408 46.823C13.8466 46.7288 13.6582 46.6346 13.564 46.4462C13.3755 46.2578 13.2813 46.1635 13.0929 45.9751C13.0929 45.8809 12.9987 45.8809 12.9987 45.7867C12.9045 45.6925 12.8103 45.5983 12.7161 45.5041C12.6219 45.4098 12.5276 45.3156 12.5276 45.2214C12.4334 45.1272 12.4334 45.033 12.3392 44.9388C12.245 44.7504 12.0566 44.5619 12.0566 44.4677C11.9624 44.3735 11.9624 44.2793 11.9624 44.2793C11.9624 44.2793 11.1145 44.5619 10.0781 44.8446Z" fill="white"/>
</g>
<path d="M51.1582 91.2908H113.338L117.86 94.1171V67.4551C117.86 64.5345 115.505 62.2734 112.679 62.2734H51.1582C48.2377 62.2734 45.9766 64.6287 45.9766 67.4551V86.1091C45.9766 88.9355 48.2377 91.2908 51.1582 91.2908Z" fill="#5A8DEE"/>
<path d="M53.6074 69.0566H111.171" stroke="white" stroke-miterlimit="10" stroke-linecap="round" stroke-linejoin="round"/>
<path d="M53.6074 73.8613H111.171" stroke="white" stroke-miterlimit="10" stroke-linecap="round" stroke-linejoin="round"/>
<path d="M53.6074 78.666H111.171" stroke="white" stroke-miterlimit="10" stroke-linecap="round" stroke-linejoin="round"/>
<path d="M53.6074 83.4727H82.9074" stroke="white" stroke-miterlimit="10" stroke-linecap="round" stroke-linejoin="round"/>
<path opacity="0.4" d="M103.257 136.513H32.5984L28.0762 139.339V107.967C28.0762 105.046 30.4315 102.785 33.2578 102.785H103.257C106.178 102.785 108.439 105.14 108.439 107.967V131.331C108.439 134.158 106.084 136.513 103.257 136.513Z" fill="white"/>
<path d="M34.7656 109.568H101.75" stroke="white" stroke-miterlimit="10" stroke-linecap="round" stroke-linejoin="round"/>
<path d="M34.7656 114.373H101.75" stroke="white" stroke-miterlimit="10" stroke-linecap="round" stroke-linejoin="round"/>
<path d="M34.7656 119.178H101.75" stroke="white" stroke-miterlimit="10" stroke-linecap="round" stroke-linejoin="round"/>
<path d="M34.7656 128.693H64.0656" stroke="white" stroke-miterlimit="10" stroke-linecap="round" stroke-linejoin="round"/>
<path d="M34.7656 123.984H101.75" stroke="white" stroke-miterlimit="10" stroke-linecap="round" stroke-linejoin="round"/>
<path d="M7.72461 110.794C7.72461 113.055 8.66673 115.033 10.0799 116.541L10.1741 116.635C11.2105 117.671 12.6236 118.425 14.0368 118.707C14.131 118.707 14.131 118.707 14.2253 118.707C14.5079 118.802 14.7905 118.802 15.0732 118.802C15.2616 118.802 15.5442 118.802 15.7326 118.802C15.8268 118.802 15.8268 118.802 15.9211 118.802C16.1095 118.802 16.2037 118.802 16.3921 118.802C16.5805 118.802 16.6748 118.802 16.8632 118.707C17.0516 118.707 17.24 118.613 17.4285 118.613H17.5227C18.6532 118.331 19.6895 117.86 20.6317 117.2C20.6317 117.2 20.6317 117.2 20.7259 117.2C20.8201 117.106 20.8201 117.106 20.9143 117.012C22.7043 115.504 23.8349 113.337 23.8349 110.794C23.8349 106.366 20.2548 102.691 15.7326 102.691C11.3047 102.691 7.72461 106.271 7.72461 110.794Z" fill="#407BFF"/>
<path d="M11.1136 109.192C11.1136 109.192 10.1715 112.961 11.3963 114.092C12.621 115.222 19.7811 115.222 20.7233 113.809C21.7596 112.396 19.4043 107.779 19.4043 107.779L11.1136 109.192Z" fill="#263238"/>
<path d="M10.1719 116.54C11.2082 117.577 12.6214 118.33 14.0346 118.613C14.1288 118.613 14.1288 118.613 14.223 118.613C14.5056 118.707 14.7883 118.707 15.0709 118.707C15.2593 118.707 15.542 118.707 15.7304 118.707C15.8246 118.707 15.8246 118.707 15.9188 118.707C16.1072 118.707 16.2014 118.707 16.3899 118.707C16.5783 118.707 16.6725 118.707 16.8609 118.613C17.0493 118.613 17.2378 118.519 17.4262 118.519V118.613C17.4262 118.613 17.5204 118.613 17.5204 118.519C18.651 118.236 19.6873 117.765 20.6294 117.106C20.6294 117.011 20.5352 116.823 20.441 116.729H20.3468C20.1584 116.635 19.7815 116.54 19.3104 116.446H19.2162C18.9336 116.352 18.5568 116.258 18.1799 116.163C17.8973 116.163 17.7088 116.069 17.4262 116.069H17.332C17.1436 116.069 16.8609 115.975 16.6725 115.975C16.5783 115.975 16.4841 115.975 16.3899 115.975C16.013 115.975 15.6362 115.881 15.2593 115.881C15.1651 115.881 14.9767 115.881 14.8825 115.881C14.6941 115.881 14.5056 115.881 14.3172 115.881C14.1288 115.881 13.8461 115.881 13.6577 115.975C13.4693 115.975 13.2809 115.975 13.0924 116.069C12.7156 116.069 12.433 116.163 12.1503 116.258C11.3966 116.163 10.7371 116.352 10.1719 116.54Z" fill="#407BFF"/>
<path opacity="0.6" d="M10.1719 116.54C11.2082 117.577 12.6214 118.33 14.0346 118.613C14.1288 118.613 14.1288 118.613 14.223 118.613C14.5056 118.707 14.7883 118.707 15.0709 118.707C15.2593 118.707 15.542 118.707 15.7304 118.707C15.8246 118.707 15.8246 118.707 15.9188 118.707C16.1072 118.707 16.2014 118.707 16.3899 118.707C16.5783 118.707 16.6725 118.707 16.8609 118.613C17.0493 118.613 17.2378 118.519 17.4262 118.519V118.613C17.4262 118.613 17.5204 118.613 17.5204 118.519C18.651 118.236 19.6873 117.765 20.6294 117.106C20.6294 117.011 20.5352 116.823 20.441 116.729H20.3468C20.1584 116.635 19.7815 116.54 19.3104 116.446H19.2162C18.9336 116.352 18.5568 116.258 18.1799 116.163C17.8973 116.163 17.7088 116.069 17.4262 116.069H17.332C17.1436 116.069 16.8609 115.975 16.6725 115.975C16.5783 115.975 16.4841 115.975 16.3899 115.975C16.013 115.975 15.6362 115.881 15.2593 115.881C15.1651 115.881 14.9767 115.881 14.8825 115.881C14.6941 115.881 14.5056 115.881 14.3172 115.881C14.1288 115.881 13.8461 115.881 13.6577 115.975C13.4693 115.975 13.2809 115.975 13.0924 116.069C12.7156 116.069 12.433 116.163 12.1503 116.258C11.3966 116.163 10.7371 116.352 10.1719 116.54Z" fill="white"/>
<path d="M19.6879 108.909C19.6879 108.909 20.0648 102.785 14.6947 104.198C7.91144 105.988 11.8684 114.09 15.1658 113.054C18.5574 112.018 19.6879 108.909 19.6879 108.909Z" fill="#263238"/>
<path opacity="0.2" d="M12.8105 116.162L14.0353 118.517L14.1295 118.706C14.2237 118.706 14.2237 118.706 14.3179 118.706C14.6006 118.8 14.8832 118.8 15.1658 118.8L15.8253 117.952C15.9195 118.235 15.9195 118.517 16.0138 118.8C16.2022 118.8 16.2964 118.8 16.4848 118.8C16.4848 118.235 16.3906 117.952 16.3906 117.952L16.9559 118.8C17.1443 118.8 17.3327 118.706 17.5212 118.706L17.6154 116.162C17.5211 116.162 17.4269 116.068 17.3327 116.068C17.0501 115.973 16.8617 115.879 16.579 115.879C16.4848 115.879 16.4848 115.879 16.3906 115.879C15.8253 115.785 15.2601 115.785 14.789 115.879C14.6006 115.879 14.4121 115.879 14.3179 115.973C14.0353 115.973 13.7527 116.068 13.5642 116.162C13.1874 115.973 12.9048 116.068 12.8105 116.162Z" fill="black"/>
<path d="M16.0129 116.726L13.375 115.973C14.9766 114.842 14.2229 112.393 14.2229 112.393L16.8608 113.335C16.7666 113.806 16.6724 114.088 16.5782 114.465C16.2956 116.067 17.0493 116.255 17.0493 116.255L16.0129 116.726Z" fill="#B97964"/>
<path opacity="0.2" d="M16.8606 113.335C16.7664 113.806 16.6722 114.088 16.578 114.465C15.3532 113.994 14.2227 112.393 14.2227 112.393L16.8606 113.335Z" fill="black"/>
<path d="M16.2018 105.704C18.5571 105.516 19.405 106.741 19.7818 109.19C20.1587 112.205 19.6876 114.466 16.6728 113.995C12.6217 113.336 12.3391 105.987 16.2018 105.704Z" fill="#B97964"/>
<path d="M18.2754 109.191C18.2754 109.191 18.6522 109.757 19.0291 110.134C19.0291 110.134 18.8407 110.51 18.4638 110.416L18.2754 109.191Z" fill="#A24E3F"/>
<path d="M16.7679 109.098C16.7679 109.286 16.6737 109.474 16.5795 109.474C16.4853 109.474 16.2969 109.38 16.2969 109.098C16.2969 108.909 16.3911 108.721 16.4853 108.721C16.6737 108.721 16.7679 108.909 16.7679 109.098Z" fill="#263238"/>
<path d="M16.4844 108.815L16.8612 108.627C16.8612 108.532 16.6728 108.909 16.4844 108.815Z" fill="#263238"/>
<path d="M19.2152 108.812C19.2152 109.001 19.121 109.189 19.0268 109.189C18.9326 109.189 18.7441 109.095 18.7441 108.812C18.7441 108.624 18.8384 108.436 18.9326 108.436C19.0268 108.53 19.121 108.624 19.2152 108.812Z" fill="#263238"/>
<path d="M18.8379 108.53L19.2147 108.342C19.3089 108.342 19.1205 108.719 18.8379 108.53Z" fill="#263238"/>
<path d="M16.673 107.496C16.673 107.496 16.0136 107.496 15.6367 107.873" stroke="#263238" stroke-width="0.7247" stroke-miterlimit="10" stroke-linecap="round" stroke-linejoin="round"/>
<path d="M18.3691 107.212C18.3691 107.212 18.746 107.023 19.3113 107.306" stroke="#263238" stroke-width="0.7247" stroke-miterlimit="10" stroke-linecap="round" stroke-linejoin="round"/>
<path d="M13.9414 109.849C13.9414 109.849 14.8836 107.87 14.6951 106.363C14.6951 106.363 19.2173 104.102 19.7826 108.907C19.7826 108.907 19.971 104.667 15.9199 104.856C11.8688 105.044 12.2456 110.979 14.5067 112.581C14.4125 112.581 13.2819 111.168 13.9414 109.849Z" fill="#263238"/>
<path d="M14.3175 110.321C14.3175 109.944 13.8465 109.284 13.187 109.473C12.4333 109.567 12.2449 111.168 14.0349 111.357C14.3175 111.451 14.4118 111.168 14.3175 110.321Z" fill="#B97964"/>
<path d="M18.6509 111.361C18.5567 111.644 18.3683 112.209 18.3683 112.209C18.274 112.209 18.2741 112.209 18.1798 112.209C17.5204 112.115 17.1435 111.926 17.0493 111.644C16.9551 111.455 16.9551 111.361 16.9551 111.267C16.9551 111.173 16.9551 110.984 16.9551 110.984C17.3319 111.267 17.9914 111.361 18.274 111.361C18.5567 111.361 18.6509 111.361 18.6509 111.361Z" fill="#263238"/>
<path d="M18.464 111.359L18.3697 111.642C17.7103 111.642 17.2392 111.453 17.0508 111.265C17.0508 111.171 17.0508 110.982 17.0508 110.982C17.4276 111.171 18.0871 111.265 18.464 111.359Z" fill="white"/>
<path d="M18.2731 112.208C17.6136 112.114 17.2368 111.925 17.1426 111.643C17.331 111.643 17.6136 111.737 17.8963 111.831C18.0847 111.925 18.1789 112.019 18.2731 112.208Z" fill="#DE5753"/>
<path d="M16.2022 105.894C16.2022 105.894 15.5427 109.851 13.0932 109.945C10.6437 110.039 14.1296 104.858 14.1296 104.858C14.1296 104.858 17.9922 103.068 20.1591 105.046C22.2318 107.025 19.7823 108.815 19.7823 108.815C19.7823 108.815 19.6881 105.894 16.2022 105.894Z" fill="#263238"/>
<path d="M16.2022 105.611C16.2022 105.611 16.6733 108.249 14.7891 109.286" stroke="#263238" stroke-width="0.5" stroke-miterlimit="10" stroke-linecap="round" stroke-linejoin="round"/>
<path d="M13.5645 109.57C13.5645 109.664 13.5645 109.664 13.5645 109.57H13.8471H14.0355H14.2239L15.9198 109.381C16.014 109.852 16.3908 110.229 16.8619 110.229C17.4271 110.323 17.9924 109.947 18.0866 109.287C18.0866 109.193 18.0866 109.193 18.0866 109.099C18.1808 109.005 18.2751 108.91 18.3693 108.91C18.4635 108.91 18.5577 109.005 18.5577 109.005C18.6519 109.381 18.8403 109.664 19.2172 109.852C19.3114 109.852 19.4056 109.947 19.4998 109.947C19.6882 109.947 19.7825 109.947 19.9709 109.947C20.1593 109.947 20.3477 109.852 20.4419 109.664C20.6304 109.476 20.7246 109.287 20.7246 109.005C20.8188 108.628 20.6304 108.345 20.4419 108.062C20.2535 107.874 20.0651 107.78 19.7825 107.686C19.7825 107.686 19.7825 107.686 19.6882 107.686H19.594C19.123 107.686 18.6519 108.062 18.5577 108.628C18.5577 108.722 18.5577 108.722 18.5577 108.816H18.4635C18.3693 108.816 18.2751 108.816 18.1809 108.91C18.0866 108.439 17.7098 108.062 17.2387 108.062H17.1445C16.9561 108.062 16.8619 108.062 16.6735 108.157C16.2966 108.251 16.014 108.628 16.014 109.005C16.014 109.099 16.014 109.193 16.014 109.193L14.5066 109.287H14.2239L13.5645 109.57C13.6587 109.476 13.6587 109.476 13.5645 109.57C13.5645 109.476 13.5645 109.57 13.5645 109.57ZM18.6519 108.816C18.7461 108.345 19.123 108.062 19.594 107.968C19.594 107.968 19.594 107.968 19.6882 107.968C19.6882 107.968 19.6882 107.968 19.7825 107.968C19.9709 107.968 20.2535 108.157 20.3477 108.251C20.5362 108.439 20.6304 108.722 20.5362 109.005C20.5362 109.193 20.4419 109.381 20.2535 109.476C20.1593 109.57 19.9709 109.664 19.7825 109.758C19.6882 109.758 19.4998 109.852 19.4056 109.758C19.3114 109.758 19.3114 109.758 19.2172 109.758C18.8403 109.664 18.5577 109.287 18.6519 108.816ZM16.014 109.099C16.1082 108.533 16.5792 108.251 17.1445 108.251C17.7098 108.345 17.9924 108.816 17.9924 109.381C17.8982 109.947 17.4271 110.229 16.8619 110.229C16.2966 110.135 16.014 109.664 16.014 109.099Z" fill="#263238"/>
<g opacity="0.8">
<path opacity="0.8" d="M13.5645 109.57C13.5645 109.664 13.5645 109.664 13.5645 109.57H13.8471H14.0355H14.2239L15.9198 109.381C16.014 109.852 16.3908 110.229 16.8619 110.229C17.4271 110.323 17.9924 109.947 18.0866 109.287C18.0866 109.193 18.0866 109.193 18.0866 109.099C18.1808 109.005 18.2751 108.91 18.3693 108.91C18.4635 108.91 18.5577 109.005 18.5577 109.005C18.6519 109.381 18.8403 109.664 19.2172 109.852C19.3114 109.852 19.4056 109.947 19.4998 109.947C19.6882 109.947 19.7825 109.947 19.9709 109.947C20.1593 109.947 20.3477 109.852 20.4419 109.664C20.6304 109.476 20.7246 109.287 20.7246 109.005C20.8188 108.628 20.6304 108.345 20.4419 108.062C20.2535 107.874 20.0651 107.78 19.7825 107.686C19.7825 107.686 19.7825 107.686 19.6882 107.686H19.594C19.123 107.686 18.6519 108.062 18.5577 108.628C18.5577 108.722 18.5577 108.722 18.5577 108.816H18.4635C18.3693 108.816 18.2751 108.816 18.1809 108.91C18.0866 108.439 17.7098 108.062 17.2387 108.062H17.1445C16.9561 108.062 16.8619 108.062 16.6735 108.157C16.2966 108.251 16.014 108.628 16.014 109.005C16.014 109.099 16.014 109.193 16.014 109.193L14.5066 109.287H14.2239L13.5645 109.57C13.6587 109.476 13.6587 109.476 13.5645 109.57C13.5645 109.476 13.5645 109.57 13.5645 109.57ZM18.6519 108.816C18.7461 108.345 19.123 108.062 19.594 107.968C19.594 107.968 19.594 107.968 19.6882 107.968C19.6882 107.968 19.6882 107.968 19.7825 107.968C19.9709 107.968 20.2535 108.157 20.3477 108.251C20.5362 108.439 20.6304 108.722 20.5362 109.005C20.5362 109.193 20.4419 109.381 20.2535 109.476C20.1593 109.57 19.9709 109.664 19.7825 109.758C19.6882 109.758 19.4998 109.852 19.4056 109.758C19.3114 109.758 19.3114 109.758 19.2172 109.758C18.8403 109.664 18.5577 109.287 18.6519 108.816ZM16.014 109.099C16.1082 108.533 16.5792 108.251 17.1445 108.251C17.7098 108.345 17.9924 108.816 17.9924 109.381C17.8982 109.947 17.4271 110.229 16.8619 110.229C16.2966 110.135 16.014 109.664 16.014 109.099Z" fill="white"/>
</g>
<path d="M14.1295 115.031L15.8253 116.633L15.1658 118.611L12.8105 116.162L14.1295 115.031Z" fill="#407BFF"/>
<path d="M16.4838 115.41L16.2012 116.635L17.1433 118.425L17.6144 116.07L16.4838 115.41Z" fill="#407BFF"/>
<path d="M17.6133 118.614C18.7438 118.331 19.7802 117.86 20.7223 117.2C20.7223 117.2 20.7223 117.2 20.8165 117.2C20.9107 117.106 20.9107 117.106 21.0049 117.012C20.9107 116.918 20.7223 116.918 20.6281 116.824C19.4033 116.352 18.367 116.164 18.367 116.164C18.367 116.164 18.367 116.164 18.367 116.258C18.2728 116.447 18.4612 117.766 17.6133 118.614Z" fill="#263238"/>
<path d="M10.0781 116.446L10.1723 116.54C11.2087 117.577 12.6218 118.33 14.035 118.613C14.1292 118.613 14.1293 118.613 14.2235 118.613C14.1293 118.519 14.035 118.425 13.9408 118.425C13.8466 118.33 13.6582 118.236 13.564 118.048C13.3755 117.859 13.2813 117.765 13.0929 117.577C13.0929 117.482 12.9987 117.482 12.9987 117.388C12.9045 117.294 12.8103 117.2 12.7161 117.106C12.6219 117.011 12.5276 116.917 12.5276 116.823C12.4334 116.729 12.4334 116.635 12.3392 116.54C12.245 116.352 12.0566 116.163 12.0566 116.069C11.9624 115.975 11.9624 115.881 11.9624 115.881C11.9624 115.881 11.1145 116.163 10.0781 116.446Z" fill="#263238"/>
<path opacity="0.1" d="M10.0781 116.446L10.1723 116.54C11.2087 117.577 12.6218 118.33 14.035 118.613C14.1292 118.613 14.1293 118.613 14.2235 118.613C14.1293 118.519 14.035 118.425 13.9408 118.425C13.8466 118.33 13.6582 118.236 13.564 118.048C13.3755 117.859 13.2813 117.765 13.0929 117.577C13.0929 117.482 12.9987 117.482 12.9987 117.388C12.9045 117.294 12.8103 117.2 12.7161 117.106C12.6219 117.011 12.5276 116.917 12.5276 116.823C12.4334 116.729 12.4334 116.635 12.3392 116.54C12.245 116.352 12.0566 116.163 12.0566 116.069C11.9624 115.975 11.9624 115.881 11.9624 115.881C11.9624 115.881 11.1145 116.163 10.0781 116.446Z" fill="white"/>
<path opacity="0.6" d="M14.1295 115.031L15.8253 116.633L15.1658 118.611L12.8105 116.162L14.1295 115.031Z" fill="white"/>
<path opacity="0.6" d="M16.4838 115.41L16.2012 116.635L17.1433 118.425L17.6144 116.07L16.4838 115.41Z" fill="white"/>
<g opacity="0.1">
<path opacity="0.1" d="M17.6133 118.614C18.7438 118.331 19.7802 117.86 20.7223 117.2C20.7223 117.2 20.7223 117.2 20.8165 117.2C20.9107 117.106 20.9107 117.106 21.0049 117.012C20.9107 116.918 20.7223 116.918 20.6281 116.824C19.4033 116.352 18.367 116.164 18.367 116.164C18.367 116.164 18.367 116.164 18.367 116.258C18.2728 116.447 18.4612 117.766 17.6133 118.614Z" fill="white"/>
<path opacity="0.1" d="M10.0781 116.446L10.1723 116.54C11.2087 117.577 12.6218 118.33 14.035 118.613C14.1292 118.613 14.1293 118.613 14.2235 118.613C14.1293 118.519 14.035 118.425 13.9408 118.425C13.8466 118.33 13.6582 118.236 13.564 118.048C13.3755 117.859 13.2813 117.765 13.0929 117.577C13.0929 117.482 12.9987 117.482 12.9987 117.388C12.9045 117.294 12.8103 117.2 12.7161 117.106C12.6219 117.011 12.5276 116.917 12.5276 116.823C12.4334 116.729 12.4334 116.635 12.3392 116.54C12.245 116.352 12.0566 116.163 12.0566 116.069C11.9624 115.975 11.9624 115.881 11.9624 115.881C11.9624 115.881 11.1145 116.163 10.0781 116.446Z" fill="white"/>
</g>
<path d="M141.225 70.4694C141.225 72.7305 140.288 74.709 138.883 76.2164L138.789 76.3106C137.759 77.3469 136.354 78.1006 134.949 78.3832C134.856 78.3832 134.856 78.3832 134.762 78.3832C134.481 78.4775 134.2 78.4774 133.919 78.4774C133.732 78.4774 133.451 78.4774 133.263 78.4774C133.17 78.4774 133.17 78.4774 133.076 78.4774C132.889 78.4774 132.795 78.4774 132.608 78.4774C132.42 78.4774 132.327 78.4775 132.139 78.3832C131.952 78.3832 131.765 78.289 131.578 78.289H131.484C130.36 78.0064 129.33 77.5353 128.393 76.8758C128.393 76.8758 128.393 76.8758 128.299 76.8758C128.206 76.7816 128.206 76.7816 128.112 76.6874C126.332 75.18 125.209 73.0131 125.209 70.4694C125.209 66.0415 128.768 62.3672 133.263 62.3672C137.665 62.3672 141.225 65.9472 141.225 70.4694Z" fill="white"/>
<path d="M137.783 69.1455C137.783 69.1455 139.018 74.6139 137.783 76.2577C136.549 77.9014 129.33 77.9014 128.38 75.8467C127.335 73.7921 129.518 67.0801 129.518 67.0801L137.783 69.1455Z" fill="#B97964"/>
<path d="M138.791 76.2181C137.761 77.2544 136.356 78.0081 134.951 78.2907C134.857 78.2907 134.857 78.2907 134.764 78.2907C134.483 78.385 134.202 78.385 133.921 78.385C133.733 78.385 133.452 78.385 133.265 78.385C133.171 78.385 133.171 78.385 133.078 78.385C132.89 78.385 132.797 78.385 132.609 78.385C132.422 78.385 132.328 78.385 132.141 78.2907C131.954 78.2907 131.766 78.1965 131.579 78.1965V78.2907C131.579 78.2907 131.485 78.2907 131.485 78.1965C130.362 77.9139 129.331 77.4428 128.395 76.7834C128.395 76.6891 128.488 76.5007 128.582 76.4065H128.676C128.863 76.3123 129.238 76.2181 129.706 76.1239H129.8C130.081 76.0296 130.455 75.9354 130.83 75.8412C131.111 75.8412 131.298 75.747 131.579 75.747H131.673C131.86 75.747 132.141 75.6528 132.328 75.6528C132.422 75.6528 132.516 75.6528 132.609 75.6528C132.984 75.6528 133.359 75.5586 133.733 75.5586C133.827 75.5586 134.014 75.5586 134.108 75.5586C134.295 75.5586 134.483 75.5586 134.67 75.5586C134.857 75.5586 135.138 75.5586 135.326 75.6528C135.513 75.6528 135.7 75.6528 135.888 75.747C136.262 75.747 136.543 75.8412 136.824 75.9354C137.573 75.8412 138.229 76.0297 138.791 76.2181Z" fill="#407BFF"/>
<path opacity="0.6" d="M138.791 76.2181C137.761 77.2544 136.356 78.0081 134.951 78.2907C134.857 78.2907 134.857 78.2907 134.764 78.2907C134.483 78.385 134.202 78.385 133.921 78.385C133.733 78.385 133.452 78.385 133.265 78.385C133.171 78.385 133.171 78.385 133.078 78.385C132.89 78.385 132.797 78.385 132.609 78.385C132.422 78.385 132.328 78.385 132.141 78.2907C131.954 78.2907 131.766 78.1965 131.579 78.1965V78.2907C131.579 78.2907 131.485 78.2907 131.485 78.1965C130.362 77.9139 129.331 77.4428 128.395 76.7834C128.395 76.6891 128.488 76.5007 128.582 76.4065H128.676C128.863 76.3123 129.238 76.2181 129.706 76.1239H129.8C130.081 76.0296 130.455 75.9354 130.83 75.8412C131.111 75.8412 131.298 75.747 131.579 75.747H131.673C131.86 75.747 132.141 75.6528 132.328 75.6528C132.422 75.6528 132.516 75.6528 132.609 75.6528C132.984 75.6528 133.359 75.5586 133.733 75.5586C133.827 75.5586 134.014 75.5586 134.108 75.5586C134.295 75.5586 134.483 75.5586 134.67 75.5586C134.857 75.5586 135.138 75.5586 135.326 75.6528C135.513 75.6528 135.7 75.6528 135.888 75.747C136.262 75.747 136.543 75.8412 136.824 75.9354C137.573 75.8412 138.229 76.0297 138.791 76.2181Z" fill="#E15150"/>
<path d="M129.33 68.5864C129.33 68.5864 128.955 62.4626 134.294 63.8758C141.037 65.6658 137.104 73.7681 133.826 72.7317C130.454 71.6954 129.33 68.5864 129.33 68.5864Z" fill="#B97964"/>
<path opacity="0.2" d="M136.166 75.8396L134.948 78.1949L134.855 78.3833C134.761 78.3833 134.761 78.3833 134.667 78.3833C134.386 78.4776 134.105 78.4776 133.824 78.4776L133.169 77.6297C133.075 77.9123 133.075 78.1949 132.982 78.4776C132.794 78.4776 132.701 78.4776 132.513 78.4776C132.513 77.9123 132.607 77.6297 132.607 77.6297L132.045 78.4776C131.858 78.4776 131.67 78.3833 131.483 78.3833L131.389 75.8396C131.483 75.8396 131.577 75.7454 131.67 75.7454C131.951 75.6512 132.139 75.557 132.42 75.557C132.513 75.557 132.513 75.557 132.607 75.557C133.169 75.4628 133.731 75.4628 134.199 75.557C134.386 75.557 134.574 75.557 134.667 75.6512C134.948 75.6512 135.229 75.7454 135.417 75.8396C135.791 75.6512 136.072 75.7454 136.166 75.8396Z" fill="black"/>
<path d="M132.983 76.4041L135.605 75.6504C134.013 74.5198 134.763 72.0703 134.763 72.0703L132.14 73.0124C132.234 73.4835 132.327 73.7661 132.421 74.143C132.702 75.7446 131.953 75.933 131.953 75.933L132.983 76.4041Z" fill="#FFC5B2"/>
<path opacity="0.2" d="M132.141 73.0124C132.235 73.4835 132.328 73.7661 132.422 74.143C133.64 73.6719 134.764 72.0703 134.764 72.0703L132.141 73.0124Z" fill="black"/>
<path d="M132.797 65.3822C130.455 65.1938 129.612 66.4185 129.238 68.868C128.863 71.8828 129.331 74.1439 132.328 73.6728C136.356 73.0134 136.637 65.6648 132.797 65.3822Z" fill="#FFC5B3"/>
<path d="M130.738 68.8691C130.738 68.8691 130.364 69.4344 129.989 69.8113C129.989 69.8113 130.176 70.1881 130.551 70.0939L130.738 68.8691Z" fill="#D79488"/>
<path d="M132.235 68.7733C132.235 68.9618 132.328 69.1502 132.422 69.1502C132.516 69.1502 132.703 69.056 132.703 68.7733C132.703 68.5849 132.609 68.3965 132.516 68.3965C132.328 68.3965 132.235 68.5849 132.235 68.7733Z" fill="#263238"/>
<path d="M132.518 68.4908L132.143 68.3024C132.143 68.2081 132.33 68.585 132.518 68.4908Z" fill="#263238"/>
<path d="M129.801 68.4901C129.801 68.6786 129.895 68.867 129.989 68.867C130.082 68.867 130.27 68.7728 130.27 68.4901C130.27 68.3017 130.176 68.1133 130.082 68.1133C129.989 68.2075 129.895 68.3017 129.801 68.4901Z" fill="#263238"/>
<path d="M130.176 68.208L129.801 68.0195C129.707 68.0195 129.895 68.3964 130.176 68.208Z" fill="#263238"/>
<path d="M132.327 67.1719C132.327 67.1719 132.983 67.1719 133.357 67.5487" stroke="#B97964" stroke-width="0.7247" stroke-miterlimit="10" stroke-linecap="round" stroke-linejoin="round"/>
<path d="M130.645 66.8897C130.645 66.8897 130.27 66.7012 129.708 66.9839" stroke="#B97964" stroke-width="0.7247" stroke-miterlimit="10" stroke-linecap="round" stroke-linejoin="round"/>
<path d="M135.046 69.5267C135.046 69.5267 134.109 67.5482 134.296 66.0408C134.296 66.0408 129.801 63.7797 129.239 68.5846C129.239 68.5846 129.051 64.345 133.079 64.5334C137.106 64.7219 136.731 70.6572 134.484 72.2588C134.577 72.2588 135.701 70.8456 135.046 69.5267Z" fill="#B97964"/>
<path d="M134.671 69.9982C134.671 69.6214 135.139 68.9619 135.795 69.1503C136.544 69.2446 136.731 70.8462 134.952 71.0346C134.671 71.1288 134.577 70.8462 134.671 69.9982Z" fill="#FFC5B2"/>
<path d="M130.363 71.037C130.457 71.3196 130.644 71.8849 130.644 71.8849C130.738 71.8849 130.738 71.8849 130.831 71.8849C131.487 71.7907 131.862 71.6023 131.955 71.3196C132.049 71.1312 132.049 71.037 132.049 70.9428C132.049 70.8486 132.049 70.6602 132.049 70.6602C131.674 70.9428 131.019 71.037 130.738 71.037C130.457 71.037 130.363 71.037 130.363 71.037Z" fill="#263238"/>
<path d="M130.55 71.037L130.644 71.3196C131.299 71.3196 131.768 71.1312 131.955 70.9428C131.955 70.8486 131.955 70.6602 131.955 70.6602C131.58 70.8486 130.925 70.9428 130.55 71.037Z" fill="white"/>
<path d="M130.737 71.8856C131.393 71.7914 131.768 71.6029 131.861 71.3203C131.674 71.3203 131.393 71.4145 131.112 71.5087C130.925 71.6029 130.831 71.6972 130.737 71.8856Z" fill="#DE5753"/>
<path d="M132.796 65.5718C132.796 65.5718 133.451 69.5288 135.886 69.623C138.322 69.7172 134.856 64.5355 134.856 64.5355C134.856 64.5355 131.016 62.7455 128.862 64.7239C126.801 66.7024 129.237 68.4924 129.237 68.4924C129.237 68.4924 129.33 65.5718 132.796 65.5718Z" fill="#B97964"/>
<path d="M132.796 65.2891C132.796 65.2891 132.328 67.927 134.201 68.9633" stroke="#B97964" stroke-width="0.5" stroke-miterlimit="10" stroke-linecap="round" stroke-linejoin="round"/>
<path d="M134.855 74.709L133.169 76.3106L133.824 78.289L136.166 75.8395L134.855 74.709Z" fill="#407BFF"/>
<path d="M132.516 75.0879L132.797 76.3127L131.86 78.1027L131.392 75.7474L132.516 75.0879Z" fill="#407BFF"/>
<path opacity="0.6" d="M134.855 74.709L133.169 76.3106L133.824 78.289L136.166 75.8395L134.855 74.709Z" fill="#E15150"/>
<path opacity="0.6" d="M132.516 75.0879L132.797 76.3127L131.86 78.1027L131.392 75.7474L132.516 75.0879Z" fill="#E15150"/>
<path d="M141.225 155.26C141.225 157.522 140.288 159.5 138.883 161.007L138.789 161.102C137.759 162.138 136.354 162.892 134.949 163.174C134.856 163.174 134.856 163.174 134.762 163.174C134.481 163.268 134.2 163.268 133.919 163.268C133.732 163.268 133.451 163.268 133.263 163.268C133.17 163.268 133.17 163.268 133.076 163.268C132.889 163.268 132.795 163.268 132.608 163.268C132.42 163.268 132.327 163.268 132.139 163.174C131.952 163.174 131.765 163.08 131.578 163.08H131.484C130.36 162.797 129.33 162.326 128.393 161.667C128.393 161.667 128.393 161.667 128.299 161.667C128.206 161.573 128.206 161.573 128.112 161.478C126.332 159.971 125.209 157.804 125.209 155.26C125.209 150.832 128.768 147.158 133.263 147.158C137.665 147.158 141.225 150.738 141.225 155.26Z" fill="white"/>
<path d="M137.783 153.937C137.783 153.937 139.018 159.405 137.783 161.049C136.549 162.692 129.33 162.692 128.38 160.638C127.335 158.583 129.518 151.871 129.518 151.871L137.783 153.937Z" fill="#B97964"/>
<path d="M138.791 161.009C137.761 162.045 136.356 162.799 134.951 163.082C134.857 163.082 134.857 163.082 134.764 163.082C134.483 163.176 134.202 163.176 133.921 163.176C133.733 163.176 133.452 163.176 133.265 163.176C133.171 163.176 133.171 163.176 133.078 163.176C132.89 163.176 132.797 163.176 132.609 163.176C132.422 163.176 132.328 163.176 132.141 163.082C131.954 163.082 131.766 162.988 131.579 162.988V163.082C131.579 163.082 131.485 163.082 131.485 162.988C130.362 162.705 129.331 162.234 128.395 161.574C128.395 161.48 128.488 161.292 128.582 161.198H128.676C128.863 161.103 129.238 161.009 129.706 160.915H129.8C130.081 160.821 130.455 160.726 130.83 160.632C131.111 160.632 131.298 160.538 131.579 160.538H131.673C131.86 160.538 132.141 160.444 132.328 160.444C132.422 160.444 132.516 160.444 132.609 160.444C132.984 160.444 133.359 160.35 133.733 160.35C133.827 160.35 134.014 160.35 134.108 160.35C134.295 160.35 134.483 160.35 134.67 160.35C134.857 160.35 135.138 160.35 135.326 160.444C135.513 160.444 135.7 160.444 135.888 160.538C136.262 160.538 136.543 160.632 136.824 160.726C137.573 160.632 138.229 160.821 138.791 161.009Z" fill="#407BFF"/>
<path opacity="0.6" d="M138.791 161.009C137.761 162.045 136.356 162.799 134.951 163.082C134.857 163.082 134.857 163.082 134.764 163.082C134.483 163.176 134.202 163.176 133.921 163.176C133.733 163.176 133.452 163.176 133.265 163.176C133.171 163.176 133.171 163.176 133.078 163.176C132.89 163.176 132.797 163.176 132.609 163.176C132.422 163.176 132.328 163.176 132.141 163.082C131.954 163.082 131.766 162.988 131.579 162.988V163.082C131.579 163.082 131.485 163.082 131.485 162.988C130.362 162.705 129.331 162.234 128.395 161.574C128.395 161.48 128.488 161.292 128.582 161.198H128.676C128.863 161.103 129.238 161.009 129.706 160.915H129.8C130.081 160.821 130.455 160.726 130.83 160.632C131.111 160.632 131.298 160.538 131.579 160.538H131.673C131.86 160.538 132.141 160.444 132.328 160.444C132.422 160.444 132.516 160.444 132.609 160.444C132.984 160.444 133.359 160.35 133.733 160.35C133.827 160.35 134.014 160.35 134.108 160.35C134.295 160.35 134.483 160.35 134.67 160.35C134.857 160.35 135.138 160.35 135.326 160.444C135.513 160.444 135.7 160.444 135.888 160.538C136.262 160.538 136.543 160.632 136.824 160.726C137.573 160.632 138.229 160.821 138.791 161.009Z" fill="#E15150"/>
<path d="M129.33 153.377C129.33 153.377 128.955 147.254 134.294 148.667C141.037 150.457 137.104 158.559 133.826 157.523C130.454 156.486 129.33 153.377 129.33 153.377Z" fill="#B97964"/>
<path opacity="0.2" d="M136.166 160.631L134.948 162.986L134.855 163.174C134.761 163.174 134.761 163.174 134.667 163.174C134.386 163.269 134.105 163.269 133.824 163.269L133.169 162.421C133.075 162.703 133.075 162.986 132.982 163.269C132.794 163.269 132.701 163.269 132.513 163.269C132.513 162.703 132.607 162.421 132.607 162.421L132.045 163.269C131.858 163.269 131.67 163.174 131.483 163.174L131.389 160.631C131.483 160.631 131.577 160.536 131.67 160.536C131.951 160.442 132.139 160.348 132.42 160.348C132.513 160.348 132.513 160.348 132.607 160.348C133.169 160.254 133.731 160.254 134.199 160.348C134.386 160.348 134.574 160.348 134.667 160.442C134.948 160.442 135.229 160.536 135.417 160.631C135.791 160.442 136.072 160.536 136.166 160.631Z" fill="black"/>
<path d="M132.983 161.195L135.605 160.441C134.013 159.311 134.763 156.861 134.763 156.861L132.14 157.803C132.234 158.275 132.327 158.557 132.421 158.934C132.702 160.536 131.953 160.724 131.953 160.724L132.983 161.195Z" fill="#FFC5B2"/>
<path opacity="0.2" d="M132.141 157.803C132.235 158.275 132.328 158.557 132.422 158.934C133.64 158.463 134.764 156.861 134.764 156.861L132.141 157.803Z" fill="black"/>
<path d="M132.797 150.173C130.455 149.985 129.612 151.21 129.238 153.659C128.863 156.674 129.331 158.935 132.328 158.464C136.356 157.804 136.637 150.456 132.797 150.173Z" fill="#FFC5B3"/>
<path d="M130.738 153.66C130.738 153.66 130.364 154.225 129.989 154.602C129.989 154.602 130.176 154.979 130.551 154.885L130.738 153.66Z" fill="#D79488"/>
<path d="M132.235 153.564C132.235 153.753 132.328 153.941 132.422 153.941C132.516 153.941 132.703 153.847 132.703 153.564C132.703 153.376 132.609 153.188 132.516 153.188C132.328 153.188 132.235 153.376 132.235 153.564Z" fill="#263238"/>
<path d="M132.518 153.282L132.143 153.093C132.143 152.999 132.33 153.376 132.518 153.282Z" fill="#263238"/>
<path d="M129.801 153.281C129.801 153.47 129.895 153.658 129.989 153.658C130.082 153.658 130.27 153.564 130.27 153.281C130.27 153.093 130.176 152.904 130.082 152.904C129.989 152.999 129.895 153.093 129.801 153.281Z" fill="#263238"/>
<path d="M130.176 152.999L129.801 152.811C129.707 152.811 129.895 153.187 130.176 152.999Z" fill="#263238"/>
<path d="M132.327 151.963C132.327 151.963 132.983 151.963 133.357 152.34" stroke="#B97964" stroke-width="0.7247" stroke-miterlimit="10" stroke-linecap="round" stroke-linejoin="round"/>
<path d="M130.645 151.681C130.645 151.681 130.27 151.492 129.708 151.775" stroke="#B97964" stroke-width="0.7247" stroke-miterlimit="10" stroke-linecap="round" stroke-linejoin="round"/>
<path d="M135.046 154.318C135.046 154.318 134.109 152.339 134.296 150.832C134.296 150.832 129.801 148.571 129.239 153.376C129.239 153.376 129.051 149.136 133.079 149.324C137.106 149.513 136.731 155.448 134.484 157.05C134.577 157.05 135.701 155.637 135.046 154.318Z" fill="#B97964"/>
<path d="M134.671 154.789C134.671 154.412 135.139 153.753 135.795 153.941C136.544 154.036 136.731 155.637 134.952 155.826C134.671 155.92 134.577 155.637 134.671 154.789Z" fill="#FFC5B2"/>
<path d="M130.363 155.828C130.457 156.111 130.644 156.676 130.644 156.676C130.738 156.676 130.738 156.676 130.831 156.676C131.487 156.582 131.862 156.393 131.955 156.111C132.049 155.922 132.049 155.828 132.049 155.734C132.049 155.64 132.049 155.451 132.049 155.451C131.674 155.734 131.019 155.828 130.738 155.828C130.457 155.828 130.363 155.828 130.363 155.828Z" fill="#263238"/>
<path d="M130.55 155.828L130.644 156.111C131.299 156.111 131.768 155.922 131.955 155.734C131.955 155.64 131.955 155.451 131.955 155.451C131.58 155.64 130.925 155.734 130.55 155.828Z" fill="white"/>
<path d="M130.737 156.675C131.393 156.58 131.768 156.392 131.861 156.109C131.674 156.109 131.393 156.204 131.112 156.298C130.925 156.392 130.831 156.486 130.737 156.675Z" fill="#DE5753"/>
<path d="M132.796 150.363C132.796 150.363 133.451 154.32 135.886 154.414C138.322 154.508 134.856 149.327 134.856 149.327C134.856 149.327 131.016 147.537 128.862 149.515C126.801 151.493 129.237 153.283 129.237 153.283C129.237 153.283 129.33 150.363 132.796 150.363Z" fill="#B97964"/>
<path d="M132.796 150.08C132.796 150.08 132.328 152.718 134.201 153.754" stroke="#B97964" stroke-width="0.5" stroke-miterlimit="10" stroke-linecap="round" stroke-linejoin="round"/>
<path d="M134.855 159.5L133.169 161.102L133.824 163.08L136.166 160.631L134.855 159.5Z" fill="#407BFF"/>
<path d="M132.516 159.879L132.797 161.104L131.86 162.894L131.392 160.538L132.516 159.879Z" fill="#407BFF"/>
<path opacity="0.6" d="M134.855 159.5L133.169 161.102L133.824 163.08L136.166 160.631L134.855 159.5Z" fill="#E15150"/>
<path opacity="0.6" d="M132.516 159.879L132.797 161.104L131.86 162.894L131.392 160.538L132.516 159.879Z" fill="#E15150"/>
<path d="M33.2578 185.503H113.338L117.86 188.329V152.246C117.86 149.326 115.505 147.064 112.679 147.064H33.2578C30.3373 147.064 28.0762 149.42 28.0762 152.246V180.321C28.0762 183.148 30.3373 185.503 33.2578 185.503Z" fill="#5A8DEE"/>
<path d="M34.7656 153.848H111.172" stroke="white" stroke-miterlimit="10" stroke-linecap="round" stroke-linejoin="round"/>
<path d="M34.7656 158.652H111.172" stroke="white" stroke-miterlimit="10" stroke-linecap="round" stroke-linejoin="round"/>
<path d="M34.7656 163.457H111.172" stroke="white" stroke-miterlimit="10" stroke-linecap="round" stroke-linejoin="round"/>
<path d="M34.7656 172.973H111.172" stroke="white" stroke-miterlimit="10" stroke-linecap="round" stroke-linejoin="round"/>
<path d="M34.7656 177.777H65.0077" stroke="white" stroke-miterlimit="10" stroke-linecap="round" stroke-linejoin="round"/>
<path d="M34.7656 168.264H111.172" stroke="white" stroke-miterlimit="10" stroke-linecap="round" stroke-linejoin="round"/>
<path d="M204.042 317.868C204.042 317.868 204.627 313.296 205.983 310.585C207.338 307.873 216.004 309.601 216.004 309.601C216.004 309.601 217.731 311.09 218.104 318.001L204.042 317.868Z" fill="#263238"/>
<path d="M174.564 317.787C176.61 316.538 175.441 307.288 175.441 307.288C175.441 307.288 165.952 299.713 164.649 305.507C163.347 311.302 155.638 313.907 151.253 314.624C148.222 315.103 147.292 316.804 147 317.787H174.564Z" fill="#263238"/>
<path d="M194.181 250.432C193.782 252.558 193.543 254.312 193.49 255.562C192.613 272.733 179.03 312.045 176.585 312.949C172.837 314.358 166.909 311.354 163.799 310.371C162.523 309.972 161.646 308.67 161.939 307.341C168.664 276.427 171.136 231.878 172.039 205.537C172.491 192.247 174.777 183.077 174.777 183.077C174.777 183.077 207.896 174.225 208.109 185.416C208.295 195.304 197.131 234.111 194.181 250.432Z" fill="#2D4777"/>
<path d="M194.181 250.433L172.039 205.512C172.491 192.222 174.777 183.051 174.777 183.051C174.777 183.051 207.896 174.2 208.109 185.39C208.295 195.305 197.131 234.112 194.181 250.433Z" fill="#1B2B47"/>
<path d="M186.817 185.47L204.334 312.392C204.334 312.392 212.016 314.252 217.996 312.764C217.996 312.764 223.126 245.249 222.701 228.929C222.276 212.608 226.369 185.257 221.771 182.253C217.146 179.223 186.817 185.47 186.817 185.47Z" fill="#2D4777"/>
<path d="M225.174 183.344C225.253 184.487 224.536 185.524 223.419 185.843C220.974 186.56 218.156 187.039 212.734 188.182C207.631 189.245 200.773 190.175 192.32 190.228C178.897 190.308 173.82 185.683 173.82 185.683C173.235 185.683 174.112 182.892 174.91 169.549C175.176 165.03 175.442 159.289 175.628 152.059C175.787 145.547 175.92 137.785 175.92 128.615C175.947 117.557 193.038 105.676 193.357 105.676C193.357 107.271 195.855 110.194 199.736 110.46C204.308 110.753 209.943 108.467 209.943 105.835C209.943 105.809 218.236 119.099 221.187 133.24C221.559 135.047 221.851 136.934 222.09 138.928C222.781 144.935 222.117 140.629 225.174 183.344Z" fill="#F99746"/>
<path d="M193.383 105.649C193.383 105.649 177.488 105.516 173.66 110.885C169.832 116.254 161.433 145.147 165.819 154.743C170.205 164.365 178.391 150.756 182.937 144.882C187.482 139.007 193.383 105.649 193.383 105.649Z" fill="#F99746"/>
<path d="M193.224 103.229V104.877C193.224 104.877 192.772 110.007 199.098 110.778C205.424 111.523 210.155 109.821 209.969 105.861C209.411 102.778 208.853 99.6145 208.826 97.0628C208.8 96.1059 208.88 95.1224 209.039 93.9795L196.759 93.7402L193.144 94.325L193.224 103.229Z" fill="#FFC5B2"/>
<path d="M193.17 94.3258L193.224 103.23C194.526 103.842 195.988 104.214 197.636 104.214C203.271 104.214 206.913 100.067 208.826 97.0901C208.8 96.1332 208.88 95.1498 209.039 94.0068L196.759 93.7676L193.17 94.3258Z" fill="#FBA589"/>
<path d="M209.996 92.012C208.561 99.6672 198.673 99.428 194.42 98.9495C193.224 98.8166 192.453 98.6571 192.453 98.6571C191.097 98.285 190.353 96.1586 189.981 93.3676C189.29 87.8389 190.167 79.7053 191.097 77.632C192.506 74.4955 195.164 71.1197 205.105 73.5651C215.1 76.0105 211.83 82.2038 209.996 92.012Z" fill="#FFC5B2"/>
<path d="M177.116 127.178C177.116 127.178 170.976 140.76 171.135 144.827C171.135 144.827 174.192 144.721 177.116 145.598C181.927 147.033 177.116 127.178 177.116 127.178Z" fill="#ED7D2B"/>
<path d="M188.067 70.3228C188.067 70.3228 192.453 69.9773 197.609 67.7445C201.809 65.9105 207.099 67.9306 208.826 68.8343C208.773 68.5685 208.667 68.1698 208.401 67.7977C208.401 67.7977 209.172 68.3559 209.278 69.1001C209.358 69.1533 209.385 69.2065 209.385 69.2065C209.385 69.2065 210.262 69.047 210.82 69.2862C210.82 69.2862 210.421 69.233 210.288 69.4723C210.262 69.4988 210.262 69.5254 210.235 69.552C216.774 72.7151 217.385 83.0549 215.285 85.4471C212.76 88.3178 208.986 94.7238 208.986 94.7238C208.986 94.7238 208.587 93.2618 209.066 90.7367C209.517 88.2115 207.338 88.2115 204.573 87.042C201.809 85.899 204.122 82.6562 201.703 80.7158C199.284 78.7489 190.406 79.9184 190.539 78.4033C187.216 77.2604 188.067 70.6684 188.067 70.3228Z" fill="#263238"/>
<path d="M212.016 152.643C209.411 163.063 181.342 168.459 174.936 169.549C175.202 165.03 175.467 159.288 175.653 152.059L212.016 152.643Z" fill="#ED7D2B"/>
<path d="M205.849 156.019C206.115 156.019 212.096 155.116 213.159 154.584C214.222 154.052 219.113 147.088 215.923 145.307C212.707 143.526 204.122 150.65 204.122 150.65L205.849 156.019Z" fill="#FFC5B2"/>
<path d="M169.488 158.092C169.488 158.092 192.613 159.341 208.109 156.019C208.109 156.019 208.508 151.526 203.617 149.559C203.617 149.559 179.429 144.429 173.634 145.865C167.84 147.274 169.488 158.092 169.488 158.092Z" fill="#F99746"/>
<path d="M222.569 139.963C217.784 145.758 211.511 150.463 204.6 151.579C204.547 151.499 202.5 148.389 202.899 143.871C203.085 141.771 203.776 139.352 205.424 136.774C205.929 135.976 206.381 135.046 206.78 134.036C210.554 124.414 209.996 105.834 209.996 105.834C209.996 105.834 226.024 107.509 231.021 114.659C234.051 119.018 230.144 130.82 222.569 139.963Z" fill="#F99746"/>
<path d="M194.419 98.951C193.223 98.8181 192.452 98.6587 192.452 98.6587C191.097 98.2865 190.353 96.1601 189.98 93.3691C192.532 94.0071 193.675 95.9475 194.18 96.798C194.419 97.1702 194.446 98.0207 194.419 98.951Z" fill="#FBA589"/>
<path d="M187.961 103.283C187.961 103.283 182.432 94.1389 186.738 93.7402C191.044 93.3415 192.772 96.2654 193.383 97.3286C193.995 98.3918 193.224 103.229 193.224 103.229L187.961 103.283Z" fill="#FFC5B2"/>
<path d="M209.065 143.525C208.906 144.695 208.56 145.758 208.108 146.688C206.753 149.692 204.573 151.552 204.573 151.552C190.193 145.067 187.296 122.766 186.791 110.539C186.605 105.621 186.791 102.325 186.791 102.325C193.277 100.172 195.111 103.92 195.111 103.92C195.111 103.92 202.766 122.128 206.753 134.036C208.268 138.581 209.251 142.196 209.065 143.525Z" fill="#F99746"/>
<path d="M222.568 139.964C217.784 145.759 211.511 150.464 204.6 151.58C190.22 145.094 187.323 122.793 186.818 110.566C186.818 110.566 193.622 135.233 202.872 143.872C204.547 145.44 206.301 146.477 208.109 146.742C208.109 146.742 219.777 143.447 222.223 140.337C222.409 140.071 222.515 139.964 222.568 139.964Z" fill="#ED7D2B"/>
</svg>
