<svg version="1.1" class="highcharts-root" style="font-family:Helvetica;font-size:12px;" xmlns="http://www.w3.org/2000/svg" width="333" height="190" viewBox="0 0 333 190"><desc>Created with Highcharts 8.2.2</desc><defs><clipPath id="highcharts-8ofszdz-23-"><rect x="0" y="0" width="135" height="313" fill="none"></rect></clipPath></defs><rect fill="#ffffff" class="highcharts-background" x="0" y="0" width="333" height="190" rx="0" ry="0"></rect><rect fill="none" class="highcharts-plot-background" x="10" y="10" width="313" height="135"></rect><g class="highcharts-pane-group" data-z-index="0"></g><g class="highcharts-grid highcharts-xaxis-grid" data-z-index="1"><path fill="none" data-z-index="1" class="highcharts-grid-line" d="M 10 145.5 L 323 145.5" opacity="1"></path><path fill="none" data-z-index="1" class="highcharts-grid-line" d="M 10 10.5 L 323 10.5" opacity="1"></path></g><g class="highcharts-grid highcharts-yaxis-grid" data-z-index="1"><path fill="none" stroke="#e6e6e6" stroke-width="1" data-z-index="1" class="highcharts-grid-line" d="M 9.5 10 L 9.5 145" opacity="1"></path><path fill="none" stroke="#e6e6e6" stroke-width="1" data-z-index="1" class="highcharts-grid-line" d="M 87.5 10 L 87.5 145" opacity="1"></path><path fill="none" stroke="#e6e6e6" stroke-width="1" data-z-index="1" class="highcharts-grid-line" d="M 166.5 10 L 166.5 145" opacity="1"></path><path fill="none" stroke="#e6e6e6" stroke-width="1" data-z-index="1" class="highcharts-grid-line" d="M 244.5 10 L 244.5 145" opacity="1"></path><path fill="none" stroke="#e6e6e6" stroke-width="1" data-z-index="1" class="highcharts-grid-line" d="M 323.5 10 L 323.5 145" opacity="1"></path></g><rect fill="none" class="highcharts-plot-border" data-z-index="1" x="10" y="10" width="313" height="135"></rect><g class="highcharts-axis highcharts-xaxis" data-z-index="2"><path fill="none" class="highcharts-axis-line" stroke="#ccd6eb" stroke-width="1" data-z-index="7" d="M 9.5 10 L 9.5 145"></path></g><g class="highcharts-axis highcharts-yaxis" data-z-index="2"><path fill="none" class="highcharts-axis-line" data-z-index="7" d="M 10 145 L 323 145"></path></g><g class="highcharts-series-group" data-z-index="3"><g class="highcharts-series highcharts-series-0 highcharts-bar-series highcharts-tracker" data-z-index="0.1" opacity="1" transform="translate(323,145) rotate(90) scale(-1,1) scale(1 1)" clip-path="url(https://portal.dentalintel.com/huddlev2#highcharts-8ofszdz-23-)"><rect x="34.5" y="6.5" width="65" height="225" fill="rgb(232,89,0)" stroke="#ffffff" stroke-width="1" opacity="1" class="highcharts-point"></rect></g><g class="highcharts-markers highcharts-series-0 highcharts-bar-series" data-z-index="0.1" opacity="1" transform="translate(323,145) rotate(90) scale(-1,1) scale(1 1)" clip-path="none"></g><g class="highcharts-series highcharts-series-1 highcharts-bar-series highcharts-tracker" data-z-index="0.1" opacity="1" transform="translate(323,145) rotate(90) scale(-1,1) scale(1 1)" clip-path="url(https://portal.dentalintel.com/huddlev2#highcharts-8ofszdz-23-)"><rect x="34.5" y="231.5" width="65" height="82" fill="rgb(85,65,114)" stroke="#ffffff" stroke-width="1" opacity="1" class="highcharts-point"></rect></g><g class="highcharts-markers highcharts-series-1 highcharts-bar-series" data-z-index="0.1" opacity="1" transform="translate(323,145) rotate(90) scale(-1,1) scale(1 1)" clip-path="none"></g></g><text x="167" text-anchor="middle" class="highcharts-title" data-z-index="4" style="color:#333333;font-size:18px;fill:#333333;" y="24"></text><text x="167" text-anchor="middle" class="highcharts-subtitle" data-z-index="4" style="color:#666666;fill:#666666;" y="24"></text><text x="10" text-anchor="start" class="highcharts-caption" data-z-index="4" style="color:#666666;fill:#666666;" y="187"></text><g class="highcharts-plot-lines-4" data-z-index="4"><path fill="none" class="highcharts-plot-line " stroke="#38bf88" stroke-width="2" d="M 268 10 L 268 145"></path></g><text x="272" class="highcharts-plot-line-label " data-z-index="4" transform="translate(0,0) rotate(90 272 20)" style="color:#666666;fill:#666666;" y="20">Goal</text><g class="highcharts-legend" data-z-index="7" transform="translate(34,146)"><rect fill="white" class="highcharts-legend-box" rx="0" ry="0" x="0" y="0" width="265" height="29" visibility="visible"></rect><g data-z-index="1"><g><g class="highcharts-legend-item highcharts-bar-series highcharts-color-undefined highcharts-series-0" data-z-index="1" transform="translate(8,3)"><text x="21" style="color:#667b98;cursor:pointer;font-size:12px;font-weight:bold;font:10pt &quot;Segoe UI&quot;,Roboto,&quot;Helvetica Neue&quot;,Arial,sans-serif,&quot;Apple Color Emoji&quot;,&quot;Segoe UI Emoji&quot;,&quot;Segoe UI Symbol&quot;;fill:#667b98;" text-anchor="start" data-z-index="2" y="15"><tspan>Dentist: $7,187</tspan></text><rect x="2" y="4" width="12" height="12" fill="#e85900" rx="6" ry="6" class="highcharts-point" data-z-index="3"></rect></g><g class="highcharts-legend-item highcharts-bar-series highcharts-color-undefined highcharts-series-1" data-z-index="1" transform="translate(136.15625,3)"><text x="21" y="15" style="color:#667b98;cursor:pointer;font-size:12px;font-weight:bold;font:10pt &quot;Segoe UI&quot;,Roboto,&quot;Helvetica Neue&quot;,Arial,sans-serif,&quot;Apple Color Emoji&quot;,&quot;Segoe UI Emoji&quot;,&quot;Segoe UI Symbol&quot;;fill:#667b98;" text-anchor="start" data-z-index="2"><tspan>Hygienist: $2,615</tspan></text><rect x="2" y="4" width="12" height="12" fill="#554172" rx="6" ry="6" class="highcharts-point" data-z-index="3"></rect></g></g></g></g><g class="highcharts-axis-labels highcharts-xaxis-labels" data-z-index="7"><text x="-5" style="color:#666666;cursor:default;font-size:11px;fill:#666666;" text-anchor="end" transform="translate(0,0)" y="89" opacity="1"></text></g><g class="highcharts-axis-labels highcharts-yaxis-labels" data-z-index="7"></g><g class="highcharts-label highcharts-tooltip highcharts-color-undefined" style="white-space:nowrap;pointer-events:none;" data-z-index="8" transform="translate(214,-9999)" opacity="0" visibility="hidden"><path fill="none" class="highcharts-label-box highcharts-tooltip-box highcharts-shadow" d="M 3.5 0.5 L 94.5 0.5 C 97.5 0.5 97.5 0.5 97.5 3.5 L 97.5 9 L 103.5 15 L 97.5 21 L 97.5 26.5 C 97.5 29.5 97.5 29.5 94.5 29.5 L 3.5 29.5 C 0.5 29.5 0.5 29.5 0.5 26.5 L 0.5 3.5 C 0.5 0.5 0.5 0.5 3.5 0.5" stroke="#000000" stroke-opacity="0.049999999999999996" stroke-width="5" transform="translate(1, 1)"></path><path fill="none" class="highcharts-label-box highcharts-tooltip-box highcharts-shadow" d="M 3.5 0.5 L 94.5 0.5 C 97.5 0.5 97.5 0.5 97.5 3.5 L 97.5 9 L 103.5 15 L 97.5 21 L 97.5 26.5 C 97.5 29.5 97.5 29.5 94.5 29.5 L 3.5 29.5 C 0.5 29.5 0.5 29.5 0.5 26.5 L 0.5 3.5 C 0.5 0.5 0.5 0.5 3.5 0.5" stroke="#000000" stroke-opacity="0.09999999999999999" stroke-width="3" transform="translate(1, 1)"></path><path fill="none" class="highcharts-label-box highcharts-tooltip-box highcharts-shadow" d="M 3.5 0.5 L 94.5 0.5 C 97.5 0.5 97.5 0.5 97.5 3.5 L 97.5 9 L 103.5 15 L 97.5 21 L 97.5 26.5 C 97.5 29.5 97.5 29.5 94.5 29.5 L 3.5 29.5 C 0.5 29.5 0.5 29.5 0.5 26.5 L 0.5 3.5 C 0.5 0.5 0.5 0.5 3.5 0.5" stroke="#000000" stroke-opacity="0.15" stroke-width="1" transform="translate(1, 1)"></path><path fill="rgba(247,247,247,0.85)" class="highcharts-label-box highcharts-tooltip-box" d="M 3.5 0.5 L 94.5 0.5 C 97.5 0.5 97.5 0.5 97.5 3.5 L 97.5 9 L 103.5 15 L 97.5 21 L 97.5 26.5 C 97.5 29.5 97.5 29.5 94.5 29.5 L 3.5 29.5 C 0.5 29.5 0.5 29.5 0.5 26.5 L 0.5 3.5 C 0.5 0.5 0.5 0.5 3.5 0.5" stroke="#e85900" stroke-width="1"></path><text x="8" data-z-index="1" y="20" style="color:#333333;cursor:default;font-size:12px;fill:#333333;"><tspan>Dentist: $7,187</tspan></text></g></svg>