<svg width="12" height="18" viewBox="0 0 12 18" fill="none" xmlns="http://www.w3.org/2000/svg">
<path fill-rule="evenodd" clip-rule="evenodd" d="M6.0013 0.666992C2.7763 0.666992 0.167969 3.27533 0.167969 6.50033C0.167969 10.8753 6.0013 17.3337 6.0013 17.3337C6.0013 17.3337 11.8346 10.8753 11.8346 6.50033C11.8346 3.27533 9.2263 0.666992 6.0013 0.666992ZM1.83464 6.50033C1.83464 4.20033 3.7013 2.33366 6.0013 2.33366C8.3013 2.33366 10.168 4.20033 10.168 6.50033C10.168 8.90033 7.76797 12.492 6.0013 14.7337C4.26797 12.5087 1.83464 8.87533 1.83464 6.50033ZM3.91797 6.50033C3.91797 5.34973 4.85071 4.41699 6.0013 4.41699C6.74561 4.41699 7.43337 4.81407 7.80552 5.45866C8.17767 6.10324 8.17767 6.89741 7.80552 7.54199C7.43337 8.18658 6.74561 8.58366 6.0013 8.58366C4.85071 8.58366 3.91797 7.65092 3.91797 6.50033Z" fill="white"/>
</svg>
