<svg width="20" height="20" viewBox="0 0 20 20" fill="none" xmlns="http://www.w3.org/2000/svg">
<path fill-rule="evenodd" clip-rule="evenodd" d="M9.98953 0.833984C4.92953 0.833984 0.832031 4.94065 0.832031 10.0007C0.832031 15.0607 4.92953 19.1673 9.98953 19.1673C15.0587 19.1673 19.1654 15.0607 19.1654 10.0007C19.1654 4.94065 15.0587 0.833984 9.98953 0.833984ZM9.99863 17.334C5.94697 17.334 2.6653 14.0523 2.6653 10.0006C2.6653 5.94898 5.94697 2.66731 9.99863 2.66731C14.0503 2.66731 17.332 5.94898 17.332 10.0006C17.332 14.0523 14.0503 17.334 9.99863 17.334ZM14.582 7.70898C14.582 8.46982 13.9679 9.08398 13.207 9.08398C12.4462 9.08398 11.832 8.46982 11.832 7.70898C11.832 6.94815 12.4462 6.33398 13.207 6.33398C13.9679 6.33398 14.582 6.94815 14.582 7.70898ZM6.7903 9.08398C7.55113 9.08398 8.1653 8.46982 8.1653 7.70898C8.1653 6.94815 7.55113 6.33398 6.7903 6.33398C6.02947 6.33398 5.4153 6.94815 5.4153 7.70898C5.4153 8.46982 6.02947 9.08398 6.7903 9.08398ZM14.6827 11.834C13.9493 13.704 12.1343 15.0423 9.99851 15.0423C7.86268 15.0423 6.04768 13.704 5.31435 11.834H14.6827Z" fill="black" fill-opacity="0.54"/>
</svg>
