<?xml version="1.0" encoding="UTF-8" standalone="no"?>
<svg
   xmlns:dc="http://purl.org/dc/elements/1.1/"
   xmlns:cc="http://creativecommons.org/ns#"
   xmlns:rdf="http://www.w3.org/1999/02/22-rdf-syntax-ns#"
   xmlns:svg="http://www.w3.org/2000/svg"
   xmlns="http://www.w3.org/2000/svg"
   viewBox="0 0 4000 2666.6667"
   height="2666.6667"
   width="4000"
   xml:space="preserve"
   id="svg2"
   version="1.1"><metadata
     id="metadata8"><rdf:RDF><cc:Work
         rdf:about=""><dc:format>image/svg+xml</dc:format><dc:type
           rdf:resource="http://purl.org/dc/dcmitype/StillImage" /></cc:Work></rdf:RDF></metadata><defs
     id="defs6" /><g
     transform="matrix(1.3333333,0,0,-1.3333333,0,2666.6667)"
     id="g10"><g
       transform="scale(0.1)"
       id="g12"><g
         transform="scale(1.84049)"
         id="g14"><path
           id="path16"
           style="fill:#ffffff;fill-opacity:1;fill-rule:nonzero;stroke:none"
           d="M 16300,0 H 0 V 10866.7 H 16300 V 0" /></g><g
         transform="scale(1.70748)"
         id="g18"><path
           id="path20"
           style="fill:#f6f5f5;fill-opacity:1;fill-rule:nonzero;stroke:none"
           d="m 16221.6,2533.38 c -198.3,1074.03 -1127.8,2035.56 -2219.7,2056.7 -121.7,2.35 -245.4,-5.97 -368.9,-14.23 -288.3,-19.38 -575.7,-38.77 -834.9,77.25 -273.9,122.58 -464,375.88 -707.7,550.75 -372,266.77 -856.1,337.93 -1311.3,289.55 C 10324,5445.03 9888.52,5287.49 9458.36,5131.12 8796.56,5907.46 7761.24,6349.89 6742.78,6291.58 5724.34,6233.28 4746.28,5675.6 4177.41,4828.8 3045.47,4842.91 1970.76,3947.5 1780.27,2831.59 1682.53,2259.05 1824.08,1664.32 2129.53,1171.72 H 16100.1 c 153.6,448.09 199.9,936.76 121.5,1361.66" /></g><g
         transform="scale(1.73036)"
         id="g22"><path
           id="path24"
           style="fill:#dadada;fill-opacity:1;fill-rule:nonzero;stroke:none"
           d="m 14758.5,1145.37 -12.6,21.73 c 252.6,145.63 484,364.89 687.9,651.71 193,271.62 353.8,597.68 464.7,942.87 220.7,686.73 298.6,1418.89 372.7,2127.76 -589.6,-180.08 -1144.7,-652.75 -1525.1,-1299.61 -384.7,-654.2 -585.9,-1478.13 -552.1,-2260.57 l -25.1,-1.1 c -34,787.12 168.5,1616.08 555.6,2274.32 387.5,658.94 955.2,1138.72 1557.5,1316.38 l 18,5.31 -1.9,-18.66 c -74.8,-715.92 -152.2,-1456.23 -375.7,-2151.52 -111.7,-347.56 -273.7,-675.99 -468.2,-949.74 -205.9,-289.77 -440.1,-511.46 -695.7,-658.88" /></g><g
         transform="scale(1.6814)"
         id="g26"><path
           id="path28"
           style="fill:#dadada;fill-opacity:1;fill-rule:nonzero;stroke:none"
           d="m 14667.3,1326.27 -25.7,2.2 c 23.3,271.32 108.1,543.95 259,833.41 145.6,279.35 333.4,534.56 480.7,725.7 35.9,46.57 72.9,93.97 108.5,139.77 311.9,400.44 634.5,814.5 785.5,1319.43 l 24.7,-7.43 c -152.4,-509.52 -476.4,-925.54 -789.8,-1327.88 -35.7,-45.8 -72.6,-93.14 -108.4,-139.65 -146.7,-190.25 -333.6,-444.27 -478.3,-721.89 -149.4,-286.37 -233.2,-555.79 -256.2,-823.66" /></g><g
         transform="scale(1.66462)"
         id="g30"><path
           id="path32"
           style="fill:#dadada;fill-opacity:1;fill-rule:nonzero;stroke:none"
           d="m 15504.3,2685.72 c -36.1,0 -71.9,2.34 -107.3,7.15 l 3.5,25.83 c 155.8,-20.97 320.4,6.07 476,78.1 156,72.2 295.2,186.04 402.7,329.14 l 20.8,-15.62 c -110.1,-146.58 -252.7,-263.18 -412.5,-337.13 -124.9,-57.86 -255.5,-87.47 -383.2,-87.47" /></g><g
         transform="scale(1.62699)"
         id="g34"><path
           id="path36"
           style="fill:#dadada;fill-opacity:1;fill-rule:nonzero;stroke:none"
           d="m 16125.5,3273.28 c -87.3,307 -27.5,675.97 152.5,940.07 l 22,-14.99 c -175.7,-257.84 -234.1,-618.08 -148.9,-917.77 l -25.6,-7.31" /></g><g
         transform="scale(1.76912)"
         id="g38"><path
           id="path40"
           style="fill:#dadada;fill-opacity:1;fill-rule:nonzero;stroke:none"
           d="m 15273,1117.22 -8.6,22.95 c 277.9,104.97 528.3,319.54 705.2,604.15 150,241.53 251.5,536.31 301.9,876.42 -308.2,-13.79 -616.5,-137.98 -847.8,-341.92 l -16.2,18.37 c 239.2,210.9 559.2,337.97 877.9,348.65 l 14.6,0.51 -2.1,-14.47 c -50.1,-349.67 -153.5,-652.64 -307.5,-900.51 -179.6,-289.18 -434.4,-507.26 -717.4,-614.15" /></g><g
         transform="scale(1.73853)"
         id="g42"><path
           id="path44"
           style="fill:#dadada;fill-opacity:1;fill-rule:nonzero;stroke:none"
           d="m 14783.4,1202.97 -10.7,22.55 c 564,265.05 1085.8,646.87 1509,1104.15 l 18.3,-16.91 c -425.4,-459.64 -949.8,-843.41 -1516.6,-1109.79" /></g><g
         transform="scale(1.41785)"
         id="g46"><path
           id="path48"
           style="fill:#dadada;fill-opacity:1;fill-rule:nonzero;stroke:none"
           d="m 15456,1375.32 c -268.2,100.65 -512.4,288.54 -706.5,543.37 -178.6,234.51 -311.8,519.51 -385.5,824.27 -145.5,602.96 -76.6,1246.12 -0.6,1801.54 l 3.4,24.89 20.6,-14.38 c 488.4,-342.28 993.5,-696.2 1359.8,-1184.41 407.9,-543.64 552.8,-1182.78 387.6,-1709.63 l -29.2,9.1 c 162.3,517.55 19.1,1146.38 -382.9,1682.2 -358.3,477.48 -852.3,826.81 -1332.4,1163.24 -74.2,-546.96 -138.7,-1176.5 3.5,-1765.35 72.6,-300.67 204,-581.8 380.1,-812.92 190.5,-250.25 430.1,-434.61 692.8,-533.28 l -10.7,-28.64" /></g><g
         transform="scale(1.38109)"
         id="g50"><path
           id="path52"
           style="fill:#dadada;fill-opacity:1;fill-rule:nonzero;stroke:none"
           d="m 16271.9,1631.03 -1211.3,2451.75 28.2,13.91 1211.2,-2451.76 -28.1,-13.9" /></g><g
         transform="scale(1.33365)"
         id="g54"><path
           id="path56"
           style="fill:#dadada;fill-opacity:1;fill-rule:nonzero;stroke:none"
           d="m 16278.6,2781.54 c -165.9,0 -332.8,44.01 -484.2,127.77 -157.8,87.35 -288.1,212.05 -376.5,360.59 l 27.9,16.64 c 85.5,-143.59 211.5,-264.16 364.3,-348.81 152.9,-84.58 322.2,-127.17 489.1,-123.42 l 0.8,-32.54 c -7.1,-0.16 -14.3,-0.23 -21.4,-0.23" /></g><path
         id="path58"
         style="fill:#dadada;fill-opacity:1;fill-rule:nonzero;stroke:none"
         d="m 5443.64,2011.9 c -494.03,101.5 -955.8,347.2 -1372.49,730.3 -374.78,344.5 -696.14,789.6 -929.31,1287.1 -451.81,964.1 -589.54,2031.5 -722.73,3063.8 l -4.61,35.7 33.73,-12.6 c 1286.05,-481.3 2184.8,-1035 2828.44,-1742.5 822.56,-904.4 1170.65,-2091.3 908.41,-3097.8 l -41.98,10.9 c 258.58,992.5 -85.71,2164.1 -898.52,3057.7 -633.2,696.1 -1516.44,1242.6 -2777.83,1718.4 131.37,-1017.9 270.64,-2068.4 714.38,-3015.1 230.79,-492.5 548.71,-932.9 919.38,-1273.7 410.82,-377.7 865.65,-619.8 1351.86,-719.7 l -8.73,-42.5" /><path
         id="path60"
         style="fill:#dadada;fill-opacity:1;fill-rule:nonzero;stroke:none"
         d="m 5893.81,2264.9 c -353.58,690.9 -776.02,1353.5 -1255.61,1969.5 -479.6,616 -1018.42,1188 -1601.52,1700.2 l 28.63,32.6 c 585.14,-514 1125.85,-1088 1607.11,-1706.2 481.27,-618.1 905.19,-1283 1260.01,-1976.3 l -38.62,-19.8" /><path
         id="path62"
         style="fill:#dadada;fill-opacity:1;fill-rule:nonzero;stroke:none"
         d="m 4365.99,4475.1 c -414.74,144.9 -825.38,315.7 -1220.51,507.7 l 18.96,39 C 3558.06,4830.5 3967.13,4660.4 4380.3,4516 l -14.31,-40.9" /><path
         id="path64"
         style="fill:#dadada;fill-opacity:1;fill-rule:nonzero;stroke:none"
         d="m 5079.73,3755.8 -43.16,4.4 96.88,963.7 43.16,-4.3 -96.88,-963.8" /><path
         id="path66"
         style="fill:#dadada;fill-opacity:1;fill-rule:nonzero;stroke:none"
         d="m 3686.07,2023.6 c -254.26,0 -516.08,75.7 -761.3,220.5 -243.23,143.6 -464.09,349.8 -638.72,596.3 -139.35,196.7 -290.42,549.8 -448.99,1049.4 -117.85,371.3 -195.98,689.3 -196.75,692.4 l -8.15,33.3 33.57,-6.9 c 45.12,-9.2 1109.3,-230.4 1490.06,-571.9 l -28.97,-32.3 c -153.36,137.6 -455.8,278.3 -874.64,406.9 -252.69,77.6 -478.18,129.4 -561.26,147.6 51.91,-203.8 334.03,-1274.9 630.53,-1693.4 171.12,-241.5 387.37,-443.5 625.38,-584.1 258.67,-152.7 535.92,-226.3 801.56,-212.8 l 2.21,-43.3 c -21.45,-1.1 -42.96,-1.7 -64.53,-1.7" /><path
         id="path68"
         style="fill:#dadada;fill-opacity:1;fill-rule:nonzero;stroke:none"
         d="m 3543.96,2568.3 c -428.05,595.4 -923.4,1143.9 -1472.27,1630.2 l 28.77,32.5 c 551.27,-488.5 1048.8,-1039.3 1478.73,-1637.3 l -35.23,-25.4" /><path
         id="path70"
         style="fill:#dadada;fill-opacity:1;fill-rule:nonzero;stroke:none"
         d="m 9020.39,1962.6 -28.31,32.9 c 553.1,476.2 948.05,1130.2 1112.12,1841.4 162.7,705.6 96.4,1460.2 -186.51,2126.8 -369.51,-65.2 -728,-250.9 -1037.78,-537.6 -289.9,-268.4 -529.89,-615.3 -694.04,-1003.3 -310.01,-732.6 -369.22,-1553.6 -406.59,-2400.7 l -43.34,1.9 c 37.55,851.2 97.16,1676.4 409.98,2415.7 166.53,393.6 410.14,745.7 704.52,1018.2 320.7,296.9 693.09,487.6 1076.9,551.4 l 16.77,2.8 6.72,-15.6 C 10243.1,5317.7 10312.5,4547.3 10146.4,3827.1 9980.34,3107 9580.43,2444.8 9020.39,1962.6" /><path
         id="path72"
         style="fill:#dadada;fill-opacity:1;fill-rule:nonzero;stroke:none"
         d="m 8342.48,2116 -41.3,13.3 c 304.95,946.5 732.64,1850.2 1271.18,2686.1 l 36.47,-23.5 C 9072.33,3959.2 8646.27,3058.9 8342.48,2116" /><path
         id="path74"
         style="fill:#dadada;fill-opacity:1;fill-rule:nonzero;stroke:none"
         d="m 8982.03,3738.8 -24.71,35.7 c 273.31,189.4 591.06,318.8 918.88,374.4 l 7.26,-42.7 c -321.6,-54.6 -633.31,-181.6 -901.43,-367.4" /><g
         transform="scale(1.18036)"
         id="g76"><path
           id="path78"
           style="fill:#dadada;fill-opacity:1;fill-rule:nonzero;stroke:none"
           d="m 16143.8,3091.61 c -65.9,0 -119.5,-53.63 -119.5,-119.46 0,-65.82 53.6,-119.45 119.5,-119.45 65.9,0 119.4,53.63 119.4,119.45 0,65.83 -53.5,119.46 -119.4,119.46 z m 0,-275.68 c -86.1,0 -156.2,70.06 -156.2,156.22 0,86.17 70.1,156.23 156.2,156.23 86.1,0 156.2,-70.06 156.2,-156.23 0,-86.16 -70.1,-156.22 -156.2,-156.22" /></g><g
         transform="scale(1.62615)"
         id="g80"><path
           id="path82"
           style="fill:#dadada;fill-opacity:1;fill-rule:nonzero;stroke:none"
           d="m 16186.7,5498.8 c -47.9,0 -86.7,-38.92 -86.7,-86.7 0,-47.85 38.8,-86.71 86.7,-86.71 47.7,0 86.7,38.86 86.7,86.71 0,47.78 -39,86.7 -86.7,86.7 z m 0,-200.1 c -62.6,0 -113.4,50.86 -113.4,113.4 0,62.48 50.8,113.33 113.4,113.33 62.4,0 113.3,-50.85 113.3,-113.33 0,-62.54 -50.9,-113.4 -113.3,-113.4" /></g><g
         transform="scale(1.77387)"
         id="g84"><path
           id="path86"
           style="fill:#dadada;fill-opacity:1;fill-rule:nonzero;stroke:none"
           d="m 16300,3304.47 c 0,-50.63 -41.1,-91.72 -91.7,-91.72 -50.7,0 -91.7,41.09 -91.7,91.72 0,50.68 41,91.72 91.7,91.72 50.6,0 91.7,-41.04 91.7,-91.72" /></g><path
         id="path88"
         style="fill:#dadada;fill-opacity:1;fill-rule:nonzero;stroke:none"
         d="m 2852.07,8898.5 c 0,-89.9 -72.84,-162.7 -162.68,-162.7 -89.85,0 -162.69,72.8 -162.69,162.7 0,89.8 72.84,162.7 162.69,162.7 89.84,0 162.68,-72.9 162.68,-162.7" /><path
         id="path90"
         style="fill:#dadada;fill-opacity:1;fill-rule:nonzero;stroke:none"
         d="m 1290.3,6208.8 c -77.74,0 -140.99,-63.3 -140.99,-141 0,-77.8 63.25,-141 140.99,-141 77.75,0 141,63.2 141,141 0,77.7 -63.25,141 -141,141 z m 0,-325.4 c -101.66,0 -184.37,82.7 -184.37,184.4 0,101.6 82.71,184.3 184.37,184.3 101.67,0 184.38,-82.7 184.38,-184.3 0,-101.7 -82.71,-184.4 -184.38,-184.4" /><path
         id="path92"
         style="fill:#dadada;fill-opacity:1;fill-rule:nonzero;stroke:none"
         d="m 11322.5,4072.2 c -77.8,0 -141,-63.3 -141,-141 0,-77.8 63.2,-141 141,-141 77.7,0 141,63.2 141,141 0,77.7 -63.3,141 -141,141 z m 0,-325.4 c -101.7,0 -184.4,82.7 -184.4,184.4 0,101.7 82.7,184.4 184.4,184.4 101.7,0 184.4,-82.7 184.4,-184.4 0,-101.7 -82.7,-184.4 -184.4,-184.4" /><path
         id="path94"
         style="fill:#ffffff;fill-opacity:1;fill-rule:nonzero;stroke:none"
         d="m 4529.53,13685 c 0,351.4 -485.57,636.3 -1084.56,636.3 -598.99,0 -1084.56,-284.9 -1084.56,-636.3 0,-351.4 485.57,-636.3 1084.56,-636.3 130.78,0 256.15,13.6 372.25,38.5 81.14,-97.6 221.6,-184.8 458.41,-235.1 0,0 -86.94,159.5 -140.11,342.3 240.65,116.7 394.01,293.1 394.01,490.6" /><path
         id="path96"
         style="fill:#86a7ff;fill-opacity:1;fill-rule:nonzero;stroke:none"
         d="m 3829.65,13123.2 12.59,-15.2 c 77.57,-93.3 202.79,-163.2 372.82,-208.1 -30.67,64 -77.09,169.5 -110.78,285.4 l -7.68,26.4 24.72,11.9 c 238.75,115.8 375.67,284 375.67,461.4 0,332.9 -471.94,603.8 -1052.02,603.8 -580.09,0 -1052.03,-270.9 -1052.03,-603.8 0,-332.9 471.94,-603.7 1052.03,-603.7 125.63,0 248.57,12.7 365.43,37.7 z m 508.35,-317.6 -69.13,14.6 c -209.77,44.6 -365.65,122.3 -463.73,231.3 -115.65,-23.4 -236.72,-35.3 -360.17,-35.3 -295.4,0 -573.6,67.8 -783.36,190.8 -215.22,126.3 -333.74,296 -333.74,478 0,182 118.52,351.7 333.74,478 209.76,123 487.96,190.8 783.36,190.8 295.4,0 573.6,-67.8 783.36,-190.8 215.21,-126.3 333.74,-296 333.74,-478 0,-196.8 -140.8,-380.6 -387.49,-507.5 51.85,-166.1 128.81,-308.4 129.62,-309.9 l 33.8,-62" /><path
         id="path98"
         style="fill:#86a7ff;fill-opacity:1;fill-rule:nonzero;stroke:none"
         d="M 4055.93,13800.7 H 2819.54 v 43.4 h 1236.39 v -43.4" /><path
         id="path100"
         style="fill:#86a7ff;fill-opacity:1;fill-rule:nonzero;stroke:none"
         d="m 3730.57,13562.1 h -911.03 v 43.4 h 911.03 v -43.4" /><g
         transform="scale(1.67761)"
         id="g102"><path
           id="path104"
           style="fill:#ffffff;fill-opacity:1;fill-rule:nonzero;stroke:none"
           d="m 15007,8597.04 c 0,209.47 289.4,379.27 646.5,379.27 357,0 646.5,-169.8 646.5,-379.27 0,-209.47 -289.5,-379.28 -646.5,-379.28 -78,0 -152.7,8.1 -221.9,22.94 -48.4,-58.2 -132.1,-110.18 -273.3,-140.16 0,0 51.9,95.1 83.6,204.04 -143.5,69.56 -234.9,174.75 -234.9,292.46" /></g><g
         transform="scale(1.67961)"
         id="g106"><path
           id="path108"
           style="fill:#86a7ff;fill-opacity:1;fill-rule:nonzero;stroke:none"
           d="m 15634.9,8946.29 c -345.4,0 -626.3,-161.25 -626.3,-359.46 0,-105.63 81.5,-205.75 223.6,-274.69 l 14.8,-7.13 -4.6,-15.7 c -20.1,-68.97 -47.7,-131.82 -66,-169.92 101.2,26.75 175.8,68.34 222,123.91 l 7.5,9.02 11.5,-2.46 c 69.5,-14.92 142.7,-22.48 217.5,-22.48 345.4,0 626.3,161.25 626.3,359.45 0,198.21 -280.9,359.46 -626.3,359.46 z m -531.7,-883.06 20.2,36.96 c 0.4,0.89 46.3,85.56 77.1,184.49 -146.9,75.52 -230.7,184.98 -230.7,302.15 0,108.34 70.6,209.41 198.7,284.58 124.9,73.26 290.5,113.62 466.4,113.62 175.9,0 341.5,-40.36 466.4,-113.62 128.1,-75.17 198.7,-176.24 198.7,-284.58 0,-108.34 -70.6,-209.4 -198.7,-284.57 -124.9,-73.27 -290.5,-113.62 -466.4,-113.62 -73.5,0 -145.6,7.06 -214.5,20.99 -58.4,-64.85 -151.1,-111.13 -276,-137.65 l -41.2,-8.75" /></g><g
         transform="scale(1.64944)"
         id="g110"><path
           id="path112"
           style="fill:#86a7ff;fill-opacity:1;fill-rule:nonzero;stroke:none"
           d="m 16300,8814.01 h -749.6 v 26.3 h 749.6 v -26.3" /></g><g
         transform="scale(1.62948)"
         id="g114"><path
           id="path116"
           style="fill:#86a7ff;fill-opacity:1;fill-rule:nonzero;stroke:none"
           d="m 16300,8775.53 h -559.1 v 26.62 h 559.1 v -26.62" /></g><g
         transform="scale(1.03133)"
         id="g118"><path
           id="path120"
           style="fill:#d3dfff;fill-opacity:1;fill-rule:nonzero;stroke:none"
           d="M 16300,1939.92 H 12640.4 V 6062.17 H 16300 V 1939.92" /></g><g
         transform="scale(1.03333)"
         id="g122"><path
           id="path124"
           style="fill:#86a7ff;fill-opacity:1;fill-rule:nonzero;stroke:none"
           d="M 12647.4,1967.63 H 16237 V 6019.02 H 12647.4 V 1967.63 m 3652.6,-63 H 12584.5 V 6082.02 H 16300 V 1904.63" /></g><g
         transform="scale(1.02933)"
         id="g126"><path
           id="path128"
           style="fill:#afbee7;fill-opacity:1;fill-rule:nonzero;stroke:none"
           d="m 16300,4313.77 h -3603.5 v 1728.6 H 16300 v -1728.6" /></g><g
         transform="scale(1.03133)"
         id="g130"><path
           id="path132"
           style="fill:#7192e7;fill-opacity:1;fill-rule:nonzero;stroke:none"
           d="m 16300,4305.41 h -31.6 V 6030.65 H 12671.9 V 4305.41 h -31.5 V 6062.17 H 16300 V 4305.41" /></g><path
         id="path134"
         style="fill:#ffffff;fill-opacity:1;fill-rule:nonzero;stroke:none"
         d="m 15928.6,4856.7 c 0,-555.1 -450,-1005 -1005.1,-1005 -555,0 -1005,449.9 -1005,1005 0,555 450,1005 1005,1005 555.1,0 1005.1,-450 1005.1,-1005" /><g
         transform="scale(1.41412)"
         id="g136"><path
           id="path138"
           style="fill:#d3dfff;fill-opacity:1;fill-rule:nonzero;stroke:none"
           d="M 16064.2,3601.17 H 5042.16 c -130.2,0 -235.73,105.58 -235.73,235.77 v 7833.96 c 0,130.2 105.53,235.7 235.73,235.7 H 16064.2 c 130.3,0 235.8,-105.5 235.8,-235.7 V 3836.94 c 0,-130.19 -105.5,-235.77 -235.8,-235.77" /></g><g
         transform="scale(1.41612)"
         id="g140"><path
           id="path142"
           style="fill:#86a7ff;fill-opacity:1;fill-rule:nonzero;stroke:none"
           d="m 5054.97,11866.9 c -128.12,0 -232.34,-104.2 -232.34,-232.3 V 3851.45 c 0,-128.17 104.22,-232.4 232.34,-232.4 H 16021.8 c 128.1,0 232.3,104.23 232.3,232.4 v 7783.15 c 0,128.1 -104.2,232.3 -232.3,232.3 z M 16021.8,3573.15 H 5054.97 c -153.45,0 -278.29,124.85 -278.29,278.3 v 7783.15 c 0,153.4 124.84,278.3 278.29,278.3 H 16021.8 c 153.4,0 278.2,-124.9 278.2,-278.3 V 3851.45 c 0,-153.45 -124.8,-278.3 -278.2,-278.3" /></g><g
         transform="scale(1.39602)"
         id="g144"><path
           id="path146"
           style="fill:#ffffff;fill-opacity:1;fill-rule:nonzero;stroke:none"
           d="M 16300,4855.38 H 5080.11 V 11764.4 H 16300 V 4855.38" /></g><g
         transform="scale(1.39802)"
         id="g148"><path
           id="path150"
           style="fill:#86a7ff;fill-opacity:1;fill-rule:nonzero;stroke:none"
           d="M 5096.12,4871.68 H 16253.4 V 11724.3 H 5096.12 Z M 16300,4825.12 H 5049.57 V 11770.8 H 16300 V 4825.12" /></g><g
         transform="scale(1.01572)"
         id="g152"><path
           id="path154"
           style="fill:#d3dfff;fill-opacity:1;fill-rule:nonzero;stroke:none"
           d="m 16300,14930.4 h -3488 v 407.7 h 3488 v -407.7" /></g><g
         transform="scale(1.18883)"
         id="g156"><path
           id="path158"
           style="fill:#d3dfff;fill-opacity:1;fill-rule:nonzero;stroke:none"
           d="M 16300,12285.9 H 8572.89 v 130.3 H 16300 v -130.3" /></g><g
         transform="scale(1.29724)"
         id="g160"><path
           id="path162"
           style="fill:#86a7ff;fill-opacity:1;fill-rule:nonzero;stroke:none"
           d="m 16300,7686.09 h -2732.2 v 119.39 H 16300 v -119.39" /></g><g
         transform="scale(1.26704)"
         id="g164"><path
           id="path166"
           style="fill:#86a7ff;fill-opacity:1;fill-rule:nonzero;stroke:none"
           d="m 16300,7565.53 h -2408.8 v 122.25 H 16300 v -122.25" /></g><g
         transform="scale(1.1979)"
         id="g168"><path
           id="path170"
           style="fill:#86a7ff;fill-opacity:1;fill-rule:nonzero;stroke:none"
           d="m 16300,7680.88 h -1607 v 129.32 h 1607 v -129.32" /></g><g
         transform="scale(1.27105)"
         id="g172"><path
           id="path174"
           style="fill:#d3dfff;fill-opacity:1;fill-rule:nonzero;stroke:none"
           d="m 16300,6675.19 h -2452.6 v 121.87 H 16300 v -121.87" /></g><g
         transform="scale(1.24448)"
         id="g176"><path
           id="path178"
           style="fill:#d3dfff;fill-opacity:1;fill-rule:nonzero;stroke:none"
           d="m 16300,6508.4 h -2157 v 124.55 h 2157 V 6508.4" /></g><path
         id="path180"
         style="fill:#d3dfff;fill-opacity:1;fill-rule:nonzero;stroke:none"
         d="M 9939.73,8147.3 H 8435.34 v 2358.1 H 9939.73 V 8147.3" /><path
         id="path182"
         style="fill:#86a7ff;fill-opacity:1;fill-rule:nonzero;stroke:none"
         d="m 12012.7,9730.2 h -1691.1 v 778.9 h 1691.1 v -778.9" /><path
         id="path184"
         style="fill:#d3dfff;fill-opacity:1;fill-rule:nonzero;stroke:none"
         d="m 12012.7,8144 h -1691.1 v 1206.6 h 1691.1 V 8144" /><g
         transform="scale(1.01794)"
         id="g186"><path
           id="path188"
           style="fill:#86a7ff;fill-opacity:1;fill-rule:nonzero;stroke:none"
           d="m 12986.1,9967.04 c -110.5,0 -200.5,-89.93 -200.5,-200.44 V 8221.52 c 0,-110.52 90,-200.41 200.5,-200.41 h 3076.2 c 110.6,0 200.5,89.89 200.5,200.41 V 9766.6 c 0,110.51 -89.9,200.44 -200.5,200.44 z m 3076.2,-1983.16 h -3076.2 c -131,0 -237.6,106.59 -237.6,237.64 V 9766.6 c 0,131.01 106.6,237.6 237.6,237.6 h 3076.2 c 131,0 237.7,-106.59 237.7,-237.6 V 8221.52 c 0,-131.05 -106.7,-237.64 -237.7,-237.64" /></g><path
         id="path190"
         style="fill:#3a6bea;fill-opacity:1;fill-rule:nonzero;stroke:none"
         d="m 13353.5,8563.1 -33.9,17 213.9,427.8 264.4,-276.9 314.8,679.9 422.2,-396.6 464.4,464.5 454,-277.4 582.5,607.3 27.4,-26.2 -603.6,-629.3 -454.6,277.8 -469.3,-469.4 -410.6,385.8 -316.2,-682.8 -265.6,278.2 -189.8,-379.7" /><path
         id="path192"
         style="fill:#86a7ff;fill-opacity:1;fill-rule:nonzero;stroke:none"
         d="m 15305,8461.2 h -359.6 v 189.3 h 359.6 v -189.3" /><path
         id="path194"
         style="fill:#3a6bea;fill-opacity:1;fill-rule:nonzero;stroke:none"
         d="m 16166.2,8536.9 h -624.6 v 37.8 h 624.6 v -37.8" /><path
         id="path196"
         style="fill:#d3dfff;fill-opacity:1;fill-rule:nonzero;stroke:none"
         d="m 16196.4,12713.7 c -127,473.1 -485.4,851.2 -946.6,1005.9 l -465,-1385.7 1411.6,379.8" /><path
         id="path198"
         style="fill:#86a7ff;fill-opacity:1;fill-rule:nonzero;stroke:none"
         d="m 14784.8,12333.9 -647,-1310.9 c 195,-96.4 414.6,-150.9 647,-150.9 807.3,0 1461.7,654.4 1461.7,1461.8 0,131.4 -17.6,258.6 -50.1,379.8 l -1411.6,-379.8" /><path
         id="path200"
         style="fill:#3a6bea;fill-opacity:1;fill-rule:nonzero;stroke:none"
         d="m 15249.8,13719.6 c -146.1,49.1 -302.4,76 -465,76 -807.3,0 -1461.8,-654.4 -1461.8,-1461.7 0,-575 332.1,-1072.1 814.8,-1310.9 l 647,1310.9 465,1385.7" /><path
         id="path202"
         style="fill:#d3dfff;fill-opacity:1;fill-rule:nonzero;stroke:none"
         d="M 11253.5,11152.5 H 9194.52 v 154.9 h 2058.98 v -154.9" /><path
         id="path204"
         style="fill:#86a7ff;fill-opacity:1;fill-rule:nonzero;stroke:none"
         d="m 8454.27,11684.4 h 3539.43 v 2014.2 H 8454.27 Z m 3577.33,-37.9 H 8416.42 v 2090 h 3615.18 v -2090" /><path
         id="path206"
         style="fill:#d3dfff;fill-opacity:1;fill-rule:nonzero;stroke:none"
         d="m 11766.7,13280.2 c -120,24.1 -238.8,-54 -314.7,-150.3 -36,-45.7 -65.7,-95.7 -94.9,-146.1 -32.4,-56 -64.3,-112.3 -103.4,-163.6 -74.4,-97.5 -189.9,-179 -310.8,-160.6 -196.2,29.9 -303.5,299.2 -501.9,295.7 -92.6,-1.6 -172,-65.7 -235.2,-133.8 -63.1,-68.1 -120.8,-145.5 -202.9,-188.5 -114.9,-60.1 -256.69,-40.6 -375.79,10.6 -119.09,51.1 -223.54,130.8 -336.76,194 -189.65,105.8 -405.24,161.8 -622.09,167.5 v -1022.4 h 3111.44 v 940.5 353.6 c -4.3,1.2 -8.5,2.5 -13,3.4" /><path
         id="path208"
         style="fill:#86a7ff;fill-opacity:1;fill-rule:nonzero;stroke:none"
         d="m 9627.11,12643.6 c 119.1,-51.2 260.89,-70.7 375.79,-10.6 82.1,43 139.8,120.4 202.9,188.5 63.2,68.1 142.6,132.2 235.2,133.8 198.4,3.5 305.7,-265.8 501.9,-295.7 120.9,-18.4 236.4,63.1 310.8,160.6 39.1,51.3 71,107.6 103.4,163.6 -120.5,-5.6 -241,-11.5 -345.5,44.2 -103.8,55.4 -172,163.5 -275.5,219.5 -185.9,100.5 -413.3,4.6 -598.5,-97.2 -110.7,-60.9 -234.17,-126.2 -356.79,-96.2 -138.71,33.9 -219.99,175.2 -335.5,259.5 -221.16,161.3 -553.35,83 -742.39,-115.3 l -0.36,-0.4 c -22.62,-23.7 -34.3,-54.2 -34.3,-85.4 v -107.4 c 216.85,-5.7 432.44,-61.7 622.09,-167.5 113.22,-63.2 217.67,-142.9 336.76,-194" /><g
         transform="scale(1.29834)"
         id="g210"><path
           id="path212"
           style="fill:#86a7ff;fill-opacity:1;fill-rule:nonzero;stroke:none"
           d="m 13544.7,8359.07 h 2721.9 V 10548.7 H 13544.7 Z M 16300,8325.66 H 13511.3 V 10582.1 H 16300 V 8325.66" /></g><g
         transform="scale(1.13618)"
         id="g214"><path
           id="path216"
           style="fill:#86a7ff;fill-opacity:1;fill-rule:nonzero;stroke:none"
           d="m 15966.9,9896.59 h 333.1 v 1121.71 h -333.1 V 9896.59" /></g><g
         transform="scale(1.13618)"
         id="g218"><path
           id="path220"
           style="fill:#d3dfff;fill-opacity:1;fill-rule:nonzero;stroke:none"
           d="m 15966.9,11584.7 v -566.4 h 333.1 v 566.4 h -333.1" /></g><g
         transform="scale(1.17799)"
         id="g222"><path
           id="path224"
           style="fill:#d3dfff;fill-opacity:1;fill-rule:nonzero;stroke:none"
           d="m 15978.7,11173.6 v -811.4 h 321.3 v 811.4 h -321.3" /></g><g
         transform="scale(1.17799)"
         id="g226"><path
           id="path228"
           style="fill:#86a7ff;fill-opacity:1;fill-rule:nonzero;stroke:none"
           d="m 15978.7,9545.39 h 321.3 v 816.81 h -321.3 v -816.81" /></g><g
         transform="scale(1.21979)"
         id="g230"><path
           id="path232"
           style="fill:#86a7ff;fill-opacity:1;fill-rule:nonzero;stroke:none"
           d="m 15989.7,9218.26 h 310.3 v 1227.14 h -310.3 V 9218.26" /></g><g
         transform="scale(1.21979)"
         id="g234"><path
           id="path236"
           style="fill:#d3dfff;fill-opacity:1;fill-rule:nonzero;stroke:none"
           d="m 15989.7,10790.7 v -345.3 h 310.3 v 345.3 h -310.3" /></g><g
         transform="scale(1.2616)"
         id="g238"><path
           id="path240"
           style="fill:#86a7ff;fill-opacity:1;fill-rule:nonzero;stroke:none"
           d="m 16000,9656.7 v -743.89 h 300 v 743.89 h -300" /></g><g
         transform="scale(1.2616)"
         id="g242"><path
           id="path244"
           style="fill:#d3dfff;fill-opacity:1;fill-rule:nonzero;stroke:none"
           d="m 16300,10433.1 h -300 v -776.4 h 300 v 776.4" /></g><path
         id="path246"
         style="fill:#102048;fill-opacity:1;fill-rule:nonzero;stroke:none"
         d="m 7468.68,2000.7 -708.58,737.5 1.52,544.1 -860.68,-25.6 71.04,-1256 h 1496.7" /><path
         id="path248"
         style="fill:#e28b6d;fill-opacity:1;fill-rule:nonzero;stroke:none"
         d="m 6767.33,5326.7 -976.1,-130.2 38.51,-680.9 935.39,22.7 2.2,788.4" /><path
         id="path250"
         style="fill:#f9b384;fill-opacity:1;fill-rule:nonzero;stroke:none"
         d="m 6765.13,4538.3 -935.39,-22.7 71.2,-1258.9 860.68,25.6 3.51,1256" /><path
         id="path252"
         style="fill:#ffffff;fill-opacity:1;fill-rule:nonzero;stroke:none"
         d="m 6409.82,2525.4 -36.94,78.5 368.75,173.5 36.94,-78.5 -368.75,-173.5" /><path
         id="path254"
         style="fill:#e28b6d;fill-opacity:1;fill-rule:nonzero;stroke:none"
         d="M 8828,5550.8 7888.04,5587 7764.62,4867.7 8665.07,4736.2 8828,5550.8" /><path
         id="path256"
         style="fill:#102048;fill-opacity:1;fill-rule:nonzero;stroke:none"
         d="m 9037.68,2730.9 -578.43,976.2 74.79,373.9 c -255.06,58.5 -648.86,148.4 -870.47,197.9 l -194.89,-1135.8 1569,-412.2" /><path
         id="path258"
         style="fill:#f9b384;fill-opacity:1;fill-rule:nonzero;stroke:none"
         d="m 8665.07,4736.2 -900.45,131.5 -101.05,-588.8 c 221.61,-49.5 615.41,-139.4 870.47,-197.9 l 131.03,655.2" /><path
         id="path260"
         style="fill:#ffffff;fill-opacity:1;fill-rule:nonzero;stroke:none"
         d="m 8107.95,3543 -27.69,82.2 365.15,123 27.68,-82.3 -365.14,-122.9" /><path
         id="path262"
         style="fill:#fbc343;fill-opacity:1;fill-rule:nonzero;stroke:none"
         d="m 9457.05,5442.2 c 0,0 -390.44,-491.5 -1113.63,-332.3 -722.75,158.8 -592.6,-260.3 -997.79,-347.1 -404.77,-86.7 -1532.71,621.7 -1908.83,-43.3 0,0 -223.86,2518.3 -121.91,4112.2 27.77,430.3 78.96,793.4 165.29,1021.2 l 1730.52,23.8 380.9,5.3 c 0,0 1.31,-8.3 4.34,-24.8 6.51,-34.2 19.52,-104.1 41.21,-203.9 141.43,-656.3 637.73,-2602.9 1819.9,-4211.1" /><path
         id="path264"
         style="fill:#e49b31;fill-opacity:1;fill-rule:nonzero;stroke:none"
         d="m 7637.15,9653.3 c -386.96,-255.5 -1193.88,-694.5 -2322.26,-821.6 27.77,430.3 78.96,793.4 165.29,1021.2 l 1730.52,23.8 385.24,-19.5 c 6.51,-34.2 19.52,-104.1 41.21,-203.9" /><path
         id="path266"
         style="fill:#ffffff;fill-opacity:1;fill-rule:nonzero;stroke:none"
         d="M 3829.84,8058 4246.87,9472.8 6140.23,8914.7 5723.2,7499.9 3829.84,8058" /><path
         id="path268"
         style="fill:#86a7ff;fill-opacity:1;fill-rule:nonzero;stroke:none"
         d="M 3856.78,8072.6 5708.53,7526.8 6113.3,8900 4261.55,9445.9 Z M 5737.87,7473 3802.9,8043.3 4232.2,9499.7 6167.17,8929.4 5737.87,7473" /><path
         id="path270"
         style="fill:#86a7ff;fill-opacity:1;fill-rule:nonzero;stroke:none"
         d="m 5686.54,8372.9 -41.62,12.2 124.19,421.3 41.62,-12.2 -124.19,-421.3" /><path
         id="path272"
         style="fill:#86a7ff;fill-opacity:1;fill-rule:nonzero;stroke:none"
         d="m 5251.67,7856.5 -41.61,12.3 298.97,1014.3 41.62,-12.3 -298.98,-1014.3" /><path
         id="path274"
         style="fill:#86a7ff;fill-opacity:1;fill-rule:nonzero;stroke:none"
         d="m 4991.6,7933.2 -41.62,12.3 298.98,1014.3 41.61,-12.3 -298.97,-1014.3" /><path
         id="path276"
         style="fill:#86a7ff;fill-opacity:1;fill-rule:nonzero;stroke:none"
         d="m 4731.52,8009.9 -41.62,12.2 298.98,1014.3 41.61,-12.2 -298.97,-1014.3" /><path
         id="path278"
         style="fill:#86a7ff;fill-opacity:1;fill-rule:nonzero;stroke:none"
         d="m 4541.97,8325.8 -41.61,12.3 228.44,775 41.62,-12.3 -228.45,-775" /><path
         id="path280"
         style="fill:#f9b384;fill-opacity:1;fill-rule:nonzero;stroke:none"
         d="m 8686.08,12441.4 c 0,0 53.49,515.5 101.61,506.8 48.11,-8.7 42.84,-134.7 42.84,-134.7 0,0 112.49,287.5 164.76,287.2 52.26,-0.3 -1.12,-117.5 -1.12,-117.5 0,0 58.11,117.5 101.5,108.5 43.39,-9.1 7.76,-108.8 7.76,-108.8 0,0 45.37,96.3 89.33,79.2 43.97,-17.1 16.35,-96 16.35,-96 0,0 24.04,62.4 65.01,20.8 40.96,-41.6 -169.31,-645.2 -169.31,-645.2 l -296.35,-84.6 -122.38,184.3" /><path
         id="path282"
         style="fill:#3a6bea;fill-opacity:1;fill-rule:nonzero;stroke:none"
         d="m 9106.22,12340 c 0,0 -258.56,-1063.3 -910.59,-1373.9 -152.71,-73.3 -327.11,-105 -524.5,-72 l -116.7,207.8 -765.26,1361.3 267.23,93.7 c 0,0 600.41,-223.8 925.78,-722.7 0,0 303.68,28.6 708.44,636 l 415.6,-130.2" /><path
         id="path284"
         style="fill:#102048;fill-opacity:1;fill-rule:nonzero;stroke:none"
         d="m 8195.63,10966.1 c -152.71,-73.3 -327.11,-105 -524.5,-72 l -116.7,207.8 29.94,508 c 0,0 442.5,-251.2 611.26,-643.8" /><path
         id="path286"
         style="fill:#f9b384;fill-opacity:1;fill-rule:nonzero;stroke:none"
         d="m 5502.01,8914.7 c 0,0 -58.51,-500.5 -109.72,-492.1 -51.21,8.6 -45.01,134.5 -45.01,134.5 0,0 -121.14,-288 -176.81,-288 -55.67,0.1 1.74,117.6 1.74,117.6 0,0 -62.44,-117.8 -108.61,-109 -46.18,8.9 -7.76,108.8 -7.76,108.8 0,0 -48.77,-96.6 -95.52,-79.7 -46.75,16.9 -16.97,96 -16.97,96 0,0 -25.89,-62.6 -69.33,-21.1 -43.43,41.4 183.32,646.2 183.32,646.2 l 316.03,86 128.64,-199.2" /><path
         id="path288"
         style="fill:#3a6bea;fill-opacity:1;fill-rule:nonzero;stroke:none"
         d="M 6539.57,12546.2 C 5256.18,12390.8 4878.38,10612.1 5024.8,8941.9 l 477.21,-29 c 0,0 79.53,1634.1 737.5,2415 l 549.51,1135.2 -249.45,83.1" /><path
         id="path290"
         style="fill:#3a6bea;fill-opacity:1;fill-rule:nonzero;stroke:none"
         d="m 6789.02,12463.1 889.34,-600.2 c 0,0 245.83,-1149.6 231.38,-2169.1 0,0 -1720.84,-636.3 -2574.03,28.9 l 672.42,2183.6 780.89,556.8" /><path
         id="path292"
         style="fill:#102048;fill-opacity:1;fill-rule:nonzero;stroke:none"
         d="m 7299.51,13502.4 c 82.4,287.5 -206.81,623.7 -759.94,338.1 0,0 -549.51,-94 -451.9,-1048.4 l 578.43,-21.7 633.41,732" /><path
         id="path294"
         style="fill:#102048;fill-opacity:1;fill-rule:nonzero;stroke:none"
         d="m 6655.24,13860.3 c 75.61,303.7 -254.33,352.3 -309.32,166.1 -7.34,-24.9 -168.12,63.8 -213.09,-81 -51.55,-166 127.59,-276.5 329.94,-234.9 l 192.47,149.8" /><path
         id="path296"
         style="fill:#f9b384;fill-opacity:1;fill-rule:nonzero;stroke:none"
         d="m 7056.4,13128.3 v -571.4 l -249.45,-350.5 -267.23,339.7 14.31,593 502.37,-10.8" /><path
         id="path298"
         style="fill:#102048;fill-opacity:1;fill-rule:nonzero;stroke:none"
         d="m 7056.4,12933 v -366.5 c -178.73,77.6 -255.52,312.3 -255.52,312.3 l 255.52,54.2" /><path
         id="path300"
         style="fill:#f9b384;fill-opacity:1;fill-rule:nonzero;stroke:none"
         d="m 7299.51,13502.4 c 0,0 177.67,-938.1 -498.47,-623.6 l -222.08,254.9 138.18,515.2 355.35,86.7 227.02,-233.2" /><path
         id="path302"
         style="fill:#102048;fill-opacity:1;fill-rule:nonzero;stroke:none"
         d="m 7299.51,13502.4 c 0,0 -141.74,220.6 -318.88,113.9 -177.15,-106.6 -168.11,-480.8 -352.49,-386.8 -184.37,94 -77.72,383.2 -77.72,383.2 l 271.14,206.1 303.67,-34.4 174.28,-282" /><path
         id="path304"
         style="fill:#f9b384;fill-opacity:1;fill-rule:nonzero;stroke:none"
         d="m 6692.29,13259.3 c 40.43,-70 23.45,-155.5 -37.93,-191 -61.39,-35.4 -143.93,-7.4 -184.36,62.7 -40.43,70 -23.45,155.5 37.94,190.9 61.38,35.5 143.92,7.5 184.35,-62.6" /><path
         id="path306"
         style="fill:#102048;fill-opacity:1;fill-rule:nonzero;stroke:none"
         d="m 6897.48,11899.1 c 0,-47.9 -38.85,-86.8 -86.77,-86.8 -47.92,0 -86.76,38.9 -86.76,86.8 0,47.9 38.84,86.8 86.76,86.8 47.92,0 86.77,-38.9 86.77,-86.8" /><path
         id="path308"
         style="fill:#102048;fill-opacity:1;fill-rule:nonzero;stroke:none"
         d="m 5573.92,9577.6 -42.58,8.3 c 0.62,3.2 63.78,325.1 169.94,685.3 143.21,485.8 292.46,806.4 443.6,953 l 30.2,-31.2 C 5826.1,10854.6 5576.4,9590.3 5573.92,9577.6" /><path
         id="path310"
         style="fill:#102048;fill-opacity:1;fill-rule:nonzero;stroke:none"
         d="m 5413.08,10602 c -79.69,59.7 -266.28,53.5 -268.16,53.5 l -1.61,43.3 c 8.29,0.3 203.95,6.8 295.81,-62.1 l -26.04,-34.7" /><g
         transform="scale(1.53699)"
         id="g312"><path
           id="path314"
           style="fill:#102048;fill-opacity:1;fill-rule:nonzero;stroke:none"
           d="m 15768.4,2162.53 -9.4,-536.24 -122.3,-324.59 h 663.3 l -37.6,874.95 -494,-14.12" /></g><g
         transform="scale(1.44473)"
         id="g316"><path
           id="path318"
           style="fill:#102048;fill-opacity:1;fill-rule:nonzero;stroke:none"
           d="m 15737,2240.63 v -472.96 l -555.5,-382.84 H 16300 l -67.6,908.33 -495.4,-52.53" /></g><g
         transform="scale(1.4113)"
         id="g320"><path
           id="path322"
           style="fill:#ffffff;fill-opacity:1;fill-rule:nonzero;stroke:none"
           d="m 16262.7,1654.43 -171.6,130.66 37.3,48.89 171.6,-130.66 -37.3,-48.89" /></g><g
         transform="scale(1.47799)"
         id="g324"><path
           id="path326"
           style="fill:#3a6bea;fill-opacity:1;fill-rule:nonzero;stroke:none"
           d="m 16300,6725.13 -3,-11.17 -97.4,-384.23 -212.5,-837.42 c -29.7,-133.56 -52,-277.67 -68.4,-428.56 -103.6,-953.04 30.2,-2171.18 99.8,-2696.56 18.2,-137.95 -89.3,-260.08 -228.4,-260.08 h -386.6 c -88.9,0 -169.9,51.36 -208.4,131.53 -492.8,1032.01 -412.6,2573.29 -313.7,2950.49 156.4,596.69 264.1,1486.95 264.1,1486.95 l 328.5,14.07 826,34.98" /></g><g
         transform="scale(1.54929)"
         id="g328"><path
           id="path330"
           style="fill:#3a6bea;fill-opacity:1;fill-rule:nonzero;stroke:none"
           d="m 16255.7,2267.16 c -3.1,-126.51 -106.3,-227.58 -232.9,-227.58 h -315.9 c -116.8,0 -215.6,86.49 -230.8,202.41 -60.1,459.24 -206.8,1616.22 -290,2588.72 -43.4,510.17 -69.2,969.41 -55.7,1250.57 4.7,106.7 15.3,187.57 33,236.05 l 383.6,87.65 390.6,89.03 c 0,0 96.9,-103.36 186,-653.54 92.7,-574.07 176.4,-1635.01 132.1,-3573.31" /></g><g
         transform="scale(1.48171)"
         id="g332"><path
           id="path334"
           style="fill:#102048;fill-opacity:1;fill-rule:nonzero;stroke:none"
           d="m 15837.1,4238.34 c -18.1,374.97 -6.6,694.67 35.2,977.38 13.5,90.98 61.4,173.32 135.1,231.83 l 274.4,218.13 18.2,-22.95 -274.4,-218.13 c -67.8,-53.85 -112,-129.58 -124.3,-213.19 -41.5,-280.76 -53,-598.64 -35,-971.65 l -29.2,-1.42" /></g><g
         transform="scale(1.40829)"
         id="g336"><path
           id="path338"
           style="fill:#102048;fill-opacity:1;fill-rule:nonzero;stroke:none"
           d="m 15797,4331.85 -3.9,30.54 c 193.5,24 359.3,27.41 506.9,10.29 l -3.6,-30.6 c -145.1,16.83 -308.5,13.42 -499.4,-10.23" /></g><g
         transform="scale(1.52806)"
         id="g340"><path
           id="path342"
           style="fill:#102048;fill-opacity:1;fill-rule:nonzero;stroke:none"
           d="m 15836.4,4058.56 -3.5,28.14 c 178.3,22.18 331.1,25.26 467.1,9.49 l -3.3,-28.14 c -133.7,15.44 -284.3,12.37 -460.3,-9.49" /></g><g
         transform="scale(1.45079)"
         id="g344"><path
           id="path346"
           style="fill:#102048;fill-opacity:1;fill-rule:nonzero;stroke:none"
           d="m 15854.1,2501.87 c -255.7,0 -445.2,45.57 -448.1,46.26 l 7.2,29.08 c 4.3,-1.1 439.5,-105.52 879.4,5.86 l 7.4,-29.01 c -155.3,-39.3 -310,-52.19 -445.9,-52.19" /></g><g
         transform="scale(1.54354)"
         id="g348"><path
           id="path350"
           style="fill:#102048;fill-opacity:1;fill-rule:nonzero;stroke:none"
           d="m 15891.7,2349.92 c -38,0 -74,1.17 -106.7,2.85 -155.4,8.17 -273.8,30.97 -275,31.23 l 5.4,27.6 c 4.6,-0.91 467.1,-88.95 774.9,24.88 l 9.7,-26.37 c -127.5,-47.16 -279.5,-60.19 -408.3,-60.19" /></g><g
         transform="scale(1.53253)"
         id="g352"><path
           id="path354"
           style="fill:#1f3c88;fill-opacity:1;fill-rule:nonzero;stroke:none"
           d="m 16300,5904.36 c -180.4,96.25 -429.2,159.09 -676.9,200.13 -111.2,18.66 -222.5,32.56 -327.2,43.33 -331.5,33.67 -597.3,33.67 -597.3,33.67 l 224.8,270.6 796.6,33.73 -2.9,-10.77 394.9,90.01 c 0,0 98,-104.49 188,-660.7" /></g><g
         transform="scale(1.43206)"
         id="g356"><path
           id="path358"
           style="fill:#e28b6d;fill-opacity:1;fill-rule:nonzero;stroke:none"
           d="m 16300,9220.75 v -584.98 h -350.5 v 584.98 h 350.5" /></g><g
         transform="scale(1.41569)"
         id="g360"><path
           id="path362"
           style="fill:#102048;fill-opacity:1;fill-rule:nonzero;stroke:none"
           d="m 16300,9081.29 c 0,0 -35.9,-129.02 -166.1,-217.27 v 258.33 l 166.1,-41.06" /></g><g
         transform="scale(1.42296)"
         id="g364"><path
           id="path366"
           style="fill:#e28b6d;fill-opacity:1;fill-rule:nonzero;stroke:none"
           d="m 15869.5,9580.09 -24.8,-247.8 c 0,0 -115.4,-154.87 -43.4,-154.87 77.5,0 65.1,-30.98 65.1,-30.98 0,0 -43.4,-322.13 350,-111.51 l 83.6,483.21 -430.5,61.95" /></g><g
         transform="scale(1.42013)"
         id="g368"><path
           id="path370"
           style="fill:#102048;fill-opacity:1;fill-rule:nonzero;stroke:none"
           d="m 15901.2,9599.21 c 0,0 107.1,13.97 135,-99.32 27.9,-113.28 65.2,-183.11 159.8,-103.97 l 104,170.7 -178.5,74.49 -220.3,-41.9" /></g><g
         transform="scale(1.44906)"
         id="g372"><path
           id="path374"
           style="fill:#102048;fill-opacity:1;fill-rule:nonzero;stroke:none"
           d="m 15583.7,9407.55 c 0,79.08 93.8,267.68 389.3,217.48 282.5,-47.97 327,-444.09 181,-625.07 0,0 -74.6,-117.1 -174.9,97.34 l -171.9,231.17 -36.4,73 -187.1,6.08" /></g><g
         transform="scale(1.4244)"
         id="g376"><path
           id="path378"
           style="fill:#e28b6d;fill-opacity:1;fill-rule:nonzero;stroke:none"
           d="m 16271.6,9269.51 c -28.5,-49.21 -86.2,-69.01 -129.2,-44.24 -42.9,24.79 -54.6,84.77 -26.3,133.98 28.5,49.21 86.3,69.01 129.2,44.23 42.9,-24.78 54.7,-84.76 26.3,-133.97" /></g><g
         transform="scale(1.58579)"
         id="g380"><path
           id="path382"
           style="fill:#e49b31;fill-opacity:1;fill-rule:nonzero;stroke:none"
           d="m 15214.8,7913.92 c 606.4,-196.05 1085.2,-1016.77 524.3,-1030.44 -560.8,-13.68 -902.7,506.1 -902.7,506.1 l 378.4,524.34" /></g><g
         transform="scale(1.22531)"
         id="g384"><path
           id="path386"
           style="fill:#e28b6d;fill-opacity:1;fill-rule:nonzero;stroke:none"
           d="m 16218.1,9431.99 c 0,0 -387.7,168.97 -400.8,131.28 -13.1,-37.68 78.5,-84.5 78.5,-84.5 0,0 -249.4,35.5 -270.2,-1.76 -20.8,-37.27 83.9,-46.4 83.9,-46.4 0,0 -106.8,5.91 -117.8,-28.56 -10.9,-34.47 74.2,-49.19 74.2,-49.19 0,0 -86.7,6.46 -92.2,-31.65 -5.5,-38.11 61.7,-50.17 61.7,-50.17 0,0 -54.1,7.99 -40.9,-37.83 13.1,-45.82 526.4,-138.78 526.4,-138.78 l 179.1,176.6 -81.9,160.96" /></g><g
         transform="scale(1.5279)"
         id="g388"><path
           id="path390"
           style="fill:#fbc343;fill-opacity:1;fill-rule:nonzero;stroke:none"
           d="m 16114.6,6314.11 -1405.2,-153.35 c -118.4,-12.76 -220.9,81.75 -217.2,201 l 17.6,579.82 8.2,267.19 0.3,6.53 c 0,0 -10.2,-12.22 -30.7,-31.24 l -0.6,-0.57 c -13.3,-12.21 -30.9,-27.26 -52.8,-43.72 -186.5,-140.84 -684,-382.75 -1506,153.61 l 78.1,270.58 887.3,-36.34 c 0,0 397.8,321.42 751.1,542.03 230.8,144.25 498,224.03 770,216.94 122.9,-3.13 255,-22.72 376.8,-72.69 299.5,-123.8 448,-1228.87 496.8,-1684 11.7,-107.67 -66.1,-204.21 -173.7,-215.79" /></g><g
         transform="scale(1.30318)"
         id="g392"><path
           id="path394"
           style="fill:#e49b31;fill-opacity:1;fill-rule:nonzero;stroke:none"
           d="m 16174.5,8519.46 c -30.1,206.71 99,314.59 104.4,319.08 l 21.1,-25.78 c -0.3,-0.25 -30.5,-25.45 -56.9,-73.49 -35.1,-64.09 -47.2,-136.43 -35.6,-215 l -33,-4.81" /></g><g
         transform="scale(1.37265)"
         id="g396"><path
           id="path398"
           style="fill:#e49b31;fill-opacity:1;fill-rule:nonzero;stroke:none"
           d="m 16300,8141.95 c 0,0 -9.8,-254.73 -149.2,-415.28 l 9.2,297.4 c 52.1,42.35 111.9,91.97 140,117.88" /></g><g
         transform="scale(1.38067)"
         id="g400"><path
           id="path402"
           style="fill:#e49b31;fill-opacity:1;fill-rule:nonzero;stroke:none"
           d="m 15744.8,7757.16 -6.1,30.81 c 227.4,45.48 533.7,426.52 536.7,430.37 l 24.6,-19.6 c -0.8,-0.98 -79.5,-99.21 -186,-201.83 -144.2,-138.94 -268.4,-219.6 -369.2,-239.75" /></g><g
         transform="scale(1.75723)"
         id="g404"><path
           id="path406"
           style="fill:#102048;fill-opacity:1;fill-rule:nonzero;stroke:none"
           d="M 16300,1120 H 870.067 v 37.05 H 16300 V 1120" /></g></g></g></svg>