<svg width="500" height="500" viewBox="0 0 500 500" fill="none" xmlns="http://www.w3.org/2000/svg">
<path d="M449.899 398.49H416.779V398.74H449.899V398.49Z" fill="#EBEBEB"/>
<path d="M331.219 401.211H322.529V401.461H331.219V401.211Z" fill="#EBEBEB"/>
<path d="M415.78 389.211H396.59V389.461H415.78V389.211Z" fill="#EBEBEB"/>
<path d="M95.6509 390.891H52.4609V391.141H95.6509V390.891Z" fill="#EBEBEB"/>
<path d="M110.891 390.891H104.561V391.141H110.891V390.891Z" fill="#EBEBEB"/>
<path d="M225.151 395.109H131.471V395.359H225.151V395.109Z" fill="#EBEBEB"/>
<path d="M237.001 337.8H43.9209C42.4066 337.8 40.9542 337.198 39.8834 336.128C38.8125 335.057 38.2109 333.604 38.2109 332.09V60.66C38.2241 59.1543 38.8315 57.7147 39.9009 56.6547C40.9703 55.5947 42.4152 54.9999 43.9209 55H237.001C238.515 55 239.968 55.6016 241.039 56.6724C242.109 57.7433 242.711 59.1956 242.711 60.71V332.09C242.711 333.604 242.109 335.057 241.039 336.128C239.968 337.198 238.515 337.8 237.001 337.8ZM43.9209 55.2C42.4737 55.2026 41.0864 55.7787 40.0631 56.8021C39.0397 57.8255 38.4636 59.2127 38.4609 60.66V332.09C38.4636 333.537 39.0397 334.924 40.0631 335.948C41.0864 336.971 42.4737 337.547 43.9209 337.55H237.001C238.448 337.547 239.835 336.971 240.859 335.948C241.882 334.924 242.458 333.537 242.461 332.09V60.66C242.458 59.2127 241.882 57.8255 240.859 56.8021C239.835 55.7787 238.448 55.2026 237.001 55.2H43.9209Z" fill="#EBEBEB"/>
<path d="M453.31 337.8H260.21C258.696 337.797 257.246 337.195 256.175 336.125C255.105 335.054 254.503 333.604 254.5 332.09V60.66C254.516 59.1551 255.124 57.7171 256.193 56.6576C257.262 55.5981 258.705 55.0025 260.21 55H453.31C454.812 55.0052 456.252 55.6022 457.317 56.6617C458.382 57.7212 458.987 59.1578 459 60.66V332.09C459 333.601 458.401 335.05 457.335 336.121C456.268 337.191 454.821 337.795 453.31 337.8ZM260.21 55.2C258.763 55.2026 257.375 55.7787 256.352 56.8021C255.329 57.8255 254.753 59.2127 254.75 60.66V332.09C254.753 333.537 255.329 334.924 256.352 335.948C257.375 336.971 258.763 337.547 260.21 337.55H453.31C454.757 337.547 456.145 336.971 457.168 335.948C458.191 334.924 458.767 333.537 458.77 332.09V60.66C458.767 59.2127 458.191 57.8255 457.168 56.8021C456.145 55.7787 454.757 55.2026 453.31 55.2H260.21Z" fill="#EBEBEB"/>
<path d="M500 382.4H0V382.65H500V382.4Z" fill="#EBEBEB"/>
<path d="M245.179 423.71C352.262 423.71 439.069 418.642 439.069 412.39C439.069 406.138 352.262 401.07 245.179 401.07C138.097 401.07 51.2891 406.138 51.2891 412.39C51.2891 418.642 138.097 423.71 245.179 423.71Z" fill="#F5F5F5"/>
<path d="M414.449 81.3203H81.8594V274.38H414.449V81.3203Z" fill="#5A8DEE"/>
<path opacity="0.5" d="M414.449 81.3203H81.8594V274.38H414.449V81.3203Z" fill="white"/>
<path d="M81.8594 81.3203V96.8903H137.499V90.8903C137.499 89.4634 138.066 88.095 139.075 87.0861C140.084 86.0771 141.453 85.5103 142.879 85.5103H179.879C180.585 85.5103 181.285 85.6495 181.937 85.92C182.589 86.1905 183.181 86.587 183.68 87.0867C184.179 87.5864 184.574 88.1796 184.843 88.8322C185.113 89.4849 185.251 90.1843 185.249 90.8903V96.8903H414.449V81.3203H81.8594Z" fill="#5A8DEE"/>
<path opacity="0.7" d="M95.7401 89.1013C95.742 89.8102 95.5335 90.5037 95.1409 91.094C94.7483 91.6842 94.1893 92.1446 93.5347 92.4168C92.8801 92.689 92.1595 92.7608 91.4641 92.6229C90.7687 92.4851 90.1299 92.144 89.6286 91.6427C89.1274 91.1414 88.7862 90.5026 88.6484 89.8072C88.5106 89.1118 88.5823 88.3912 88.8545 87.7366C89.1267 87.0821 89.5871 86.5231 90.1774 86.1304C90.7676 85.7378 91.4612 85.5293 92.1701 85.5313C93.1169 85.5313 94.0249 85.9074 94.6944 86.5769C95.3639 87.2464 95.7401 88.1544 95.7401 89.1013Z" fill="white"/>
<path opacity="0.7" d="M106.459 89.1013C106.461 89.8102 106.252 90.5037 105.86 91.094C105.467 91.6842 104.908 92.1446 104.253 92.4168C103.599 92.689 102.878 92.7608 102.183 92.6229C101.487 92.4851 100.849 92.144 100.347 91.6427C99.8461 91.1414 99.5049 90.5026 99.3671 89.8072C99.2293 89.1118 99.3011 88.3912 99.5733 87.7366C99.8455 87.0821 100.306 86.5231 100.896 86.1304C101.486 85.7378 102.18 85.5293 102.889 85.5313C103.836 85.5313 104.744 85.9074 105.413 86.5769C106.083 87.2464 106.459 88.1544 106.459 89.1013Z" fill="white"/>
<path opacity="0.7" d="M117.18 89.1013C117.181 89.8102 116.973 90.5037 116.58 91.094C116.188 91.6842 115.629 92.1446 114.974 92.4168C114.32 92.689 113.599 92.7608 112.904 92.6229C112.208 92.4851 111.569 92.144 111.068 91.6427C110.567 91.1414 110.226 90.5026 110.088 89.8072C109.95 89.1118 110.022 88.3912 110.294 87.7366C110.566 87.0821 111.027 86.5231 111.617 86.1304C112.207 85.7378 112.901 85.5293 113.61 85.5313C114.556 85.5313 115.464 85.9074 116.134 86.5769C116.803 87.2464 117.18 88.1544 117.18 89.1013Z" fill="white"/>
<path opacity="0.3" d="M402.259 126.66H185.279V262.27H402.259V126.66Z" fill="white"/>
<path opacity="0.3" d="M157.3 126.66H93.5098V190.45H157.3V126.66Z" fill="white"/>
<path opacity="0.4" d="M157.3 126.66H93.5098V190.45H157.3V126.66Z" fill="white"/>
<path d="M146.18 207.35H108.42V210.04H146.18V207.35Z" fill="#263238"/>
<path d="M401.049 105.891H337.139V115.681H401.049V105.891Z" fill="#5A8DEE"/>
<path opacity="0.9" d="M401.049 105.891H337.139V115.681H401.049V105.891Z" fill="white"/>
<path d="M402.259 105.891H401.039V115.681H402.259V105.891Z" fill="#5A8DEE"/>
<path d="M250.409 105.891H249.189V115.681H250.409V105.891Z" fill="#5A8DEE"/>
<path d="M249.189 105.891H185.279V115.681H249.189V105.891Z" fill="#5A8DEE"/>
<path opacity="0.9" d="M249.189 105.891H185.279V115.681H249.189V105.891Z" fill="white"/>
<path opacity="0.4" d="M179.609 261.28C178.814 261.28 178.051 260.964 177.488 260.401C176.925 259.838 176.609 259.075 176.609 258.28V220.18C176.609 219.384 176.925 218.621 177.488 218.058C178.051 217.496 178.814 217.18 179.609 217.18C180.405 217.18 181.168 217.496 181.731 218.058C182.293 218.621 182.609 219.384 182.609 220.18V258.28C182.609 259.075 182.293 259.838 181.731 260.401C181.168 260.964 180.405 261.28 179.609 261.28Z" fill="white"/>
<path opacity="0.4" d="M103.56 208.69C103.56 209.634 103.28 210.556 102.755 211.341C102.23 212.126 101.485 212.737 100.613 213.098C99.7404 213.459 98.7808 213.552 97.8553 213.368C96.9297 213.183 96.0798 212.727 95.4131 212.059C94.7464 211.391 94.2929 210.54 94.11 209.614C93.9271 208.688 94.0229 207.729 94.3855 206.858C94.7481 205.986 95.361 205.242 96.1467 204.719C96.9325 204.196 97.8557 203.918 98.7995 203.92C99.4255 203.92 100.045 204.043 100.623 204.283C101.202 204.523 101.727 204.875 102.169 205.318C102.611 205.761 102.961 206.287 103.2 206.865C103.439 207.444 103.561 208.064 103.56 208.69Z" fill="white"/>
<path d="M156.78 222.34H108.42V225.03H156.78V222.34Z" fill="#263238"/>
<path opacity="0.4" d="M103.56 223.69C103.56 224.634 103.28 225.556 102.755 226.341C102.23 227.126 101.485 227.737 100.613 228.098C99.7404 228.459 98.7808 228.552 97.8553 228.368C96.9297 228.183 96.0798 227.727 95.4131 227.059C94.7464 226.391 94.2929 225.54 94.11 224.614C93.9271 223.688 94.0229 222.729 94.3855 221.858C94.7481 220.986 95.361 220.242 96.1467 219.719C96.9325 219.196 97.8557 218.918 98.7995 218.92C100.063 218.923 101.274 219.426 102.166 220.321C103.058 221.215 103.56 222.427 103.56 223.69Z" fill="white"/>
<path d="M150.03 237.34H108.42V240.03H150.03V237.34Z" fill="#263238"/>
<path opacity="0.4" d="M103.56 238.69C103.56 239.634 103.28 240.556 102.755 241.341C102.23 242.126 101.485 242.737 100.613 243.098C99.7404 243.459 98.7808 243.552 97.8553 243.368C96.9297 243.183 96.0798 242.727 95.4131 242.059C94.7464 241.391 94.2929 240.54 94.11 239.614C93.9271 238.688 94.0229 237.729 94.3855 236.858C94.7481 235.986 95.361 235.242 96.1467 234.719C96.9325 234.196 97.8557 233.918 98.7995 233.92C100.063 233.923 101.274 234.426 102.166 235.321C103.058 236.215 103.56 237.427 103.56 238.69Z" fill="white"/>
<path d="M146.18 252.34H108.42V255.03H146.18V252.34Z" fill="#263238"/>
<path opacity="0.4" d="M103.56 253.68C103.562 254.624 103.283 255.548 102.76 256.334C102.236 257.12 101.492 257.733 100.62 258.095C99.7475 258.457 98.7876 258.553 97.8614 258.369C96.9352 258.185 96.0843 257.731 95.4166 257.063C94.7489 256.395 94.2944 255.544 94.1107 254.618C93.927 253.692 94.0223 252.732 94.3845 251.86C94.7468 250.988 95.3597 250.243 96.1457 249.72C96.9316 249.196 97.8553 248.918 98.7995 248.92C100.062 248.92 101.273 249.421 102.165 250.314C103.058 251.207 103.56 252.417 103.56 253.68Z" fill="white"/>
<path d="M397.49 150.73H328.76V214.58H397.49V150.73Z" fill="#5A8DEE"/>
<path opacity="0.9" d="M397.49 150.73H328.76V214.58H397.49V150.73Z" fill="white"/>
<path d="M397.489 214.58H398.889V150.73H397.489V214.58Z" fill="#5A8DEE"/>
<path d="M397.51 198.039H328.74V214.579H397.51V198.039Z" fill="#5A8DEE"/>
<path d="M387.09 156.67H339.16V161.12H387.09V156.67Z" fill="#263238"/>
<path d="M387.09 172.539H339.16V176.989H387.09V172.539Z" fill="#263238"/>
<path d="M387.09 188.41H339.16V192.86H387.09V188.41Z" fill="#263238"/>
<path d="M393.48 203.689H332.77V209.329H393.48V203.689Z" fill="white"/>
<path d="M327.369 104.59H258.639V183.46H327.369V104.59Z" fill="#5A8DEE"/>
<path opacity="0.9" d="M327.369 104.59H258.639V183.46H327.369V104.59Z" fill="white"/>
<path d="M327.36 183.471H328.76V104.601H327.36V183.471Z" fill="#5A8DEE"/>
<path d="M324.959 107H261.049V116.79H324.959V107Z" fill="#5A8DEE"/>
<path d="M327.37 150.73H258.6V167.27H327.37V150.73Z" fill="#5A8DEE"/>
<path d="M316.969 125.551H269.039V130.001H316.969V125.551Z" fill="#263238"/>
<path d="M316.969 141.42H269.039V145.87H316.969V141.42Z" fill="#263238"/>
<path d="M323.36 156.699H262.65V162.339H323.36V156.699Z" fill="white"/>
<path d="M316.969 173.17H269.039V177.62H316.969V173.17Z" fill="#263238"/>
<path d="M177.85 201.449C177.85 201.449 166.14 225.529 171.03 227.509C175.92 229.489 192.4 230.599 192.4 230.599L199.59 237.479L203.75 234.769L202.7 227.769L193.25 225.769L180.63 221.849C180.367 221.761 180.126 221.62 179.921 221.433C179.716 221.247 179.552 221.021 179.439 220.768C179.326 220.515 179.267 220.241 179.266 219.964C179.264 219.688 179.32 219.413 179.43 219.159L185.53 205.779L177.85 201.449Z" fill="#E4897B"/>
<path d="M181.35 192.72C181.275 192.496 181.143 192.296 180.966 192.139C180.79 191.983 180.575 191.876 180.343 191.829C180.112 191.783 179.872 191.798 179.649 191.873C179.425 191.949 179.225 192.083 179.07 192.26C177.85 193.62 176.07 196.36 173.97 201.88L171.84 207.57L182.7 215.05L186.79 208.82L181.35 192.72Z" fill="white"/>
<path opacity="0.2" d="M180.17 199.399L181.36 197.869L183.69 199.629L186.79 208.819L182.7 215.049L180.62 213.619C181.26 207.749 180.17 199.399 180.17 199.399Z" fill="black"/>
<path d="M184.269 214.029L171.839 205.279L170.939 207.969L182.679 216.119L184.269 214.029Z" fill="#5A8DEE"/>
<path opacity="0.5" d="M184.269 214.029L171.839 205.279L170.939 207.969L182.679 216.119L184.269 214.029Z" fill="white"/>
<path d="M183.55 380.58L177.82 400.06L172 399.72L173.23 378.58L183.55 380.58Z" fill="#E4897B"/>
<path d="M213.69 236.379C213.69 236.379 220.76 250.589 213.96 276.719C207.16 302.849 179.96 393.889 179.96 393.889L172.3 392.969C172.3 392.969 171.82 360.299 182.59 333.969C182.59 333.969 187.76 289.149 185.24 278.609C183.48 271.249 182.41 265.089 185.45 253.939C186.638 249.167 188.279 244.519 190.35 240.059C192.35 236.059 191.76 234.549 191.76 234.549L213.69 236.379Z" fill="#5A8DEE"/>
<path opacity="0.5" d="M213.69 236.379C213.69 236.379 220.76 250.589 213.96 276.719C207.16 302.849 179.96 393.889 179.96 393.889L172.3 392.969C172.3 392.969 171.82 360.299 182.59 333.969C182.59 333.969 187.76 289.149 185.24 278.609C183.48 271.249 182.41 265.089 185.45 253.939C186.638 249.167 188.279 244.519 190.35 240.059C192.35 236.059 191.76 234.549 191.76 234.549L213.69 236.379Z" fill="black"/>
<path opacity="0.4" d="M204.64 310C194.82 282.7 197.52 262.89 197.52 262.89L203.67 262.09L208.47 270.63L211.83 284.63C209.92 291.58 207.42 300.39 204.64 310Z" fill="black"/>
<path d="M179.159 400.079C179.122 400.067 179.091 400.044 179.067 400.014C179.044 399.983 179.031 399.947 179.029 399.909C179.024 399.871 179.032 399.832 179.052 399.8C179.072 399.767 179.103 399.742 179.139 399.729C179.269 399.679 182.139 398.469 183.359 398.979C183.474 399.024 183.579 399.091 183.668 399.177C183.758 399.263 183.829 399.365 183.879 399.479C183.95 399.602 183.98 399.745 183.966 399.887C183.952 400.028 183.893 400.162 183.799 400.269C183.089 400.651 182.264 400.761 181.479 400.579C180.692 400.479 179.916 400.311 179.159 400.079ZM179.779 399.899C181.179 400.249 183.119 400.479 183.529 400.019C183.589 399.959 183.649 399.859 183.529 399.619C183.503 399.547 183.46 399.482 183.405 399.43C183.349 399.378 183.282 399.34 183.209 399.319C183.098 399.279 182.984 399.249 182.869 399.229C181.806 399.261 180.759 399.488 179.779 399.899Z" fill="#5A8DEE"/>
<path d="M179.059 400.05C179.035 400.029 179.017 400.003 179.006 399.973C178.996 399.943 178.993 399.911 178.999 399.88C178.999 399.79 179.479 397.74 180.549 397.06C180.846 396.872 181.204 396.805 181.549 396.87C182.039 396.98 182.169 397.25 182.159 397.46C182.219 398.35 180.159 399.78 179.159 400.08H179.089C179.078 400.071 179.068 400.061 179.059 400.05ZM181.439 397.2C181.208 397.172 180.975 397.225 180.779 397.35C180.126 397.941 179.671 398.72 179.479 399.58C180.479 399.13 181.859 397.98 181.879 397.45C181.879 397.4 181.879 397.27 181.539 397.2H181.439Z" fill="#5A8DEE"/>
<path d="M178.499 398.909L170.139 397.909C169.986 397.888 169.83 397.92 169.697 398C169.564 398.08 169.463 398.203 169.409 398.349L167.079 404.999C167.029 405.138 167.006 405.285 167.013 405.433C167.02 405.581 167.056 405.727 167.119 405.86C167.182 405.994 167.271 406.114 167.381 406.214C167.491 406.313 167.62 406.389 167.759 406.439C167.833 406.469 167.91 406.489 167.989 406.499C170.989 406.809 173.709 406.969 177.469 407.429C181.899 407.969 180.709 408.359 185.909 409.069C189.049 409.489 190.059 405.989 188.749 405.649C182.749 404.149 182.339 402.229 180.249 399.769C179.794 399.274 179.17 398.967 178.499 398.909Z" fill="#263238"/>
<path d="M181.659 392.469L171.049 391.139L171.209 394.299L180.569 395.459L181.659 392.469Z" fill="#263238"/>
<path opacity="0.4" d="M181.659 392.469L171.049 391.139L171.209 394.299L180.569 395.459L181.659 392.469Z" fill="black"/>
<path d="M212.89 381.9L210.39 401.31H204.51L203 382.26L212.89 381.9Z" fill="#E4897B"/>
<path d="M222.999 234.199C223.224 235.956 223.703 237.67 224.419 239.289C226.809 245.359 229.419 264.449 228.839 274.109C227.349 301.109 211.379 394.849 211.379 394.849H203.699C203.699 394.849 198.409 362.939 204.699 334.849C204.699 334.849 206.909 295.269 203.619 284.949C201.319 277.769 194.839 270.819 196.499 255.639C198.159 240.459 202.189 235.269 202.189 235.269L222.999 234.199Z" fill="#5A8DEE"/>
<path opacity="0.5" d="M222.999 234.199C223.224 235.956 223.703 237.67 224.419 239.289C226.809 245.359 229.419 264.449 228.839 274.109C227.349 301.109 211.379 394.849 211.379 394.849H203.699C203.699 394.849 198.409 362.939 204.699 334.849C204.699 334.849 206.909 295.269 203.619 284.949C201.319 277.769 194.839 270.819 196.499 255.639C198.159 240.459 202.189 235.269 202.189 235.269L222.999 234.199Z" fill="black"/>
<path d="M190.58 242.15L192.05 239.15L193.59 239.36L192.7 242.48L190.58 242.15Z" fill="#5A8DEE"/>
<path d="M212.799 239.85C216.969 239.6 220.359 239.17 222.529 238.85L223.609 241.94C220.028 242.515 216.42 242.905 212.799 243.11V239.85Z" fill="#5A8DEE"/>
<path d="M195.929 239.59C200.734 240.048 205.566 240.178 210.389 239.98V243.21C208.989 243.21 207.529 243.3 206.009 243.3C202.375 243.302 198.743 243.115 195.129 242.74L195.929 239.59Z" fill="#5A8DEE"/>
<g opacity="0.5">
<path opacity="0.5" d="M190.58 242.15L192.05 239.15L193.59 239.36L192.7 242.48L190.58 242.15Z" fill="white"/>
<path opacity="0.5" d="M212.801 239.85C216.971 239.6 220.361 239.17 222.531 238.85L223.611 241.94C220.03 242.515 216.422 242.905 212.801 243.11V239.85Z" fill="white"/>
<path opacity="0.5" d="M195.131 242.74L195.931 239.59C200.736 240.048 205.568 240.178 210.391 239.98V243.21C208.991 243.21 207.531 243.3 206.011 243.3" fill="white"/>
</g>
<path d="M213 401.129C212.961 401.125 212.926 401.108 212.898 401.08C212.871 401.053 212.854 401.017 212.85 400.979C212.842 400.943 212.845 400.905 212.86 400.871C212.874 400.838 212.899 400.809 212.93 400.789C213.05 400.719 215.71 399.129 217.01 399.459C217.248 399.523 217.455 399.672 217.59 399.879C217.673 399.996 217.717 400.136 217.717 400.279C217.717 400.422 217.673 400.562 217.59 400.679C216.939 401.159 216.135 401.383 215.33 401.309C214.549 401.317 213.77 401.257 213 401.129ZM213.59 400.879C215.03 401.029 216.97 400.979 217.32 400.469C217.32 400.409 217.42 400.299 217.32 400.069C217.281 400.002 217.228 399.945 217.164 399.901C217.099 399.858 217.026 399.83 216.95 399.819C216.834 399.804 216.716 399.804 216.6 399.819C215.532 399.977 214.504 400.337 213.57 400.879H213.59Z" fill="#5A8DEE"/>
<path d="M212.879 401.119C212.85 401.104 212.827 401.081 212.813 401.052C212.798 401.023 212.794 400.99 212.799 400.959C212.799 400.859 212.969 398.779 213.939 397.959C214.216 397.721 214.575 397.602 214.939 397.629C215.449 397.629 215.609 397.919 215.629 398.129C215.809 398.999 213.989 400.699 213.069 401.129C213.058 401.133 213.046 401.136 213.034 401.136C213.022 401.136 213.01 401.133 212.999 401.129C212.959 401.138 212.917 401.134 212.879 401.119ZM214.879 397.969C214.646 397.966 214.421 398.052 214.249 398.209C213.678 398.88 213.329 399.711 213.249 400.589C214.189 400.009 215.389 398.679 215.329 398.159C215.329 398.109 215.329 397.979 214.959 397.959L214.879 397.969Z" fill="#5A8DEE"/>
<path d="M212.169 400.06L203.739 400.22C203.584 400.22 203.435 400.274 203.316 400.373C203.197 400.471 203.117 400.608 203.089 400.76L201.689 407.65C201.658 407.795 201.656 407.944 201.683 408.089C201.71 408.234 201.766 408.373 201.847 408.496C201.928 408.62 202.032 408.726 202.154 408.809C202.276 408.892 202.414 408.951 202.559 408.98H202.799C205.799 408.87 208.539 408.65 212.319 408.59C216.779 408.51 215.659 409.06 220.909 409.04C224.069 409.04 224.579 405.42 223.239 405.27C217.089 404.61 216.419 402.77 214.009 400.61C213.48 400.213 212.828 400.018 212.169 400.06Z" fill="#263238"/>
<path d="M203.249 158.78C203.069 158.17 203.249 157.57 203.659 157.46C204.069 157.35 204.529 157.75 204.709 158.37C204.889 158.99 204.709 159.58 204.299 159.69C203.889 159.8 203.419 159.4 203.249 158.78Z" fill="#263238"/>
<path d="M203.18 159.719L207.9 162.719C207.542 163.269 207.061 163.727 206.495 164.059C205.93 164.391 205.294 164.586 204.64 164.629L203.18 159.719Z" fill="#DE5753"/>
<path d="M201.749 157.64C201.807 157.621 201.86 157.588 201.904 157.545C201.947 157.501 201.98 157.448 201.999 157.39C202.127 156.935 202.36 156.517 202.679 156.17C202.999 155.822 203.396 155.555 203.839 155.39C203.886 155.376 203.929 155.353 203.967 155.323C204.005 155.292 204.036 155.255 204.059 155.212C204.082 155.169 204.097 155.122 204.102 155.074C204.107 155.025 204.103 154.977 204.089 154.93C204.063 154.834 204 154.751 203.914 154.701C203.828 154.65 203.726 154.636 203.629 154.66C203.067 154.86 202.561 155.192 202.152 155.626C201.744 156.061 201.444 156.587 201.279 157.16C201.247 157.252 201.252 157.352 201.293 157.44C201.334 157.528 201.408 157.596 201.499 157.63C201.537 157.65 201.58 157.661 201.623 157.662C201.666 157.664 201.709 157.656 201.749 157.64Z" fill="#263238"/>
<path d="M182.12 165.5C185.28 172.97 186.46 176.2 191.7 178.76C199.01 180.67 208.09 177.09 207.21 168.81C206.43 161.37 201.4 150.43 192.83 149.99C190.943 149.891 189.062 150.278 187.367 151.112C185.672 151.946 184.218 153.2 183.144 154.754C182.071 156.309 181.413 158.113 181.234 159.994C181.054 161.875 181.359 163.77 182.12 165.5Z" fill="#E4897B"/>
<path opacity="0.2" d="M199.53 175.249C199.53 175.249 204.96 176.349 207.11 171.609C206.38 175.419 203.21 177.839 199.4 178.799L198.09 177.879L198.8 175.949L199.53 175.249Z" fill="black"/>
<path d="M189.65 187.65C189.65 187.65 194.35 185.35 190.96 176.39C190.96 176.39 194.71 172.67 198.61 174.25C202.51 175.83 199.23 184.08 203.82 185.35C203.82 185.35 201.43 188.66 189.65 187.65Z" fill="#E4897B"/>
<path d="M198.829 163.579C197.624 162.41 196.535 161.127 195.579 159.749C193.989 157.459 197.699 154.799 197.069 150.559C196.439 146.319 192.069 148.899 192.069 148.899C192.069 148.899 181.469 147.699 180.069 158.709C178.698 160.836 177.978 163.317 177.996 165.848C178.015 168.379 178.773 170.849 180.175 172.955C181.578 175.062 183.565 176.713 185.892 177.707C188.22 178.7 190.787 178.993 193.279 178.549L193.979 178.389C195.36 177.939 196.564 177.065 197.419 175.891C198.274 174.716 198.736 173.301 198.739 171.849L198.829 163.579Z" fill="#263238"/>
<path d="M192 178.699C192 178.699 189.22 179.629 190.3 180.749C191.38 181.869 192 178.699 192 178.699Z" fill="#263238"/>
<path d="M182.84 161.219C182.67 158.709 182.02 156.709 179.51 156.879C177 157.049 176.85 159.119 177.02 161.629C177.19 164.139 177.64 166.149 180.15 165.969C182.66 165.789 183 163.729 182.84 161.219Z" fill="#5A8DEE"/>
<path d="M196.59 163.1C197.352 163.405 198.046 163.857 198.631 164.433C199.217 165.008 199.682 165.693 200 166.45C200.84 168.45 199.09 169.78 197 169.45C195.14 169.16 192.48 167.74 192.51 165.58C192.517 165.103 192.645 164.636 192.882 164.222C193.119 163.808 193.457 163.461 193.865 163.213C194.273 162.965 194.736 162.825 195.213 162.805C195.69 162.785 196.163 162.887 196.59 163.1Z" fill="#E4897B"/>
<path d="M170.3 162.1C170.428 163.883 171.258 165.542 172.608 166.714C173.958 167.885 175.717 168.474 177.5 168.35C181.22 168.09 181.44 165.05 181.18 161.35C180.92 157.65 180.27 154.66 176.56 154.92C174.779 155.046 173.121 155.872 171.947 157.217C170.774 158.563 170.182 160.319 170.3 162.1Z" fill="#263238"/>
<path d="M195.85 147.339C195.15 148.339 194.45 149.789 195.21 150.799C195.64 151.379 196.42 151.579 196.94 152.089C197.46 152.707 197.768 153.474 197.82 154.279C198.302 157.158 198.549 160.071 198.56 162.989C200.56 159.529 202.7 155.869 202.78 151.859C202.84 150.661 202.595 149.468 202.07 148.389C201.798 147.856 201.407 147.393 200.926 147.035C200.446 146.678 199.889 146.437 199.3 146.329C198.12 146.169 195.85 147.339 195.85 147.339Z" fill="#263238"/>
<path d="M206.81 185.819C206.81 185.819 207.27 180.099 196.19 182.409C185.11 184.719 192.55 187.899 192.55 187.899L206.81 185.819Z" fill="#5A8DEE"/>
<path opacity="0.5" d="M206.81 185.819C206.81 185.819 207.27 180.099 196.19 182.409C185.11 184.719 192.55 187.899 192.55 187.899L206.81 185.819Z" fill="white"/>
<path d="M222.81 236.25C210.41 238.66 196.19 237.67 190.98 237.18C189.8 237.06 191.98 223.18 179.46 198.03C178.84 196.877 178.631 195.548 178.865 194.26C179.099 192.972 179.764 191.801 180.75 190.94C189.27 183.89 204.75 184.16 211.85 184.73C213.089 184.817 214.292 185.189 215.364 185.817C216.436 186.445 217.348 187.312 218.03 188.35C220.502 192.537 222.167 197.15 222.94 201.95C223.776 206.516 224.254 211.14 224.37 215.78C224.7 226.76 223.37 236.14 222.81 236.25Z" fill="white"/>
<path opacity="0.2" d="M224.37 215.78C220.37 215.02 214.75 200.27 214.75 200.27L222.94 201.95C223.776 206.515 224.254 211.139 224.37 215.78Z" fill="black"/>
<path d="M221.999 192.39L233.899 199.98C234.112 200.117 234.351 200.209 234.601 200.25C234.851 200.291 235.107 200.28 235.352 200.218C235.598 200.157 235.828 200.045 236.029 199.89C236.23 199.736 236.397 199.542 236.519 199.32L246.179 182L249.679 173L250.679 171.91L256.679 166.83H258.979L254.519 170.83L255.759 172.95L257.759 177.5L249.809 184.5C249.809 184.5 245.189 205.27 240.239 209.7C236.309 213.22 216.529 199.24 216.529 199.24L221.999 192.39Z" fill="#E4897B"/>
<path d="M213.79 185.149C216.88 186.089 223.68 189.149 234.34 199.209L226.5 209.709C223.949 209.141 221.563 207.994 219.525 206.357C217.488 204.721 215.854 202.637 214.75 200.269C212.723 196.014 211.697 191.351 211.75 186.639C211.753 186.394 211.814 186.153 211.926 185.935C212.039 185.717 212.2 185.529 212.398 185.384C212.596 185.24 212.825 185.143 213.066 185.102C213.308 185.061 213.556 185.077 213.79 185.149Z" fill="white"/>
<path d="M233.11 197.07L224.24 209.88L227.21 210.5L235.58 199.07L233.11 197.07Z" fill="#5A8DEE"/>
<path opacity="0.5" d="M233.11 197.07L224.24 209.88L227.21 210.5L235.58 199.07L233.11 197.07Z" fill="white"/>
<path d="M212.889 393.219H202.189L202.779 396.329H212.219L212.889 393.219Z" fill="#263238"/>
<path opacity="0.4" d="M212.889 393.219H202.189L202.779 396.329H212.219L212.889 393.219Z" fill="black"/>
</svg>
