<svg version="1.1" class="highcharts-root" style="font-family:&quot;Lucida Grande&quot;, &quot;Lucida Sans Unicode&quot;, Arial, Helvetica, sans-serif;font-size:12px;" xmlns="http://www.w3.org/2000/svg" width="333" height="190" viewBox="0 0 333 190"><desc>Created with Highcharts 8.2.2</desc><defs><clipPath id="highcharts-8ofszdz-39-"><rect x="0" y="0" width="333" height="190" fill="none"></rect></clipPath></defs><rect fill="#ffffff" class="highcharts-background" x="0" y="0" width="333" height="190" rx="0" ry="0"></rect><rect fill="none" class="highcharts-plot-background" x="0" y="0" width="333" height="190"></rect><g class="highcharts-pane-group" data-z-index="0"></g><rect fill="none" class="highcharts-plot-border" data-z-index="1" x="0" y="0" width="333" height="190"></rect><g class="highcharts-series-group" data-z-index="3"><g class="highcharts-series highcharts-series-0 highcharts-pie-series highcharts-tracker" data-z-index="0.1" opacity="1" transform="translate(0,0) scale(1 1)" style="cursor:pointer;"><path fill="#007bff" d="M 169.48696491496352 25.00000132744878 A 64 64 0 0 1 228.66981817926805 64.60875942818076 L 169.5 89 A 0 0 0 0 0 169.5 89 Z" transform="translate(0,0)" stroke="#ffffff" stroke-width="1" opacity="1" stroke-linejoin="round" class="highcharts-point highcharts-color-0"></path><path fill="#39c088" d="M 228.69417983086805 64.66794143211767 A 64 64 0 0 1 219.4652448724766 128.9934282705728 L 169.5 89 A 0 0 0 0 0 169.5 89 Z" transform="translate(0,0)" stroke="#ffffff" stroke-width="1" opacity="1" stroke-linejoin="round" class="highcharts-point highcharts-color-1"></path><path fill="#3f46ad" d="M 219.42522646825125 129.04337351040527 A 64 64 0 0 1 178.29108256828422 152.39335033958696 L 169.5 89 A 0 0 0 0 0 169.5 89 Z" transform="translate(0,0)" stroke="#ffffff" stroke-width="1" opacity="1" stroke-linejoin="round" class="highcharts-point highcharts-color-2"></path><path fill="#222222" d="M 178.2276848329693 152.40210972401752 A 64 64 0 0 1 126.19438340901226 136.123492778808 L 169.5 89 A 0 0 0 0 0 169.5 89 Z" transform="translate(0,0)" stroke="#ffffff" stroke-width="1" opacity="1" stroke-linejoin="round" class="highcharts-point highcharts-color-3"></path><path fill="#ff7401" d="M 126.14728157689386 136.08016360769017 A 64 64 0 0 1 169.41110528396342 25.00006173651836 L 169.5 89 A 0 0 0 0 0 169.5 89 Z" transform="translate(0,0)" stroke="#ffffff" stroke-width="1" opacity="1" stroke-linejoin="round" class="highcharts-point highcharts-color-4"></path></g><g class="highcharts-markers highcharts-series-0 highcharts-pie-series" data-z-index="0.1" opacity="1" transform="translate(0,0) scale(1 1)"></g></g><text x="167" text-anchor="middle" class="highcharts-title" data-z-index="4" style="color:#333333;font-size:18px;fill:#333333;" y="14"></text><text x="167" text-anchor="middle" class="highcharts-subtitle" data-z-index="4" style="color:#666666;fill:#666666;" y="14"></text><text x="0" text-anchor="start" class="highcharts-caption" data-z-index="4" style="color:#666666;fill:#666666;" y="202"></text><g class="highcharts-data-labels highcharts-series-0 highcharts-pie-series highcharts-tracker" data-z-index="6" opacity="1" transform="translate(0,0) scale(1 1)" style="cursor:pointer;"><path fill="none" class="highcharts-data-label-connector highcharts-color-0" stroke="#007bff" stroke-width="1" d="M 226.83117028534195 10.913838507924183 C 221.83117028534195 10.913838507924183 211.81030789027645 25.86650772981104 208.47002042525463 30.850730803773327 L 205.12973296023281 35.834953877735614"></path><path fill="none" class="highcharts-data-label-connector highcharts-color-1" stroke="#39c088" stroke-width="1" d="M 267.53784954228433 102.41486312070555 C 262.53784954228433 102.41486312070555 244.7220911192937 99.84605954440022 238.78350497829683 98.98979168563179 L 232.84491883729996 98.13352382686335"></path><path fill="none" class="highcharts-data-label-connector highcharts-color-2" stroke="#3f46ad" stroke-width="1" d="M 220.8408760380073 170.78339200614047 C 215.8408760380073 170.78339200614047 206.96709126477185 155.12274247304973 204.0091630070267 149.9025259620195 L 201.05123474928155 144.68230945098927"></path><path fill="none" class="highcharts-data-label-connector highcharts-color-3" stroke="#222222" stroke-width="1" d="M 136.35986644050433 178.6890901016046 C 141.35986644050433 178.6890901016046 146.74840265402483 161.51458348640372 148.54458139186497 155.78974794800342 L 150.3407601297051 150.06491240960312"></path><path fill="none" class="highcharts-data-label-connector highcharts-color-4" stroke="#ff7401" stroke-width="1" d="M 76.94034649501691 54.80486762582571 C 81.94034649501691 54.80486762582571 98.70708865554559 61.352871697476104 104.29600270905514 63.53553972135957 L 109.8849167625647 65.71820774524303"></path><g class="highcharts-label highcharts-data-label highcharts-data-label-color-0" data-z-index="1" transform="translate(232,1)"><text x="5" data-z-index="1" y="16" style="color:#000000;cursor:pointer;font-size:11px;font-weight:bold;fill:#000000;"><tspan x="5" y="16" class="highcharts-text-outline" fill="#FFFFFF" stroke="#FFFFFF" stroke-width="2px" stroke-linejoin="round" style="">0-6 Mo</tspan><tspan x="5" y="16">0-6 Mo</tspan></text></g><g class="highcharts-label highcharts-data-label highcharts-data-label-color-1" data-z-index="1" transform="translate(273,92)"><text x="5" data-z-index="1" y="16" style="color:#000000;cursor:pointer;font-size:11px;font-weight:bold;fill:#000000;"><tspan x="5" y="16" class="highcharts-text-outline" fill="#FFFFFF" stroke="#FFFFFF" stroke-width="2px" stroke-linejoin="round">6-9 Mo</tspan><tspan x="5" y="16">6-9 Mo</tspan></text></g><g class="highcharts-label highcharts-data-label highcharts-data-label-color-2" data-z-index="1" transform="translate(226,161)"><text x="5" data-z-index="1" y="16" style="color:#000000;cursor:pointer;font-size:11px;font-weight:bold;fill:#000000;"><tspan x="5" y="16" class="highcharts-text-outline" fill="#FFFFFF" stroke="#FFFFFF" stroke-width="2px" stroke-linejoin="round" style="">9-12 Mo</tspan><tspan x="5" y="16">9-12 Mo</tspan></text></g><g class="highcharts-label highcharts-data-label highcharts-data-label-color-3" data-z-index="1" transform="translate(74,169)"><text x="5" data-z-index="1" y="16" style="color:#000000;cursor:pointer;font-size:11px;font-weight:bold;fill:#000000;"><tspan x="5" y="16" class="highcharts-text-outline" fill="#FFFFFF" stroke="#FFFFFF" stroke-width="2px" stroke-linejoin="round" style="">12-18 Mo</tspan><tspan x="5" y="16">12-18 Mo</tspan></text></g><g class="highcharts-label highcharts-data-label highcharts-data-label-color-4" data-z-index="1" transform="translate(15,45)"><text x="5" data-z-index="1" y="16" style="color:#000000;cursor:pointer;font-size:11px;font-weight:bold;fill:#000000;"><tspan x="5" y="16" class="highcharts-text-outline" fill="#FFFFFF" stroke="#FFFFFF" stroke-width="2px" stroke-linejoin="round">18-36 Mo</tspan><tspan x="5" y="16">18-36 Mo</tspan></text></g></g><g class="highcharts-legend" data-z-index="7"><rect fill="white" class="highcharts-legend-box" rx="0" ry="0" x="0" y="0" width="8" height="8" visibility="hidden"></rect><g data-z-index="1"><g></g></g></g></svg>