<svg version="1.1" class="highcharts-root" style="font-family:Helvetica;font-size:12px;" xmlns="http://www.w3.org/2000/svg" width="333" height="190" viewBox="0 0 333 190"><desc>Created with Highcharts 8.2.2</desc><defs><clipPath id="highcharts-8ofszdz-15-"><rect x="0" y="0" width="292" height="145" fill="none"></rect></clipPath></defs><rect fill="#ffffff" class="highcharts-background" x="0" y="0" width="333" height="190" rx="0" ry="0"></rect><rect fill="none" class="highcharts-plot-background" x="31" y="10" width="292" height="145"></rect><g class="highcharts-pane-group" data-z-index="0"></g><g class="highcharts-grid highcharts-xaxis-grid" data-z-index="1"><path fill="none" data-z-index="1" class="highcharts-grid-line" d="M 176.5 10 L 176.5 155" opacity="1"></path><path fill="none" data-z-index="1" class="highcharts-grid-line" d="M 322.5 10 L 322.5 155" opacity="1"></path><path fill="none" data-z-index="1" class="highcharts-grid-line" d="M 30.5 10 L 30.5 155" opacity="1"></path></g><g class="highcharts-grid highcharts-yaxis-grid" data-z-index="1"><path fill="none" stroke="#e6e6e6" stroke-width="1" data-z-index="1" class="highcharts-grid-line" d="M 31 155.5 L 323 155.5" opacity="1"></path><path fill="none" stroke="#e6e6e6" stroke-width="1" data-z-index="1" class="highcharts-grid-line" d="M 31 107.5 L 323 107.5" opacity="1"></path><path fill="none" stroke="#e6e6e6" stroke-width="1" data-z-index="1" class="highcharts-grid-line" d="M 31 58.5 L 323 58.5" opacity="1"></path><path fill="none" stroke="#e6e6e6" stroke-width="1" data-z-index="1" class="highcharts-grid-line" d="M 31 9.5 L 323 9.5" opacity="1"></path></g><rect fill="none" class="highcharts-plot-border" data-z-index="1" x="31" y="10" width="292" height="145"></rect><g class="highcharts-axis highcharts-xaxis" data-z-index="2"><path fill="none" class="highcharts-axis-line" stroke="#ccd6eb" stroke-width="1" data-z-index="7" d="M 31 155.5 L 323 155.5"></path></g><g class="highcharts-axis highcharts-yaxis" data-z-index="2"><path fill="none" class="highcharts-axis-line" data-z-index="7" d="M 31 10 L 31 155"></path></g><g class="highcharts-series-group" data-z-index="3"><g class="highcharts-series highcharts-series-0 highcharts-column-series highcharts-tracker" data-z-index="0.1" opacity="1" transform="translate(31,10) scale(1 1)" clip-path="url(https://portal.dentalintel.com/huddlev2#highcharts-8ofszdz-15-)"><rect x="37.5" y="48.5" width="71" height="97" fill="rgb(0,123,255)" stroke="#ffffff" stroke-width="1" opacity="1" class="highcharts-point highcharts-color-0"></rect><rect x="183.5" y="48.5" width="71" height="97" fill="#667b98" stroke="#ffffff" stroke-width="1" opacity="1" class="highcharts-point highcharts-color-1"></rect></g><g class="highcharts-markers highcharts-series-0 highcharts-column-series" data-z-index="0.1" opacity="1" transform="translate(31,10) scale(1 1)" clip-path="none"></g></g><text x="167" text-anchor="middle" class="highcharts-title" data-z-index="4" style="color:#333333;font-size:18px;fill:#333333;" y="24"></text><text x="167" text-anchor="middle" class="highcharts-subtitle" data-z-index="4" style="color:#666666;fill:#666666;" y="24"></text><text x="10" text-anchor="start" class="highcharts-caption" data-z-index="4" style="color:#666666;fill:#666666;" y="187"></text><g class="highcharts-axis-labels highcharts-xaxis-labels" data-z-index="7"><text x="104" style="color:#666666;cursor:default;font-size:11px;fill:#666666;" text-anchor="middle" transform="translate(0,0)" y="174" opacity="1">Patients</text><text x="250" style="color:#666666;cursor:default;font-size:11px;fill:#666666;" text-anchor="middle" transform="translate(0,0)" y="174" opacity="1">Reappointed</text></g><g class="highcharts-axis-labels highcharts-yaxis-labels" data-z-index="7"><text x="16" style="color:#666666;cursor:default;font-size:11px;fill:#666666;" text-anchor="end" transform="translate(0,0)" y="160" opacity="1">0</text><text x="16" style="color:#666666;cursor:default;font-size:11px;fill:#666666;" text-anchor="end" transform="translate(0,0)" y="112" opacity="1">1</text><text x="16" style="color:#666666;cursor:default;font-size:11px;fill:#666666;" text-anchor="end" transform="translate(0,0)" y="63" opacity="1">2</text><text x="16" style="color:#666666;cursor:default;font-size:11px;fill:#666666;" text-anchor="end" transform="translate(0,0)" y="15" opacity="1">3</text></g><g class="highcharts-label highcharts-tooltip highcharts-color-0" style="white-space:nowrap;pointer-events:none;" data-z-index="8" transform="translate(93,-9999)" opacity="0" visibility="hidden"><path fill="none" class="highcharts-label-box highcharts-tooltip-box highcharts-shadow" d="M 3.5 0.5 L 20.5 0.5 C 23.5 0.5 23.5 0.5 23.5 3.5 L 23.5 26.5 C 23.5 29.5 23.5 29.5 20.5 29.5 L 16.5 29.5 L 10.5 35.5 L 4.5 29.5 L 3.5 29.5 C 0.5 29.5 0.5 29.5 0.5 26.5 L 0.5 3.5 C 0.5 0.5 0.5 0.5 3.5 0.5" stroke="#000000" stroke-opacity="0.049999999999999996" stroke-width="5" transform="translate(1, 1)"></path><path fill="none" class="highcharts-label-box highcharts-tooltip-box highcharts-shadow" d="M 3.5 0.5 L 20.5 0.5 C 23.5 0.5 23.5 0.5 23.5 3.5 L 23.5 26.5 C 23.5 29.5 23.5 29.5 20.5 29.5 L 16.5 29.5 L 10.5 35.5 L 4.5 29.5 L 3.5 29.5 C 0.5 29.5 0.5 29.5 0.5 26.5 L 0.5 3.5 C 0.5 0.5 0.5 0.5 3.5 0.5" stroke="#000000" stroke-opacity="0.09999999999999999" stroke-width="3" transform="translate(1, 1)"></path><path fill="none" class="highcharts-label-box highcharts-tooltip-box highcharts-shadow" d="M 3.5 0.5 L 20.5 0.5 C 23.5 0.5 23.5 0.5 23.5 3.5 L 23.5 26.5 C 23.5 29.5 23.5 29.5 20.5 29.5 L 16.5 29.5 L 10.5 35.5 L 4.5 29.5 L 3.5 29.5 C 0.5 29.5 0.5 29.5 0.5 26.5 L 0.5 3.5 C 0.5 0.5 0.5 0.5 3.5 0.5" stroke="#000000" stroke-opacity="0.15" stroke-width="1" transform="translate(1, 1)"></path><path fill="rgba(247,247,247,0.85)" class="highcharts-label-box highcharts-tooltip-box" d="M 3.5 0.5 L 20.5 0.5 C 23.5 0.5 23.5 0.5 23.5 3.5 L 23.5 26.5 C 23.5 29.5 23.5 29.5 20.5 29.5 L 16.5 29.5 L 10.5 35.5 L 4.5 29.5 L 3.5 29.5 C 0.5 29.5 0.5 29.5 0.5 26.5 L 0.5 3.5 C 0.5 0.5 0.5 0.5 3.5 0.5" stroke="#007bff" stroke-width="1"></path><text x="8" data-z-index="1" y="20" style="color:#333333;cursor:default;font-size:12px;fill:#333333;"><tspan>2</tspan></text></g></svg>