<svg width="90" height="90" viewBox="0 0 90 90" fill="none" xmlns="http://www.w3.org/2000/svg">
<circle cx="45" cy="45" r="45" fill="white"/>
<path d="M58.5109 60.9714C54.8688 64.0476 50.1438 65.9999 45.0004 65.9999C37.3469 65.9999 30.6284 61.7835 26.9863 55.6312L28.3499 49.3458L34.3938 48.2238C35.7965 52.7518 40.0292 56.0741 45.0004 56.0741C47.412 56.0741 49.6516 55.3113 51.4973 53.9577L57.3051 54.8437L58.5109 60.9714Z" fill="#59C36A"/>
<path d="M58.5105 60.9716L57.3047 54.8438L51.4969 53.9579C49.6512 55.3114 47.4116 56.0743 45 56.0743V66.0001C50.1434 66.0001 54.8684 64.0477 58.5105 60.9716Z" fill="#00A66C"/>
<path d="M33.9258 45C33.9258 46.1319 34.098 47.2147 34.3934 48.2238L26.9859 55.6312C25.1402 52.5304 24 48.8882 24 45C24 41.1116 25.1402 37.4695 26.9859 34.3687L32.931 35.3919L34.3934 41.7761C34.098 42.785 33.9258 43.8679 33.9258 45Z" fill="#FFDA2D"/>
<path d="M66 45C66 51.3984 63.0388 57.1324 58.5105 60.9715L51.4969 53.9578C52.9241 52.9241 54.1301 51.546 54.9176 49.9219H45C44.3109 49.9219 43.7695 49.3804 43.7695 48.6914V41.3086C43.7695 40.6194 44.3109 40.0781 45 40.0781H64.425C65.0156 40.0781 65.5324 40.4964 65.6309 41.087C65.877 42.3668 66 43.6956 66 45Z" fill="#4086F4"/>
<path d="M54.9177 49.9219C54.1302 51.546 52.9241 52.9241 51.497 53.9578L58.5105 60.9715C63.0388 57.1324 66 51.3984 66 45C66 43.6956 65.877 42.3668 65.6308 41.087C65.5324 40.4964 65.0155 40.0781 64.4249 40.0781H45V49.9219H54.9177Z" fill="#4175DF"/>
<path d="M58.8555 29.8652C58.8801 30.2097 58.7324 30.5297 58.5109 30.7757L53.2445 36.0175C52.8263 36.4605 52.1372 36.5097 51.645 36.1405C49.7007 34.6887 47.412 33.9258 45.0004 33.9258C40.0292 33.9258 35.7965 37.248 34.3937 41.7762L26.9863 34.3687C30.6284 28.2164 37.3469 24 45.0004 24C49.8977 24 54.6719 25.8047 58.4125 28.9546C58.6832 29.1762 58.8309 29.5206 58.8555 29.8652Z" fill="#FF641A"/>
<path d="M51.6445 36.1405C52.1367 36.5098 52.8257 36.4605 53.2441 36.0175L58.5105 30.7757C58.732 30.5297 58.8797 30.2098 58.855 29.8652C58.8303 29.5205 58.6827 29.1762 58.412 28.9546C54.6715 25.8047 49.8973 24 45 24V33.9258C47.4116 33.9258 49.7003 34.6887 51.6445 36.1405Z" fill="#F03800"/>
</svg>
