<svg width="500" height="500" viewBox="0 0 500 500" fill="none" xmlns="http://www.w3.org/2000/svg">
<path d="M249.999 427.56C357.082 427.56 443.889 422.492 443.889 416.24C443.889 409.988 357.082 404.92 249.999 404.92C142.917 404.92 56.1094 409.988 56.1094 416.24C56.1094 422.492 142.917 427.56 249.999 427.56Z" fill="#F5F5F5"/>
<path d="M380.049 140.84H168.969C166.561 140.84 164.609 142.792 164.609 145.2V339.21C164.609 341.618 166.561 343.57 168.969 343.57H380.049C382.457 343.57 384.409 341.618 384.409 339.21V145.2C384.409 142.792 382.457 140.84 380.049 140.84Z" fill="#5A8DEE"/>
<path opacity="0.4" d="M380.049 140.84H168.969C166.561 140.84 164.609 142.792 164.609 145.2V339.21C164.609 341.618 166.561 343.57 168.969 343.57H380.049C382.457 343.57 384.409 341.618 384.409 339.21V145.2C384.409 142.792 382.457 140.84 380.049 140.84Z" fill="white"/>
<path opacity="0.6" d="M167 181.61V338.31C167.003 339.065 167.304 339.788 167.838 340.322C168.372 340.856 169.095 341.157 169.85 341.16H379.14C379.895 341.157 380.618 340.856 381.152 340.322C381.686 339.788 381.987 339.065 381.99 338.31V181.61H167Z" fill="white"/>
<path d="M194.008 153.96H178.238V169.73H194.008V153.96Z" fill="white"/>
<path d="M193.998 170.23H178.238C178.106 170.227 177.981 170.174 177.888 170.081C177.794 169.987 177.741 169.862 177.738 169.73V154C177.738 153.867 177.791 153.74 177.885 153.646C177.978 153.553 178.106 153.5 178.238 153.5H193.998C194.131 153.5 194.258 153.553 194.352 153.646C194.446 153.74 194.498 153.867 194.498 154V169.77C194.488 169.896 194.431 170.013 194.338 170.098C194.246 170.183 194.124 170.23 193.998 170.23ZM178.728 169.23H193.498V154.46H178.738L178.728 169.23Z" fill="#5A8DEE"/>
<path opacity="0.6" d="M364.07 191.97H205.46C204.416 191.97 203.57 192.816 203.57 193.86V210.64C203.57 211.684 204.416 212.53 205.46 212.53H364.07C365.114 212.53 365.96 211.684 365.96 210.64V193.86C365.96 192.816 365.114 191.97 364.07 191.97Z" fill="#5A8DEE"/>
<g opacity="0.6">
<path opacity="0.6" d="M194.008 195.03H178.238V210.8H194.008V195.03Z" fill="white"/>
<path opacity="0.6" d="M193.998 211.29H178.238C178.106 211.29 177.978 211.237 177.885 211.144C177.791 211.05 177.738 210.923 177.738 210.79V195C177.738 194.867 177.791 194.74 177.885 194.646C177.978 194.553 178.106 194.5 178.238 194.5H193.998C194.131 194.5 194.258 194.553 194.352 194.646C194.446 194.74 194.498 194.867 194.498 195V210.76C194.502 210.828 194.492 210.896 194.469 210.961C194.446 211.025 194.41 211.083 194.363 211.133C194.316 211.183 194.26 211.222 194.197 211.249C194.134 211.276 194.067 211.29 193.998 211.29ZM178.728 210.29H193.498V195.53H178.738L178.728 210.29Z" fill="#5A8DEE"/>
</g>
<path d="M358.128 207.71H349.488V196.32H358.128V207.71ZM350.488 206.71H357.128V197.32H350.488V206.71Z" fill="white"/>
<path d="M359.796 198.28L354.656 203.534L355.371 204.233L360.511 198.979L359.796 198.28Z" fill="white"/>
<path opacity="0.6" d="M364.551 220.25H205.941C204.897 220.25 204.051 221.096 204.051 222.14V238.92C204.051 239.964 204.897 240.81 205.941 240.81H364.551C365.595 240.81 366.441 239.964 366.441 238.92V222.14C366.441 221.096 365.595 220.25 364.551 220.25Z" fill="#5A8DEE"/>
<g opacity="0.6">
<path opacity="0.6" d="M194.5 223.3H178.73V239.07H194.5V223.3Z" fill="white"/>
<path opacity="0.6" d="M194.5 239.57H178.73C178.598 239.57 178.471 239.517 178.377 239.424C178.283 239.33 178.23 239.203 178.23 239.07V223.3C178.23 223.167 178.283 223.04 178.377 222.946C178.471 222.853 178.598 222.8 178.73 222.8H194.5C194.632 222.803 194.758 222.856 194.851 222.949C194.944 223.042 194.998 223.168 195 223.3V239.07C195 239.203 194.948 239.33 194.854 239.424C194.76 239.517 194.633 239.57 194.5 239.57ZM179.23 238.57H194V223.8H179.23V238.57Z" fill="#5A8DEE"/>
</g>
<path d="M358.62 236H350V224.6H358.64L358.62 236ZM351 235H357.64V225.6H351V235Z" fill="white"/>
<path d="M360.276 226.558L355.137 231.812L355.852 232.512L360.991 227.258L360.276 226.558Z" fill="white"/>
<path opacity="0.6" d="M365.039 248.52H206.429C205.385 248.52 204.539 249.366 204.539 250.41V267.19C204.539 268.234 205.385 269.08 206.429 269.08H365.039C366.083 269.08 366.929 268.234 366.929 267.19V250.41C366.929 249.366 366.083 248.52 365.039 248.52Z" fill="#5A8DEE"/>
<g opacity="0.6">
<path opacity="0.6" d="M194.989 251.58H179.219V267.35H194.989V251.58Z" fill="white"/>
<path opacity="0.6" d="M194.999 267.85H179.219C179.086 267.85 178.959 267.797 178.865 267.704C178.771 267.61 178.719 267.483 178.719 267.35V251.58C178.719 251.447 178.771 251.32 178.865 251.226C178.959 251.133 179.086 251.08 179.219 251.08H194.999C195.131 251.08 195.259 251.133 195.352 251.226C195.446 251.32 195.499 251.447 195.499 251.58V267.35C195.496 267.482 195.443 267.607 195.349 267.701C195.256 267.794 195.131 267.847 194.999 267.85ZM179.729 266.85H194.499V252.08H179.719L179.729 266.85Z" fill="#5A8DEE"/>
</g>
<path d="M359.109 264.26H350.469V252.87H359.109V264.26ZM351.469 263.26H358.109V253.87H351.469V263.26Z" fill="white"/>
<path d="M360.773 254.834L355.633 260.088L356.348 260.787L361.487 255.533L360.773 254.834Z" fill="white"/>
<path opacity="0.6" d="M365.531 276.8H206.921C205.877 276.8 205.031 277.646 205.031 278.69V295.47C205.031 296.514 205.877 297.36 206.921 297.36H365.531C366.575 297.36 367.421 296.514 367.421 295.47V278.69C367.421 277.646 366.575 276.8 365.531 276.8Z" fill="#5A8DEE"/>
<g opacity="0.6">
<path opacity="0.6" d="M195.481 279.86H179.711V295.63H195.481V279.86Z" fill="white"/>
<path opacity="0.6" d="M195.471 296.12H179.711C179.578 296.12 179.451 296.067 179.357 295.974C179.264 295.88 179.211 295.753 179.211 295.62V279.86C179.211 279.727 179.264 279.6 179.357 279.506C179.451 279.413 179.578 279.36 179.711 279.36H195.471C195.604 279.36 195.731 279.413 195.824 279.506C195.918 279.6 195.971 279.727 195.971 279.86V295.62C195.971 295.753 195.918 295.88 195.824 295.974C195.731 296.067 195.604 296.12 195.471 296.12ZM180.211 295.12H195.001V280.36H180.211V295.12Z" fill="#5A8DEE"/>
</g>
<path d="M359.6 292.54H351V281.15H359.65L359.6 292.54ZM351.95 291.54H358.6V282.15H352L351.95 291.54Z" fill="white"/>
<path d="M361.257 283.117L356.117 288.371L356.832 289.07L361.972 283.816L361.257 283.117Z" fill="white"/>
<path opacity="0.6" d="M366.02 305.08H207.41C206.366 305.08 205.52 305.926 205.52 306.97V323.75C205.52 324.794 206.366 325.64 207.41 325.64H366.02C367.063 325.64 367.91 324.794 367.91 323.75V306.97C367.91 305.926 367.063 305.08 366.02 305.08Z" fill="#5A8DEE"/>
<g opacity="0.6">
<path opacity="0.6" d="M195.958 308.13H180.188V323.9H195.958V308.13Z" fill="white"/>
<path opacity="0.6" d="M195.997 324.4H180.188C180.055 324.4 179.928 324.347 179.834 324.254C179.74 324.16 179.688 324.033 179.688 323.9V308.13C179.69 307.998 179.744 307.872 179.837 307.779C179.93 307.686 180.056 307.633 180.188 307.63H195.997C196.13 307.63 196.257 307.683 196.351 307.776C196.445 307.87 196.497 307.997 196.497 308.13V323.9C196.497 324.033 196.445 324.16 196.351 324.254C196.257 324.347 196.13 324.4 195.997 324.4ZM180.727 323.4H195.497V308.63H180.688L180.727 323.4Z" fill="#5A8DEE"/>
</g>
<path d="M360.087 320.82H351.438V309.42H360.087V320.82ZM352.438 319.82H359.087V310.42H352.438V319.82Z" fill="white"/>
<path d="M361.737 311.395L356.598 316.649L357.312 317.349L362.452 312.095L361.737 311.395Z" fill="white"/>
<path d="M355.739 152.26H285.859C280.613 152.26 276.359 156.511 276.359 161.755C276.359 166.999 280.613 171.25 285.859 171.25H355.739C360.986 171.25 365.239 166.999 365.239 161.755C365.239 156.511 360.986 152.26 355.739 152.26Z" fill="white"/>
<path d="M352.208 164.15C351.653 164.151 351.107 164.015 350.618 163.754C350.128 163.493 349.71 163.116 349.402 162.655C349.093 162.194 348.903 161.664 348.848 161.112C348.794 160.56 348.876 160.004 349.088 159.491C349.3 158.979 349.636 158.526 350.064 158.175C350.493 157.823 351.002 157.582 351.546 157.474C352.09 157.366 352.652 157.394 353.183 157.556C353.714 157.717 354.196 158.007 354.588 158.4C355.058 158.871 355.378 159.471 355.508 160.124C355.637 160.777 355.57 161.454 355.316 162.069C355.061 162.684 354.63 163.21 354.077 163.58C353.524 163.951 352.874 164.149 352.208 164.15ZM352.208 158.42C351.748 158.428 351.3 158.569 350.92 158.827C350.539 159.085 350.241 159.448 350.063 159.872C349.885 160.296 349.834 160.763 349.917 161.215C349.999 161.668 350.212 162.086 350.528 162.42C350.981 162.848 351.58 163.086 352.203 163.086C352.826 163.086 353.425 162.848 353.878 162.42C354.194 162.087 354.406 161.669 354.489 161.217C354.572 160.766 354.522 160.3 354.345 159.876C354.168 159.453 353.872 159.09 353.493 158.831C353.113 158.572 352.667 158.43 352.208 158.42Z" fill="#5A8DEE"/>
<path d="M358.288 167.37C358.153 167.37 358.023 167.316 357.928 167.22L353.878 163.16C353.83 163.115 353.792 163.061 353.766 163.001C353.74 162.94 353.727 162.876 353.727 162.81C353.727 162.744 353.74 162.679 353.766 162.619C353.792 162.559 353.83 162.505 353.878 162.46C353.925 162.413 353.98 162.376 354.041 162.351C354.102 162.325 354.167 162.312 354.233 162.312C354.299 162.312 354.364 162.325 354.425 162.351C354.486 162.376 354.542 162.413 354.588 162.46L358.638 166.46C358.685 166.506 358.722 166.562 358.748 166.623C358.773 166.684 358.786 166.749 358.786 166.815C358.786 166.881 358.773 166.946 358.748 167.007C358.722 167.068 358.685 167.123 358.638 167.17C358.597 167.226 358.544 167.272 358.484 167.307C358.424 167.341 358.357 167.363 358.288 167.37Z" fill="#5A8DEE"/>
<rect x="211" y="151" width="19" height="18.0952" rx="5" fill="#5A8DEE"/>
<path d="M223.141 160.424H220.879V162.686H220.125V160.424H217.863V159.67H220.125V157.409H220.879V159.67H223.141V160.424Z" fill="white"/>
<path d="M127.838 201.45C127.838 201.45 116.128 225.53 121.018 227.51C125.908 229.49 142.388 230.6 142.388 230.6L149.578 237.48L153.738 234.77L152.688 227.77L143.238 225.77L130.618 221.85C130.356 221.762 130.114 221.62 129.909 221.434C129.704 221.248 129.54 221.021 129.428 220.768C129.315 220.516 129.256 220.242 129.254 219.965C129.252 219.688 129.308 219.414 129.418 219.16L135.518 205.78L127.838 201.45Z" fill="#E4897B"/>
<path d="M131.338 192.72C131.264 192.496 131.131 192.296 130.955 192.139C130.778 191.983 130.563 191.876 130.331 191.829C130.1 191.782 129.86 191.798 129.637 191.873C129.413 191.949 129.214 192.082 129.058 192.26C127.838 193.62 126.058 196.36 123.958 201.88L121.828 207.57L132.688 215.05L136.778 208.82L131.338 192.72Z" fill="white"/>
<path opacity="0.2" d="M130.156 199.4L131.346 197.87L133.676 199.63L136.776 208.82L132.686 215.05L130.606 213.62C131.246 207.75 130.156 199.4 130.156 199.4Z" fill="black"/>
<path d="M134.26 214.03L121.83 205.28L120.93 207.97L132.67 216.12L134.26 214.03Z" fill="#5A8DEE"/>
<path opacity="0.5" d="M134.26 214.03L121.83 205.28L120.93 207.97L132.67 216.12L134.26 214.03Z" fill="white"/>
<path d="M133.538 380.58L127.808 400.06L121.988 399.72L123.218 378.58L133.538 380.58Z" fill="#E4897B"/>
<path d="M163.678 236.38C163.678 236.38 170.748 250.59 163.948 276.72C157.148 302.85 129.948 393.89 129.948 393.89L122.288 392.97C122.288 392.97 121.808 360.3 132.578 333.97C132.578 333.97 137.748 289.15 135.228 278.61C133.468 271.25 132.398 265.09 135.438 253.94C136.627 249.168 138.268 244.52 140.338 240.06C142.338 236.06 141.748 234.55 141.748 234.55L163.678 236.38Z" fill="#5A8DEE"/>
<path opacity="0.5" d="M163.678 236.38C163.678 236.38 170.748 250.59 163.948 276.72C157.148 302.85 129.948 393.89 129.948 393.89L122.288 392.97C122.288 392.97 121.808 360.3 132.578 333.97C132.578 333.97 137.748 289.15 135.228 278.61C133.468 271.25 132.398 265.09 135.438 253.94C136.627 249.168 138.268 244.52 140.338 240.06C142.338 236.06 141.748 234.55 141.748 234.55L163.678 236.38Z" fill="black"/>
<path opacity="0.4" d="M154.628 310C144.808 282.7 147.508 262.89 147.508 262.89L153.658 262.09L158.458 270.63L161.818 284.63C159.908 291.58 157.408 300.39 154.628 310Z" fill="black"/>
<path d="M129.147 400.08C129.111 400.068 129.079 400.045 129.056 400.015C129.032 399.985 129.019 399.948 129.017 399.91C129.012 399.872 129.021 399.833 129.041 399.801C129.061 399.768 129.091 399.743 129.127 399.73C129.257 399.68 132.127 398.47 133.347 398.98C133.462 399.025 133.568 399.092 133.657 399.178C133.746 399.264 133.817 399.366 133.867 399.48C133.938 399.603 133.969 399.746 133.954 399.888C133.94 400.03 133.881 400.163 133.787 400.27C133.077 400.652 132.252 400.763 131.467 400.58C130.681 400.48 129.905 400.312 129.147 400.08ZM129.767 399.9C131.167 400.25 133.107 400.48 133.517 400.02C133.577 399.96 133.637 399.86 133.517 399.62C133.491 399.548 133.449 399.483 133.393 399.431C133.337 399.379 133.27 399.341 133.197 399.32C133.086 399.281 132.972 399.251 132.857 399.23C131.794 399.262 130.747 399.489 129.767 399.9Z" fill="#5A8DEE"/>
<path d="M129.047 400.05C129.023 400.029 129.005 400.003 128.995 399.973C128.984 399.943 128.982 399.911 128.987 399.88C128.987 399.79 129.467 397.74 130.537 397.06C130.835 396.872 131.192 396.805 131.537 396.87C132.027 396.98 132.157 397.25 132.147 397.46C132.207 398.35 130.147 399.78 129.147 400.08H129.077C129.066 400.071 129.056 400.061 129.047 400.05ZM131.427 397.2C131.197 397.172 130.963 397.225 130.767 397.35C130.114 397.941 129.66 398.72 129.467 399.58C130.467 399.13 131.847 397.98 131.867 397.45C131.867 397.4 131.867 397.27 131.527 397.2H131.427Z" fill="#5A8DEE"/>
<path d="M128.488 398.91L120.128 397.91C119.974 397.889 119.818 397.921 119.685 398.001C119.553 398.081 119.451 398.204 119.398 398.35L117.068 405C117.017 405.139 116.994 405.287 117.001 405.435C117.008 405.583 117.044 405.728 117.107 405.862C117.17 405.996 117.26 406.116 117.37 406.215C117.48 406.314 117.608 406.391 117.748 406.44C117.821 406.471 117.899 406.491 117.978 406.5C120.978 406.81 123.698 406.97 127.458 407.43C131.888 407.97 130.698 408.36 135.898 409.07C139.038 409.49 140.048 405.99 138.738 405.65C132.738 404.15 132.328 402.23 130.238 399.77C129.782 399.275 129.158 398.969 128.488 398.91Z" fill="#263238"/>
<path d="M131.649 392.47L121.039 391.14L121.199 394.3L130.559 395.46L131.649 392.47Z" fill="#263238"/>
<path opacity="0.4" d="M131.649 392.47L121.039 391.14L121.199 394.3L130.559 395.46L131.649 392.47Z" fill="black"/>
<path d="M162.878 381.9L160.378 401.31H154.498L152.988 382.26L162.878 381.9Z" fill="#E4897B"/>
<path d="M172.988 234.2C173.213 235.956 173.691 237.671 174.408 239.29C176.798 245.36 179.408 264.45 178.827 274.11C177.337 301.11 161.368 394.85 161.368 394.85H153.688C153.688 394.85 148.398 362.94 154.688 334.85C154.688 334.85 156.897 295.27 153.607 284.95C151.307 277.77 144.828 270.82 146.488 255.64C148.148 240.46 152.178 235.27 152.178 235.27L172.988 234.2Z" fill="#5A8DEE"/>
<path opacity="0.5" d="M172.988 234.2C173.213 235.956 173.691 237.671 174.408 239.29C176.798 245.36 179.408 264.45 178.827 274.11C177.337 301.11 161.368 394.85 161.368 394.85H153.688C153.688 394.85 148.398 362.94 154.688 334.85C154.688 334.85 156.897 295.27 153.607 284.95C151.307 277.77 144.828 270.82 146.488 255.64C148.148 240.46 152.178 235.27 152.178 235.27L172.988 234.2Z" fill="black"/>
<path d="M140.566 242.15L142.036 239.15L143.576 239.36L142.686 242.48L140.566 242.15Z" fill="#5A8DEE"/>
<path d="M162.789 239.85C166.959 239.6 170.349 239.17 172.519 238.85L173.599 241.94C170.018 242.515 166.41 242.906 162.789 243.11V239.85Z" fill="#5A8DEE"/>
<path d="M145.917 239.59C150.723 240.048 155.554 240.178 160.377 239.98V243.21C158.977 243.21 157.517 243.3 155.997 243.3C152.363 243.302 148.732 243.115 145.117 242.74L145.917 239.59Z" fill="#5A8DEE"/>
<g opacity="0.5">
<path opacity="0.5" d="M140.566 242.15L142.036 239.15L143.576 239.36L142.686 242.48L140.566 242.15Z" fill="white"/>
<path opacity="0.5" d="M162.785 239.85C166.955 239.6 170.345 239.17 172.515 238.85L173.595 241.94C170.014 242.515 166.406 242.906 162.785 243.11V239.85Z" fill="white"/>
<path opacity="0.5" d="M145.117 242.74L145.917 239.59C150.723 240.048 155.554 240.178 160.377 239.98V243.21C158.977 243.21 157.517 243.3 155.997 243.3" fill="white"/>
</g>
<path d="M162.986 401.13C162.948 401.126 162.912 401.108 162.885 401.081C162.857 401.054 162.84 401.018 162.836 400.98C162.828 400.944 162.832 400.906 162.846 400.872C162.86 400.838 162.885 400.81 162.916 400.79C163.036 400.72 165.696 399.13 166.996 399.46C167.235 399.524 167.441 399.673 167.576 399.88C167.659 399.997 167.704 400.137 167.704 400.28C167.704 400.423 167.659 400.563 167.576 400.68C166.925 401.16 166.121 401.384 165.316 401.31C164.536 401.318 163.756 401.258 162.986 401.13ZM163.576 400.88C165.016 401.03 166.956 400.98 167.306 400.47C167.306 400.41 167.406 400.3 167.306 400.07C167.267 400.003 167.214 399.946 167.15 399.902C167.086 399.859 167.013 399.831 166.936 399.82C166.82 399.805 166.702 399.805 166.586 399.82C165.518 399.978 164.49 400.338 163.556 400.88H163.576Z" fill="#5A8DEE"/>
<path d="M162.867 401.12C162.839 401.105 162.815 401.082 162.801 401.053C162.787 401.024 162.782 400.992 162.787 400.96C162.787 400.86 162.957 398.78 163.927 397.96C164.204 397.722 164.564 397.603 164.927 397.63C165.437 397.63 165.597 397.92 165.617 398.13C165.797 399 163.977 400.7 163.057 401.13C163.046 401.135 163.034 401.137 163.022 401.137C163.01 401.137 162.999 401.135 162.987 401.13C162.947 401.139 162.905 401.136 162.867 401.12ZM164.867 397.97C164.635 397.967 164.41 398.053 164.237 398.21C163.667 398.881 163.317 399.712 163.237 400.59C164.177 400.01 165.377 398.68 165.317 398.16C165.317 398.11 165.317 397.98 164.947 397.96L164.867 397.97Z" fill="#5A8DEE"/>
<path d="M162.157 400.06L153.727 400.22C153.572 400.22 153.423 400.274 153.304 400.372C153.185 400.471 153.105 400.608 153.077 400.76L151.677 407.65C151.646 407.795 151.644 407.944 151.671 408.089C151.699 408.234 151.754 408.372 151.835 408.496C151.916 408.62 152.02 408.726 152.143 408.809C152.265 408.892 152.402 408.95 152.547 408.98H152.787C155.787 408.87 158.527 408.65 162.307 408.59C166.767 408.51 165.647 409.06 170.897 409.04C174.057 409.04 174.567 405.42 173.227 405.27C167.077 404.61 166.407 402.77 163.997 400.61C163.469 400.213 162.816 400.018 162.157 400.06Z" fill="#263238"/>
<path d="M153.238 158.78C153.058 158.17 153.238 157.57 153.648 157.46C154.058 157.35 154.518 157.75 154.698 158.37C154.878 158.99 154.698 159.58 154.288 159.69C153.878 159.8 153.408 159.4 153.238 158.78Z" fill="#263238"/>
<path d="M153.168 159.72L157.888 162.72C157.53 163.27 157.05 163.729 156.484 164.06C155.918 164.392 155.282 164.587 154.628 164.63L153.168 159.72Z" fill="#DE5753"/>
<path d="M151.737 157.64C151.796 157.621 151.849 157.588 151.892 157.545C151.936 157.501 151.968 157.448 151.987 157.39C152.115 156.935 152.348 156.517 152.668 156.17C152.987 155.822 153.385 155.555 153.827 155.39C153.874 155.376 153.917 155.353 153.955 155.323C153.993 155.292 154.024 155.255 154.048 155.212C154.071 155.169 154.085 155.122 154.09 155.074C154.096 155.025 154.091 154.977 154.077 154.93C154.051 154.834 153.989 154.751 153.903 154.701C153.816 154.65 153.714 154.636 153.617 154.66C153.055 154.86 152.549 155.192 152.14 155.626C151.732 156.061 151.432 156.587 151.267 157.16C151.235 157.252 151.24 157.352 151.281 157.44C151.322 157.528 151.396 157.596 151.487 157.63C151.526 157.65 151.568 157.661 151.611 157.662C151.654 157.664 151.697 157.656 151.737 157.64Z" fill="#263238"/>
<path d="M132.108 165.5C135.268 172.97 136.448 176.2 141.688 178.76C148.998 180.67 158.078 177.09 157.198 168.81C156.418 161.37 151.388 150.43 142.818 149.99C140.931 149.892 139.05 150.278 137.355 151.112C135.66 151.946 134.206 153.2 133.133 154.755C132.059 156.31 131.401 158.113 131.222 159.994C131.043 161.875 131.348 163.77 132.108 165.5Z" fill="#E4897B"/>
<path opacity="0.2" d="M149.518 175.25C149.518 175.25 154.948 176.35 157.098 171.61C156.368 175.42 153.198 177.84 149.388 178.8L148.078 177.88L148.788 175.95L149.518 175.25Z" fill="black"/>
<path d="M139.637 187.65C139.637 187.65 144.337 185.35 140.947 176.39C140.947 176.39 144.697 172.67 148.597 174.25C152.497 175.83 149.217 184.08 153.807 185.35C153.807 185.35 151.417 188.66 139.637 187.65Z" fill="#E4897B"/>
<path d="M148.817 163.58C147.612 162.411 146.524 161.129 145.567 159.75C143.977 157.46 147.687 154.8 147.057 150.56C146.427 146.32 142.057 148.9 142.057 148.9C142.057 148.9 131.457 147.7 130.057 158.71C128.686 160.837 127.966 163.319 127.985 165.849C128.004 168.38 128.761 170.85 130.164 172.957C131.566 175.063 133.553 176.715 135.881 177.708C138.208 178.702 140.775 178.994 143.267 178.55L143.967 178.39C145.348 177.941 146.553 177.067 147.408 175.892C148.262 174.717 148.724 173.303 148.727 171.85L148.817 163.58Z" fill="#263238"/>
<path d="M141.988 178.7C141.988 178.7 139.208 179.63 140.288 180.75C141.368 181.87 141.988 178.7 141.988 178.7Z" fill="#263238"/>
<path d="M132.826 161.22C132.656 158.71 132.006 156.71 129.496 156.88C126.986 157.05 126.836 159.12 127.006 161.63C127.176 164.14 127.626 166.15 130.136 165.97C132.646 165.79 132.986 163.73 132.826 161.22Z" fill="#5A8DEE"/>
<path d="M146.576 163.1C147.338 163.404 148.032 163.857 148.618 164.433C149.203 165.008 149.668 165.693 149.986 166.45C150.826 168.45 149.076 169.78 146.986 169.45C145.126 169.16 142.466 167.74 142.496 165.58C142.504 165.103 142.632 164.636 142.869 164.222C143.106 163.808 143.444 163.461 143.851 163.213C144.259 162.965 144.723 162.825 145.199 162.805C145.676 162.785 146.15 162.887 146.576 163.1Z" fill="#E4897B"/>
<path d="M120.288 162.1C120.416 163.883 121.246 165.542 122.596 166.714C123.946 167.885 125.705 168.474 127.488 168.35C131.208 168.09 131.428 165.05 131.168 161.35C130.908 157.65 130.258 154.66 126.548 154.92C124.767 155.046 123.109 155.872 121.936 157.217C120.762 158.563 120.17 160.319 120.288 162.1Z" fill="#263238"/>
<path d="M145.837 147.34C145.137 148.34 144.437 149.79 145.197 150.8C145.627 151.38 146.407 151.58 146.927 152.09C147.446 152.707 147.755 153.475 147.807 154.28C148.288 157.159 148.535 160.071 148.547 162.99C150.547 159.53 152.687 155.87 152.767 151.86C152.826 150.662 152.582 149.468 152.057 148.39C151.785 147.857 151.393 147.393 150.913 147.036C150.432 146.679 149.876 146.437 149.287 146.33C148.107 146.17 145.837 147.34 145.837 147.34Z" fill="#263238"/>
<path d="M156.798 185.82C156.798 185.82 157.258 180.1 146.178 182.41C135.098 184.72 142.538 187.9 142.538 187.9L156.798 185.82Z" fill="#5A8DEE"/>
<path opacity="0.5" d="M156.798 185.82C156.798 185.82 157.258 180.1 146.178 182.41C135.098 184.72 142.538 187.9 142.538 187.9L156.798 185.82Z" fill="white"/>
<path d="M172.796 236.25C160.396 238.66 146.176 237.67 140.966 237.18C139.786 237.06 141.966 223.18 129.446 198.03C128.827 196.877 128.617 195.547 128.851 194.259C129.086 192.971 129.75 191.801 130.736 190.94C139.256 183.89 154.736 184.16 161.836 184.73C163.076 184.817 164.278 185.189 165.35 185.817C166.422 186.445 167.334 187.312 168.016 188.35C170.488 192.537 172.153 197.15 172.926 201.95C173.762 206.516 174.241 211.14 174.356 215.78C174.686 226.76 173.356 236.14 172.796 236.25Z" fill="white"/>
<path opacity="0.2" d="M174.358 215.78C170.358 215.02 164.738 200.27 164.738 200.27L172.928 201.95C173.764 206.516 174.242 211.14 174.358 215.78Z" fill="black"/>
<path d="M171.99 192.39L183.89 199.98C184.103 200.117 184.341 200.209 184.591 200.25C184.841 200.291 185.097 200.28 185.343 200.218C185.588 200.156 185.819 200.045 186.019 199.89C186.22 199.736 186.387 199.542 186.51 199.32L196.17 182L199.67 173L200.67 171.91L206.67 166.83H208.97L204.51 170.83L205.75 172.95L207.75 177.5L199.8 184.5C199.8 184.5 195.18 205.27 190.23 209.7C186.3 213.22 166.52 199.24 166.52 199.24L171.99 192.39Z" fill="#E4897B"/>
<path d="M163.776 185.15C166.866 186.09 173.666 189.15 184.326 199.21L176.486 209.71C173.935 209.142 171.549 207.996 169.512 206.359C167.474 204.722 165.84 202.639 164.736 200.27C162.709 196.015 161.683 191.353 161.736 186.64C161.74 186.395 161.8 186.154 161.912 185.936C162.025 185.719 162.186 185.53 162.384 185.386C162.582 185.241 162.811 185.145 163.053 185.104C163.294 185.063 163.542 185.079 163.776 185.15Z" fill="white"/>
<path d="M183.097 197.07L174.227 209.88L177.197 210.5L185.567 199.07L183.097 197.07Z" fill="#5A8DEE"/>
<path opacity="0.5" d="M183.097 197.07L174.227 209.88L177.197 210.5L185.567 199.07L183.097 197.07Z" fill="white"/>
<path d="M162.88 393.22H152.18L152.77 396.33H162.21L162.88 393.22Z" fill="#263238"/>
<path opacity="0.4" d="M162.88 393.22H152.18L152.77 396.33H162.21L162.88 393.22Z" fill="black"/>
<path d="M211.056 197.456H212.04V205.16H216.324V206H211.056V197.456ZM220.199 206.084C219.631 206.084 219.131 205.956 218.699 205.7C218.267 205.444 217.931 205.08 217.691 204.608C217.459 204.136 217.343 203.584 217.343 202.952C217.343 202.32 217.459 201.768 217.691 201.296C217.931 200.824 218.267 200.46 218.699 200.204C219.131 199.948 219.631 199.82 220.199 199.82C220.767 199.82 221.267 199.948 221.699 200.204C222.131 200.46 222.463 200.824 222.695 201.296C222.935 201.768 223.055 202.32 223.055 202.952C223.055 203.584 222.935 204.136 222.695 204.608C222.463 205.08 222.131 205.444 221.699 205.7C221.267 205.956 220.767 206.084 220.199 206.084ZM220.199 205.28C220.799 205.28 221.259 205.084 221.579 204.692C221.899 204.292 222.059 203.712 222.059 202.952C222.059 202.216 221.895 201.648 221.567 201.248C221.239 200.84 220.783 200.636 220.199 200.636C219.607 200.636 219.147 200.84 218.819 201.248C218.491 201.648 218.327 202.216 218.327 202.952C218.327 203.712 218.487 204.292 218.807 204.692C219.135 205.084 219.599 205.28 220.199 205.28ZM227.343 206.084C226.759 206.084 226.247 205.956 225.807 205.7C225.375 205.444 225.039 205.084 224.799 204.62C224.567 204.148 224.451 203.6 224.451 202.976C224.451 202.352 224.571 201.804 224.811 201.332C225.051 200.852 225.391 200.48 225.831 200.216C226.279 199.952 226.799 199.82 227.391 199.82C227.799 199.82 228.191 199.892 228.567 200.036C228.951 200.172 229.267 200.364 229.515 200.612L229.191 201.332C228.887 201.092 228.591 200.916 228.303 200.804C228.023 200.692 227.735 200.636 227.439 200.636C226.823 200.636 226.339 200.844 225.987 201.26C225.635 201.668 225.459 202.24 225.459 202.976C225.459 203.704 225.631 204.272 225.975 204.68C226.327 205.08 226.815 205.28 227.439 205.28C227.735 205.28 228.023 205.224 228.303 205.112C228.591 205 228.887 204.824 229.191 204.584L229.515 205.304C229.259 205.544 228.935 205.736 228.543 205.88C228.159 206.016 227.759 206.084 227.343 206.084ZM236.308 199.964V206H235.348V204.908C235.172 205.284 234.904 205.576 234.544 205.784C234.192 205.984 233.78 206.084 233.308 206.084C232.772 206.084 232.3 205.956 231.892 205.7C231.492 205.444 231.18 205.084 230.956 204.62C230.74 204.148 230.632 203.6 230.632 202.976C230.632 202.352 230.744 201.804 230.968 201.332C231.192 200.852 231.504 200.48 231.904 200.216C232.312 199.952 232.78 199.82 233.308 199.82C233.78 199.82 234.192 199.924 234.544 200.132C234.896 200.34 235.164 200.632 235.348 201.008V199.964H236.308ZM233.5 205.28C234.092 205.28 234.548 205.08 234.868 204.68C235.188 204.272 235.348 203.696 235.348 202.952C235.348 202.208 235.188 201.636 234.868 201.236C234.548 200.836 234.092 200.636 233.5 200.636C232.908 200.636 232.444 200.844 232.108 201.26C231.78 201.668 231.616 202.24 231.616 202.976C231.616 203.712 231.78 204.28 232.108 204.68C232.436 205.08 232.9 205.28 233.5 205.28ZM239.723 200.732V204.032C239.723 204.48 239.815 204.796 239.999 204.98C240.183 205.156 240.443 205.244 240.779 205.244C241.003 205.244 241.219 205.208 241.427 205.136V205.964C241.179 206.044 240.899 206.084 240.587 206.084C240.011 206.084 239.559 205.924 239.231 205.604C238.911 205.276 238.751 204.796 238.751 204.164V200.732H237.575V199.964H238.751V198.416L239.723 198.068V199.964H241.451V200.732H239.723ZM242.863 199.964H243.835V206H242.863V199.964ZM243.955 197.408V198.512H242.767V197.408H243.955ZM248.458 206.084C247.89 206.084 247.39 205.956 246.958 205.7C246.526 205.444 246.19 205.08 245.95 204.608C245.718 204.136 245.602 203.584 245.602 202.952C245.602 202.32 245.718 201.768 245.95 201.296C246.19 200.824 246.526 200.46 246.958 200.204C247.39 199.948 247.89 199.82 248.458 199.82C249.026 199.82 249.526 199.948 249.958 200.204C250.39 200.46 250.722 200.824 250.954 201.296C251.194 201.768 251.314 202.32 251.314 202.952C251.314 203.584 251.194 204.136 250.954 204.608C250.722 205.08 250.39 205.444 249.958 205.7C249.526 205.956 249.026 206.084 248.458 206.084ZM248.458 205.28C249.058 205.28 249.518 205.084 249.838 204.692C250.158 204.292 250.318 203.712 250.318 202.952C250.318 202.216 250.154 201.648 249.826 201.248C249.498 200.84 249.042 200.636 248.458 200.636C247.866 200.636 247.406 200.84 247.078 201.248C246.75 201.648 246.586 202.216 246.586 202.952C246.586 203.712 246.746 204.292 247.066 204.692C247.394 205.084 247.858 205.28 248.458 205.28ZM256.081 199.82C257.529 199.82 258.253 200.616 258.253 202.208V206H257.281V202.256C257.281 201.696 257.169 201.288 256.945 201.032C256.721 200.768 256.369 200.636 255.889 200.636C255.329 200.636 254.881 200.808 254.545 201.152C254.209 201.496 254.041 201.96 254.041 202.544V206H253.069V201.656C253.069 201.032 253.037 200.468 252.973 199.964H253.897L253.993 201.044C254.177 200.652 254.453 200.352 254.821 200.144C255.189 199.928 255.609 199.82 256.081 199.82ZM269.062 205.172V206H264.298V205.172H266.182V198.68L264.43 199.796V198.848L266.614 197.456H267.178V205.172H269.062Z" fill="white"/>
<path d="M211.056 226.456H212.04V234.16H216.324V235H211.056V226.456ZM220.199 235.084C219.631 235.084 219.131 234.956 218.699 234.7C218.267 234.444 217.931 234.08 217.691 233.608C217.459 233.136 217.343 232.584 217.343 231.952C217.343 231.32 217.459 230.768 217.691 230.296C217.931 229.824 218.267 229.46 218.699 229.204C219.131 228.948 219.631 228.82 220.199 228.82C220.767 228.82 221.267 228.948 221.699 229.204C222.131 229.46 222.463 229.824 222.695 230.296C222.935 230.768 223.055 231.32 223.055 231.952C223.055 232.584 222.935 233.136 222.695 233.608C222.463 234.08 222.131 234.444 221.699 234.7C221.267 234.956 220.767 235.084 220.199 235.084ZM220.199 234.28C220.799 234.28 221.259 234.084 221.579 233.692C221.899 233.292 222.059 232.712 222.059 231.952C222.059 231.216 221.895 230.648 221.567 230.248C221.239 229.84 220.783 229.636 220.199 229.636C219.607 229.636 219.147 229.84 218.819 230.248C218.491 230.648 218.327 231.216 218.327 231.952C218.327 232.712 218.487 233.292 218.807 233.692C219.135 234.084 219.599 234.28 220.199 234.28ZM227.343 235.084C226.759 235.084 226.247 234.956 225.807 234.7C225.375 234.444 225.039 234.084 224.799 233.62C224.567 233.148 224.451 232.6 224.451 231.976C224.451 231.352 224.571 230.804 224.811 230.332C225.051 229.852 225.391 229.48 225.831 229.216C226.279 228.952 226.799 228.82 227.391 228.82C227.799 228.82 228.191 228.892 228.567 229.036C228.951 229.172 229.267 229.364 229.515 229.612L229.191 230.332C228.887 230.092 228.591 229.916 228.303 229.804C228.023 229.692 227.735 229.636 227.439 229.636C226.823 229.636 226.339 229.844 225.987 230.26C225.635 230.668 225.459 231.24 225.459 231.976C225.459 232.704 225.631 233.272 225.975 233.68C226.327 234.08 226.815 234.28 227.439 234.28C227.735 234.28 228.023 234.224 228.303 234.112C228.591 234 228.887 233.824 229.191 233.584L229.515 234.304C229.259 234.544 228.935 234.736 228.543 234.88C228.159 235.016 227.759 235.084 227.343 235.084ZM236.308 228.964V235H235.348V233.908C235.172 234.284 234.904 234.576 234.544 234.784C234.192 234.984 233.78 235.084 233.308 235.084C232.772 235.084 232.3 234.956 231.892 234.7C231.492 234.444 231.18 234.084 230.956 233.62C230.74 233.148 230.632 232.6 230.632 231.976C230.632 231.352 230.744 230.804 230.968 230.332C231.192 229.852 231.504 229.48 231.904 229.216C232.312 228.952 232.78 228.82 233.308 228.82C233.78 228.82 234.192 228.924 234.544 229.132C234.896 229.34 235.164 229.632 235.348 230.008V228.964H236.308ZM233.5 234.28C234.092 234.28 234.548 234.08 234.868 233.68C235.188 233.272 235.348 232.696 235.348 231.952C235.348 231.208 235.188 230.636 234.868 230.236C234.548 229.836 234.092 229.636 233.5 229.636C232.908 229.636 232.444 229.844 232.108 230.26C231.78 230.668 231.616 231.24 231.616 231.976C231.616 232.712 231.78 233.28 232.108 233.68C232.436 234.08 232.9 234.28 233.5 234.28ZM239.723 229.732V233.032C239.723 233.48 239.815 233.796 239.999 233.98C240.183 234.156 240.443 234.244 240.779 234.244C241.003 234.244 241.219 234.208 241.427 234.136V234.964C241.179 235.044 240.899 235.084 240.587 235.084C240.011 235.084 239.559 234.924 239.231 234.604C238.911 234.276 238.751 233.796 238.751 233.164V229.732H237.575V228.964H238.751V227.416L239.723 227.068V228.964H241.451V229.732H239.723ZM242.863 228.964H243.835V235H242.863V228.964ZM243.955 226.408V227.512H242.767V226.408H243.955ZM248.458 235.084C247.89 235.084 247.39 234.956 246.958 234.7C246.526 234.444 246.19 234.08 245.95 233.608C245.718 233.136 245.602 232.584 245.602 231.952C245.602 231.32 245.718 230.768 245.95 230.296C246.19 229.824 246.526 229.46 246.958 229.204C247.39 228.948 247.89 228.82 248.458 228.82C249.026 228.82 249.526 228.948 249.958 229.204C250.39 229.46 250.722 229.824 250.954 230.296C251.194 230.768 251.314 231.32 251.314 231.952C251.314 232.584 251.194 233.136 250.954 233.608C250.722 234.08 250.39 234.444 249.958 234.7C249.526 234.956 249.026 235.084 248.458 235.084ZM248.458 234.28C249.058 234.28 249.518 234.084 249.838 233.692C250.158 233.292 250.318 232.712 250.318 231.952C250.318 231.216 250.154 230.648 249.826 230.248C249.498 229.84 249.042 229.636 248.458 229.636C247.866 229.636 247.406 229.84 247.078 230.248C246.75 230.648 246.586 231.216 246.586 231.952C246.586 232.712 246.746 233.292 247.066 233.692C247.394 234.084 247.858 234.28 248.458 234.28ZM256.081 228.82C257.529 228.82 258.253 229.616 258.253 231.208V235H257.281V231.256C257.281 230.696 257.169 230.288 256.945 230.032C256.721 229.768 256.369 229.636 255.889 229.636C255.329 229.636 254.881 229.808 254.545 230.152C254.209 230.496 254.041 230.96 254.041 231.544V235H253.069V230.656C253.069 230.032 253.037 229.468 252.973 228.964H253.897L253.993 230.044C254.177 229.652 254.453 229.352 254.821 229.144C255.189 228.928 255.609 228.82 256.081 228.82ZM269.254 234.172V235H263.758V234.256L266.746 230.944C267.146 230.496 267.438 230.092 267.622 229.732C267.806 229.372 267.898 229.012 267.898 228.652C267.898 228.18 267.762 227.82 267.49 227.572C267.218 227.316 266.83 227.188 266.326 227.188C265.51 227.188 264.702 227.516 263.902 228.172L263.53 227.416C263.866 227.096 264.29 226.84 264.802 226.648C265.314 226.456 265.83 226.36 266.35 226.36C267.134 226.36 267.754 226.564 268.21 226.972C268.666 227.372 268.894 227.916 268.894 228.604C268.894 229.092 268.782 229.564 268.558 230.02C268.342 230.468 267.978 230.972 267.466 231.532L265.03 234.172H269.254Z" fill="white"/>
<path d="M211.056 254.456H212.04V262.16H216.324V263H211.056V254.456ZM220.199 263.084C219.631 263.084 219.131 262.956 218.699 262.7C218.267 262.444 217.931 262.08 217.691 261.608C217.459 261.136 217.343 260.584 217.343 259.952C217.343 259.32 217.459 258.768 217.691 258.296C217.931 257.824 218.267 257.46 218.699 257.204C219.131 256.948 219.631 256.82 220.199 256.82C220.767 256.82 221.267 256.948 221.699 257.204C222.131 257.46 222.463 257.824 222.695 258.296C222.935 258.768 223.055 259.32 223.055 259.952C223.055 260.584 222.935 261.136 222.695 261.608C222.463 262.08 222.131 262.444 221.699 262.7C221.267 262.956 220.767 263.084 220.199 263.084ZM220.199 262.28C220.799 262.28 221.259 262.084 221.579 261.692C221.899 261.292 222.059 260.712 222.059 259.952C222.059 259.216 221.895 258.648 221.567 258.248C221.239 257.84 220.783 257.636 220.199 257.636C219.607 257.636 219.147 257.84 218.819 258.248C218.491 258.648 218.327 259.216 218.327 259.952C218.327 260.712 218.487 261.292 218.807 261.692C219.135 262.084 219.599 262.28 220.199 262.28ZM227.343 263.084C226.759 263.084 226.247 262.956 225.807 262.7C225.375 262.444 225.039 262.084 224.799 261.62C224.567 261.148 224.451 260.6 224.451 259.976C224.451 259.352 224.571 258.804 224.811 258.332C225.051 257.852 225.391 257.48 225.831 257.216C226.279 256.952 226.799 256.82 227.391 256.82C227.799 256.82 228.191 256.892 228.567 257.036C228.951 257.172 229.267 257.364 229.515 257.612L229.191 258.332C228.887 258.092 228.591 257.916 228.303 257.804C228.023 257.692 227.735 257.636 227.439 257.636C226.823 257.636 226.339 257.844 225.987 258.26C225.635 258.668 225.459 259.24 225.459 259.976C225.459 260.704 225.631 261.272 225.975 261.68C226.327 262.08 226.815 262.28 227.439 262.28C227.735 262.28 228.023 262.224 228.303 262.112C228.591 262 228.887 261.824 229.191 261.584L229.515 262.304C229.259 262.544 228.935 262.736 228.543 262.88C228.159 263.016 227.759 263.084 227.343 263.084ZM236.308 256.964V263H235.348V261.908C235.172 262.284 234.904 262.576 234.544 262.784C234.192 262.984 233.78 263.084 233.308 263.084C232.772 263.084 232.3 262.956 231.892 262.7C231.492 262.444 231.18 262.084 230.956 261.62C230.74 261.148 230.632 260.6 230.632 259.976C230.632 259.352 230.744 258.804 230.968 258.332C231.192 257.852 231.504 257.48 231.904 257.216C232.312 256.952 232.78 256.82 233.308 256.82C233.78 256.82 234.192 256.924 234.544 257.132C234.896 257.34 235.164 257.632 235.348 258.008V256.964H236.308ZM233.5 262.28C234.092 262.28 234.548 262.08 234.868 261.68C235.188 261.272 235.348 260.696 235.348 259.952C235.348 259.208 235.188 258.636 234.868 258.236C234.548 257.836 234.092 257.636 233.5 257.636C232.908 257.636 232.444 257.844 232.108 258.26C231.78 258.668 231.616 259.24 231.616 259.976C231.616 260.712 231.78 261.28 232.108 261.68C232.436 262.08 232.9 262.28 233.5 262.28ZM239.723 257.732V261.032C239.723 261.48 239.815 261.796 239.999 261.98C240.183 262.156 240.443 262.244 240.779 262.244C241.003 262.244 241.219 262.208 241.427 262.136V262.964C241.179 263.044 240.899 263.084 240.587 263.084C240.011 263.084 239.559 262.924 239.231 262.604C238.911 262.276 238.751 261.796 238.751 261.164V257.732H237.575V256.964H238.751V255.416L239.723 255.068V256.964H241.451V257.732H239.723ZM242.863 256.964H243.835V263H242.863V256.964ZM243.955 254.408V255.512H242.767V254.408H243.955ZM248.458 263.084C247.89 263.084 247.39 262.956 246.958 262.7C246.526 262.444 246.19 262.08 245.95 261.608C245.718 261.136 245.602 260.584 245.602 259.952C245.602 259.32 245.718 258.768 245.95 258.296C246.19 257.824 246.526 257.46 246.958 257.204C247.39 256.948 247.89 256.82 248.458 256.82C249.026 256.82 249.526 256.948 249.958 257.204C250.39 257.46 250.722 257.824 250.954 258.296C251.194 258.768 251.314 259.32 251.314 259.952C251.314 260.584 251.194 261.136 250.954 261.608C250.722 262.08 250.39 262.444 249.958 262.7C249.526 262.956 249.026 263.084 248.458 263.084ZM248.458 262.28C249.058 262.28 249.518 262.084 249.838 261.692C250.158 261.292 250.318 260.712 250.318 259.952C250.318 259.216 250.154 258.648 249.826 258.248C249.498 257.84 249.042 257.636 248.458 257.636C247.866 257.636 247.406 257.84 247.078 258.248C246.75 258.648 246.586 259.216 246.586 259.952C246.586 260.712 246.746 261.292 247.066 261.692C247.394 262.084 247.858 262.28 248.458 262.28ZM256.081 256.82C257.529 256.82 258.253 257.616 258.253 259.208V263H257.281V259.256C257.281 258.696 257.169 258.288 256.945 258.032C256.721 257.768 256.369 257.636 255.889 257.636C255.329 257.636 254.881 257.808 254.545 258.152C254.209 258.496 254.041 258.96 254.041 259.544V263H253.069V258.656C253.069 258.032 253.037 257.468 252.973 256.964H253.897L253.993 258.044C254.177 257.652 254.453 257.352 254.821 257.144C255.189 256.928 255.609 256.82 256.081 256.82ZM267.538 258.608C268.042 258.752 268.426 259 268.69 259.352C268.954 259.704 269.086 260.148 269.086 260.684C269.086 261.428 268.834 262.016 268.33 262.448C267.826 262.872 267.142 263.084 266.278 263.084C265.726 263.084 265.194 262.992 264.682 262.808C264.178 262.624 263.75 262.364 263.398 262.028L263.782 261.272C264.574 261.928 265.398 262.256 266.254 262.256C266.862 262.256 267.322 262.12 267.634 261.848C267.954 261.576 268.114 261.176 268.114 260.648C268.114 259.6 267.458 259.076 266.146 259.076H265.162V258.248H265.954C266.586 258.248 267.07 258.108 267.406 257.828C267.742 257.548 267.91 257.148 267.91 256.628C267.91 256.164 267.77 255.808 267.49 255.56C267.218 255.312 266.83 255.188 266.326 255.188C265.51 255.188 264.702 255.516 263.902 256.172L263.53 255.416C263.874 255.088 264.294 254.832 264.79 254.648C265.294 254.456 265.818 254.36 266.362 254.36C267.13 254.36 267.742 254.556 268.198 254.948C268.662 255.34 268.894 255.868 268.894 256.532C268.894 257.02 268.774 257.448 268.534 257.816C268.294 258.184 267.962 258.448 267.538 258.608Z" fill="white"/>
</svg>
