<svg width="283" height="218" viewBox="0 0 283 218" fill="none" xmlns="http://www.w3.org/2000/svg">
<path d="M162.6 50.7244C162.6 50.7244 176.3 34.2244 202.6 44.7244C228.9 55.2244 254.6 98.5244 230.7 150.824" stroke="#274D79" stroke-width="0.782" stroke-miterlimit="10"/>
<path d="M165.299 62.2246C164.099 65.3246 152.199 60.6246 153.399 57.6246L155.099 53.3246C156.399 50.0246 160.099 48.4246 163.399 49.7246C166.699 51.0246 168.299 54.7246 166.999 58.0246L165.299 62.2246Z" fill="#407BFF"/>
<path d="M153.3 57.6246C151.9 60.6246 164 65.3246 165.2 62.2246C166.2 59.8246 154.3 55.4246 153.3 57.6246Z" fill="#5A8DEE"/>
<path d="M158 59.9246C157.9 60.3246 157.3 60.4246 156.7 60.2246C156.1 60.0246 155.8 59.5246 155.9 59.1246C156 58.7246 156.6 58.6246 157.2 58.8246C157.8 59.0246 158.2 59.5246 158 59.9246Z" fill="#000E5B"/>
<path d="M162.301 61.5247C162.201 61.9247 161.601 62.0247 161.001 61.8247C160.401 61.6247 160.101 61.1247 160.201 60.7247C160.301 60.3247 160.901 60.2247 161.501 60.4247C162.101 60.6247 162.401 61.1247 162.301 61.5247Z" fill="#000E5B"/>
<path d="M228.8 212.425C228.8 212.425 223.6 211.025 220.3 206.325C216.9 201.625 218.7 190.325 224.6 187.125C230.4 183.925 234.9 180.125 234 171.325C233.1 162.525 236 155.625 243.4 154.725C250.8 153.825 253.7 153.725 261.1 147.025C268.5 140.325 274.6 139.325 277.5 143.025C280.4 146.825 278.2 151.925 276.6 156.425C275 160.925 280.6 165.525 281.8 170.125C282.9 174.625 282 180.525 276.2 183.825C270.4 187.025 266.3 189.625 267 195.525C267.7 201.425 264.3 210.325 251.7 212.525H228.8V212.425Z" fill="#407BFF"/>
<path d="M268.1 152.425C268.1 152.425 240.7 173.925 235.9 212.425" stroke="#1B2B47" stroke-width="1.575" stroke-miterlimit="10" stroke-linecap="round"/>
<path d="M203.201 136.425C198.901 139.125 199.201 143.825 199.401 149.825C199.601 155.825 197.901 157.925 194.501 161.925C191.101 165.925 192.901 171.925 198.901 174.625C204.801 177.325 210.001 181.525 206.901 188.525C203.801 195.525 204.901 208.325 220.401 212.525H240.301C240.301 212.525 254.301 204.425 256.101 189.525C257.901 174.625 246.001 173.325 242.601 168.425C239.201 163.425 240.201 156.725 240.301 149.825C240.401 143.025 235.201 139.525 228.201 139.925C221.201 140.325 218.501 139.925 214.901 137.425C211.201 134.925 206.801 134.125 203.201 136.425Z" fill="#D5E3FB"/>
<path d="M210.102 145.225C210.102 145.425 234.302 161.825 233.202 212.325" stroke="#1B2B47" stroke-width="1.575" stroke-miterlimit="10" stroke-linecap="round"/>
<path d="M266.57 213.755H1.03022C0.450716 213.755 0 213.304 0 212.725C0 212.145 0.450716 211.694 1.03022 211.694H266.57C267.149 211.694 267.6 212.145 267.6 212.725C267.6 213.304 267.149 213.755 266.57 213.755Z" fill="#1B2B47"/>
<path d="M59 198.825C62.4 201.525 72 212.425 108.7 212.425C118.9 212.425 130 212.825 139 210.425C162.2 204.125 177.5 195.625 177.5 195.625L132.5 180.325L92.2 180.525L59 198.825Z" fill="#1B2B47"/>
<path d="M90.0004 192.325L72.4004 195.725L73.0004 205.325L92.7004 204.825L90.0004 192.325Z" fill="#FFC5B2"/>
<path d="M90.002 192.324C90.002 192.324 132.602 180.224 145.902 176.924C161.102 173.024 184.102 162.624 191.802 172.324C199.602 182.024 190.102 194.924 169.102 200.624C148.102 206.324 90.702 205.724 90.702 205.724L90.002 192.324Z" fill="#1B2B47"/>
<path d="M55.8012 189.825C55.8012 189.825 55.1012 192.025 55.2012 196.725C55.3012 201.425 57.7012 204.925 57.9012 211.725C57.9012 211.725 60.5012 207.425 60.4012 200.325C60.4012 193.325 55.8012 189.825 55.8012 189.825Z" fill="#5D82C8"/>
<path d="M81.3012 205.525C78.5012 205.825 73.9012 207.925 71.1012 209.425C68.3012 210.925 66.8012 212.525 61.7012 212.425C61.7012 212.425 61.7012 199.125 61.1012 195.025C60.6012 190.925 59.7012 190.225 59.7012 190.225C59.7012 190.225 64.4012 190.525 66.7012 191.725C69.0012 192.925 69.3012 193.525 73.4012 193.725C77.5012 193.925 79.2012 194.125 81.0012 194.025C83.8012 198.325 82.7012 203.425 81.3012 205.525Z" fill="#263238"/>
<path d="M69.4012 207.124C69.4012 207.124 71.0012 200.224 68.7012 195.524" stroke="#5A8DEE" stroke-width="0.9245" stroke-miterlimit="10" stroke-linecap="round"/>
<path d="M72.3016 206.225C72.3016 206.225 73.8016 200.925 71.6016 195.925" stroke="#5A8DEE" stroke-width="0.9245" stroke-miterlimit="10" stroke-linecap="round"/>
<path d="M75.6016 204.925C75.6016 204.925 77.0016 201.425 75.1016 196.225" stroke="#5A8DEE" stroke-width="0.9245" stroke-miterlimit="10" stroke-linecap="round"/>
<path d="M61.8018 212.425C60.2018 212.425 58.3018 212.325 58.0018 211.725C57.7018 211.025 59.6019 207.125 58.9019 199.225C58.5019 195.025 55.5019 190.025 55.9019 189.925C56.3019 189.825 58.6019 188.925 59.9019 190.225C61.2019 191.525 67.7018 200.225 61.8018 212.425Z" fill="#598BEA"/>
<path d="M167.4 104.325C172.9 100.425 184.9 91.3245 191.2 71.7245C193.2 65.5245 193.4 61.2245 193.3 58.4245C190.1 55.7245 190.4 50.5245 187.4 47.3245C183.2 42.8245 179.5 37.1245 187.6 37.1245C192.1 37.1245 196.3 37.3245 198.5 39.4245C200.3 41.1245 203.6 46.2245 204.2 47.9245C205.6 51.9245 204 56.9245 203.8 63.0245C203.6 69.1245 199.6 107.025 170.4 122.925L167.4 104.325Z" fill="#FFC5B2"/>
<path d="M104.001 90.0247C104.001 90.0247 103.901 94.9247 103.401 96.9247C103.001 98.9247 103.401 100.025 97.3008 101.025C97.3008 101.025 99.8008 109.025 110.401 110.425C121.001 111.825 125.301 103.425 125.001 103.425C124.701 103.425 121.701 102.225 120.801 101.625C119.901 101.025 120.601 89.3247 120.601 89.3247L104.001 90.0247Z" fill="#FFC5B2"/>
<path d="M120.4 92.2247C120.4 92.2247 119.1 96.3247 112.7 96.7247C106.3 97.1247 103.9 93.1247 103.9 93.1247L104 90.0247L120.6 89.3247L120.4 92.2247Z" fill="#FBA589"/>
<path d="M93.8013 72.4246C93.8013 72.4246 90.5013 71.9246 89.0013 74.3246C87.5013 76.7246 89.4013 81.3246 92.8013 82.1246C96.1013 82.8246 97.2013 81.0246 97.2013 81.0246L93.8013 72.4246Z" fill="#FFC5B2"/>
<path d="M90.9016 74.8244C91.7016 74.4244 92.9016 74.3244 93.6016 74.7244C93.9016 74.9244 93.5016 75.3244 93.3016 75.3244C91.9016 75.0244 90.2016 75.1244 89.7016 76.8244C89.7016 76.9244 89.6016 76.8244 89.6016 76.8244C89.7016 75.9244 90.1016 75.3244 90.9016 74.8244Z" fill="#FBA589"/>
<path d="M91.6005 74.9244C91.7005 74.8244 92.1005 75.1244 92.1005 75.2244C91.9005 75.3244 91.6006 75.6244 91.4006 76.0244C91.2006 76.5244 91.2005 77.0244 91.3005 77.6244C91.6005 78.9244 92.5005 79.8244 93.8005 79.9244C93.8005 79.9244 93.9005 80.0244 93.8005 80.0244C92.7005 80.4244 91.2005 79.4244 90.8005 78.4244C90.5005 77.3244 90.3005 75.7244 91.6005 74.9244Z" fill="#FBA589"/>
<path d="M126.002 66.2243C126.002 66.2243 128.902 64.5243 131.202 66.2243C133.502 67.9243 133.502 72.9243 130.502 74.8243C127.702 76.7243 126.002 75.4243 126.002 75.4243V66.2243Z" fill="#FFC5B2"/>
<path d="M129.601 67.4244C128.701 67.3244 127.601 67.7244 127.101 68.4244C126.901 68.7244 127.401 69.0244 127.601 68.8244C128.801 68.0244 130.401 67.5244 131.501 68.9244C131.601 69.0244 131.601 68.9244 131.601 68.8244C131.201 68.0244 130.501 67.5244 129.601 67.4244Z" fill="#FBA589"/>
<path d="M129.002 67.7241C128.802 67.7241 128.602 68.1241 128.602 68.2241C128.802 68.2241 129.202 68.4241 129.502 68.7241C129.902 69.1241 130.102 69.5241 130.202 70.1241C130.402 71.5241 129.902 72.6241 128.702 73.2241V73.3241C129.902 73.3241 130.902 71.8241 130.902 70.7241C130.902 69.6241 130.502 68.0241 129.002 67.7241Z" fill="#FBA589"/>
<path d="M114.101 50.1245C111.501 49.2245 108.801 48.9245 106.101 49.4245C103.501 49.9245 100.801 51.1245 98.801 52.9245C94.001 57.1245 92.101 63.6245 93.301 69.8245C93.601 71.6245 94.101 73.3245 94.601 75.0245L95.401 77.4245C96.001 79.3245 97.301 82.8245 99.501 86.1245C103.701 92.6245 110.601 93.7245 114.601 92.9245C118.601 92.1245 124.501 88.6245 126.101 81.0245C126.901 77.2245 126.801 73.4245 126.601 71.4245L126.401 68.9245C126.301 67.1245 126.001 65.3245 125.701 63.6245C124.401 57.4245 120.101 52.2245 114.101 50.1245Z" fill="#FFC5B2"/>
<path d="M116.501 68.5242C116.301 67.6242 116.901 66.7242 117.901 66.5242C118.801 66.3242 119.701 66.9242 119.901 67.9242C120.101 68.8242 119.501 69.7242 118.501 69.9242C117.601 70.1242 116.701 69.5242 116.501 68.5242Z" fill="#263238"/>
<path d="M116.902 62.3243L125.002 63.8243C125.002 63.8243 124.402 61.6243 121.502 60.4243C120.202 59.9243 118.802 59.9243 118.002 60.4243C116.802 61.1243 116.902 62.3243 116.902 62.3243Z" fill="#263238"/>
<path d="M103.002 64.8242L97.1018 70.5242C97.1018 70.5242 96.4018 68.3242 98.1018 65.8242C98.9018 64.7242 100.102 63.9242 101.102 63.9242C102.402 63.7242 103.002 64.8242 103.002 64.8242Z" fill="#263238"/>
<path d="M105.702 70.8244C105.502 69.9244 104.602 69.3244 103.702 69.4244C102.802 69.6244 102.202 70.5244 102.302 71.4244C102.502 72.3244 103.402 72.9244 104.302 72.8244C105.202 72.7244 105.802 71.8244 105.702 70.8244Z" fill="#263238"/>
<path d="M111.601 69.1245C110.801 69.3245 110.201 77.3245 111.301 78.5245C111.701 79.0245 112.901 79.3245 113.501 79.1245C114.101 79.0245 115.101 78.3245 115.301 77.7245C115.901 76.3245 112.401 69.1245 111.601 69.1245Z" fill="#D79488"/>
<path d="M95.8011 56.7244C95.8011 56.7244 100.101 63.2244 107.201 65.1244C114.301 67.0244 118.301 58.8244 117.601 55.1244C117.601 55.1244 124.501 66.2244 126.101 66.2244C126.101 66.2244 127.801 61.7244 127.201 56.7244C126.601 51.7244 124.301 49.2244 121.701 47.3244C119.301 45.5244 116.901 46.6244 115.901 47.2244C114.601 44.8244 110.801 39.6244 103.301 40.5244C94.9011 41.4244 91.7011 47.2244 92.9011 56.0244C92.9011 56.0244 89.8011 55.1244 87.9011 58.8244C86.0011 62.4244 88.1011 69.5244 90.6011 72.9244C90.6011 72.9244 92.8011 72.2244 93.8011 72.4244C93.8011 72.4244 92.3011 66.6244 93.7011 61.5244C94.9011 57.3244 95.8011 56.7244 95.8011 56.7244Z" fill="#263238"/>
<path d="M99.9006 100.424C100.601 103.424 104.901 108.224 111.101 108.524C117.301 108.824 122.401 104.624 123.301 102.824C128.501 103.324 135.101 104.724 137.301 105.124C140.401 105.724 143.501 108.524 142.301 117.324C141.201 125.924 134.401 180.024 134.401 180.024C134.401 180.024 116.501 187.024 92.2005 180.624C92.2005 180.624 77.5005 121.924 76.2005 116.824C74.9005 111.724 73.3006 106.424 77.9006 104.824C82.7006 103.124 99.9006 100.424 99.9006 100.424Z" fill="#F99746"/>
<path d="M119.901 162.924C120.201 163.024 120.601 163.024 120.901 163.124C124.301 163.524 122.801 159.624 121.701 158.124C120.101 155.824 108.701 147.024 108.701 147.024L99.9008 147.724L89.9008 151.824L85.8008 155.024C86.6008 158.324 87.4008 161.524 88.2008 164.524C91.9008 162.224 100.901 156.624 102.901 156.524C104.101 156.424 105.301 156.824 106.401 157.324C108.001 158.024 109.601 158.624 111.301 159.224C112.101 159.524 112.801 159.724 113.501 160.124C114.801 160.724 116.001 161.624 117.301 162.224C118.201 162.524 119.101 162.724 119.901 162.924Z" fill="#ED7D2B"/>
<path d="M158.201 144.424L164.601 147.524" stroke="#274D79" stroke-width="2.1" stroke-miterlimit="10" stroke-linecap="round"/>
<path d="M155.4 149.725L161.9 152.825" stroke="#274D79" stroke-width="2.1" stroke-miterlimit="10" stroke-linecap="round"/>
<path d="M65.5 172.325C74 173.525 89 173.825 102.3 161.825C113 152.125 122.7 133.725 147.5 141.825" stroke="#274D79" stroke-width="0.782" stroke-miterlimit="10"/>
<path d="M159.202 140.924C162.102 142.524 156.102 153.824 153.202 152.224L149.102 150.024C146.002 148.324 144.802 144.524 146.402 141.324C148.102 138.224 151.902 137.024 155.102 138.624L159.202 140.924Z" fill="#407BFF"/>
<path d="M71.5008 113.625C71.5008 113.625 51.4008 149.925 47.8008 156.025C44.2008 162.125 44.9008 169.025 45.7008 170.725C46.5008 172.425 56.9008 173.625 66.4008 169.925C76.0008 166.325 100.601 153.825 102.401 152.825C102.401 152.825 104.701 154.325 107.101 155.525C110.401 157.125 113.001 157.125 115.201 158.725C117.301 160.325 119.701 163.425 123.801 161.425C126.201 160.225 120.801 152.625 118.401 148.425C116.001 146.425 107.501 142.925 103.301 143.525C97.3008 144.425 67.1008 154.624 67.1008 154.624L78.0008 135.725L71.5008 113.625Z" fill="#FFC5B2"/>
<path d="M79.1008 104.325C74.2008 105.825 72.3008 108.325 67.5008 117.025C62.7008 125.825 56.3008 136.425 56.3008 136.425C56.3008 136.425 61.5008 144.525 72.9008 146.825L80.7008 133.725L79.1008 104.325Z" fill="#F99746"/>
<path d="M137.301 105.125C143.201 106.125 158.201 110.525 167.401 104.325C167.401 104.325 173.501 113.525 172.401 125.125C172.401 125.125 160.001 136.225 140.501 131.725L137.301 105.125Z" fill="#F99746"/>
<path d="M139.101 195.125L156.301 199.825L154.901 209.325L135.301 207.325L139.101 195.125Z" fill="#FFC5B2"/>
<path d="M139.1 195.124C139.1 195.124 99.4999 181.424 84.7999 176.024C70.0999 170.624 48.5998 159.824 39.9998 168.924C31.4998 177.924 38.5998 191.424 59.0998 198.824C79.5998 206.124 137.4 208.424 137.4 208.424C139.1 204.024 139.6 199.624 139.1 195.124Z" fill="#2D4777"/>
<path d="M173.301 195.324C173.301 195.324 173.801 197.524 173.301 202.224C172.801 206.824 170.201 210.224 169.401 216.924C169.401 216.924 167.101 212.424 167.801 205.324C168.501 198.424 173.301 195.324 173.301 195.324Z" fill="#5D82C8"/>
<path d="M146.6 208.924C149.3 209.424 153.7 211.924 156.4 213.624C159.1 215.324 160.5 217.024 165.5 217.424C165.5 217.424 166.6 204.124 167.5 200.124C168.4 196.024 169.3 195.424 169.3 195.424C169.3 195.424 164.6 195.324 162.2 196.424C159.8 197.524 159.5 198.024 155.4 197.824C151.3 197.624 149.6 197.724 147.8 197.524C144.7 201.524 145.4 206.724 146.6 208.924Z" fill="#263238"/>
<path d="M158.4 211.424C158.4 211.424 157.4 204.424 160.1 199.924" stroke="#5A8DEE" stroke-width="0.9245" stroke-miterlimit="10" stroke-linecap="round"/>
<path d="M155.501 210.425C155.501 210.425 154.401 205.025 157.001 200.225" stroke="#5A8DEE" stroke-width="0.9245" stroke-miterlimit="10" stroke-linecap="round"/>
<path d="M152.4 208.825C152.4 208.825 151.3 205.225 153.5 200.225" stroke="#5A8DEE" stroke-width="0.9245" stroke-miterlimit="10" stroke-linecap="round"/>
<path d="M165.501 217.424C167.101 217.524 169.001 217.624 169.401 217.024C169.701 216.424 168.201 212.224 169.601 204.524C170.301 200.324 173.701 195.624 173.301 195.424C172.901 195.224 170.701 194.224 169.301 195.424C167.801 196.624 160.601 204.724 165.501 217.424Z" fill="#5A8DEE"/>
<path d="M139.001 202.225H138.101C138.101 202.225 112.301 200.525 84.6007 196.025C57.4007 191.525 39.0007 182.425 36.6007 175.625C35.4007 183.725 43.2007 193.125 59.1007 198.825C79.6007 206.125 137.401 208.425 137.401 208.425C138.001 206.625 138.601 204.625 139.001 202.225Z" fill="#1B2B47"/>
<path d="M133.902 192.825C133.902 196.425 133.102 204.425 131.602 209.425" stroke="#274D79" stroke-width="0.782" stroke-miterlimit="10"/>
<path d="M80.6016 133.825C80.6016 133.825 83.7016 125.625 81.6016 113.625C81.6016 113.625 85.5016 128.325 81.3016 136.425L80.6016 133.825Z" fill="#ED7D2B"/>
<path d="M140.502 131.825C140.502 131.825 141.602 122.525 139.602 113.825C139.602 113.825 142.102 118.825 141.902 132.125L140.502 131.825Z" fill="#ED7D2B"/>
<path d="M30.7008 22.1245L51.9008 44.1245L44.8008 52.1245L21.3008 32.7245L30.7008 22.1245ZM58.9008 49.7245C59.5008 50.3245 60.0008 50.9245 60.4008 51.6245C60.7008 52.3245 60.9008 53.1245 61.0008 53.9245C61.0008 54.7245 60.9008 55.4245 60.7008 56.2245C60.5008 57.0245 60.1008 57.7245 59.5008 58.3245C58.9008 58.9245 58.3008 59.4245 57.6008 59.8245C56.9008 60.1245 56.1008 60.3245 55.3008 60.4245C54.5008 60.4245 53.8008 60.3245 53.0008 60.1245C52.2008 59.9245 51.5008 59.4245 50.9008 58.9245C50.3008 58.3245 49.8008 57.7245 49.4008 57.0245C49.0008 56.3245 48.8008 55.5245 48.8008 54.7245C48.8008 53.9245 48.9008 53.1245 49.1008 52.4245C49.3008 51.6245 49.7008 50.9245 50.3008 50.3245C50.9008 49.7245 51.5008 49.2245 52.2008 48.9245C52.9008 48.6245 53.7008 48.4245 54.5008 48.3245C55.3008 48.3245 56.1008 48.4245 56.8008 48.6245C57.6008 48.7245 58.3008 49.1245 58.9008 49.7245Z" fill="#5A8DEE"/>
<path d="M74.7996 29.6246L65.2996 32.0246C64.6996 30.0246 64.3996 28.4246 64.3996 26.9246C64.3996 25.5246 64.5996 24.2246 64.9996 23.2246C65.3996 22.2246 65.8996 21.3246 66.4996 20.5246C67.0996 19.8246 67.6996 19.1246 68.3996 18.5246C68.9996 17.9246 69.5996 17.4246 69.9996 16.9246C70.4996 16.4246 70.6996 15.8246 70.7996 15.2246C70.7996 14.8246 70.7996 14.4246 70.5996 14.0246C70.3996 13.6246 70.0996 13.2246 69.6996 12.9246C69.2996 12.6246 68.6996 12.4246 67.9996 12.3246C67.2996 12.2246 66.3996 12.3246 65.3996 12.5246C64.6996 12.7246 63.8996 12.9246 62.9996 13.3246C62.0996 13.7246 61.1996 14.1246 60.1996 14.6246C59.2996 15.1246 58.2996 15.7246 57.3996 16.3246C56.4996 16.9246 55.6996 17.5246 55.0996 18.2246L51.0996 7.52456C51.6996 6.92456 52.3996 6.32456 53.0996 5.62456C53.8996 4.92456 54.6996 4.32455 55.6996 3.72455C56.6996 3.12455 57.6996 2.52456 58.8996 2.02456C60.0996 1.52456 61.3996 1.02455 62.7996 0.724553C65.0996 0.124552 67.3996 -0.0754445 69.5996 0.0245555C71.7996 0.124556 73.7996 0.624556 75.6996 1.52456C77.4996 2.42456 79.0996 3.62455 80.4996 5.22455C81.8996 6.82455 82.7996 8.72456 83.3996 11.1246C83.7996 12.9246 83.8996 14.4246 83.6996 15.6246C83.4996 16.8246 82.9996 17.9246 82.3996 18.7246C81.7996 19.6246 81.0996 20.4246 80.1996 21.1246C79.2996 21.8246 78.4996 22.6246 77.6996 23.3246C76.8996 24.1246 76.1996 25.0246 75.6996 26.0246C75.0996 26.9246 74.7996 28.2246 74.7996 29.6246ZM77.9996 36.7246C78.1996 37.5246 78.1996 38.3246 78.0996 39.1246C77.9996 39.9246 77.6996 40.6246 77.2996 41.3246C76.8996 42.0246 76.3996 42.5246 75.6996 43.0246C74.9996 43.5246 74.2996 43.8246 73.4996 44.0246C72.6996 44.2246 71.8996 44.2246 71.0996 44.1246C70.2996 44.0246 69.5996 43.7246 68.8996 43.3246C68.1996 42.9246 67.6996 42.4246 67.1996 41.7246C66.6996 41.1246 66.3996 40.3246 66.1996 39.5246C65.9996 38.7246 65.9996 37.9246 66.0996 37.1246C66.1996 36.3246 66.4996 35.6246 66.8996 34.9246C67.2996 34.2246 67.7996 33.6246 68.4996 33.2246C69.0996 32.7246 69.8996 32.4246 70.6996 32.1246C71.4996 31.9246 72.2996 31.9246 73.0996 32.0246C73.8996 32.1246 74.5996 32.4246 75.2996 32.8246C75.9996 33.2246 76.5996 33.7246 77.0996 34.4246C77.4996 35.2246 77.7996 35.9246 77.9996 36.7246Z" fill="#5A8DEE"/>
</svg>
